<?xml version="1.0" standalone="no"?>
<!DOCTYPE svg PUBLIC "-//W3C//DTD SVG 20010904//EN"
 "http://www.w3.org/TR/2001/REC-SVG-20010904/DTD/svg10.dtd">
<svg version="1.0" xmlns="http://www.w3.org/2000/svg"
 width="700.000000pt" height="700.000000pt" viewBox="0 0 700.000000 700.000000"
 preserveAspectRatio="xMidYMid meet">
<metadata>
Created by potrace 1.14, written by Peter Selinger 2001-2017
</metadata>
<g transform="translate(0.000000,700.000000) scale(0.100000,-0.100000)"
fill="#000000" stroke="none">
<path d="M1959 6996 c-2 -2 -35 -7 -74 -11 -138 -13 -426 -83 -520 -125 -11
-5 -48 -20 -82 -34 -126 -52 -356 -185 -439 -255 -18 -14 -47 -37 -65 -51 -57
-43 -254 -242 -312 -315 -69 -88 -187 -265 -187 -281 0 -7 -4 -14 -9 -16 -20
-7 -114 -224 -181 -418 -14 -41 -50 -199 -56 -244 -3 -22 -7 -47 -10 -55 -2
-8 -8 -46 -12 -85 -10 -97 -9 -3111 1 -3211 32 -327 161 -678 353 -960 19 -27
42 -61 51 -75 39 -58 157 -190 234 -265 287 -275 627 -456 1019 -544 226 -51
195 -50 1870 -47 861 1 1576 5 1590 8 14 4 43 9 65 13 295 44 591 157 845 324
99 65 90 58 205 154 414 343 686 857 743 1402 10 96 9 3124 -1 3205 -14 114
-17 133 -48 260 -94 395 -275 716 -569 1011 -233 234 -503 401 -815 507 -68
23 -158 49 -195 56 -14 2 -45 9 -70 15 -25 5 -65 13 -90 16 -25 3 -61 9 -80
12 -36 7 -3154 16 -3161 9z"/>
</g>
</svg>
