<svg xmlns="http://www.w3.org/2000/svg" width="238" height="337" viewBox="0 0 238 337">
  <path fill="none" stroke="#FFC600" stroke-width="4" d="M959.500986,338.814569 L959.500986,348.570409 C959.500986,375.46596 937.630804,398 910.751807,398 L910.751807,398 L891.252135,398 C864.373138,398 842.502957,375.46596 842.502957,348.570409 L842.502957,348.570409 L842.502957,338.814569 L959.500986,338.814569 Z M961.625344,294.434018 C960.304722,298.943856 959.579705,303.77667 959.507045,308.802586 L959.500986,309.642005 L959.500986,319.302888 L842.502957,319.302888 L842.502957,308.812758 C842.502957,303.863254 841.763377,299.02278 840.350257,294.43467 L961.625344,294.434018 Z M901.001971,65 C965.518584,65 1018,118.164127 1018,182.720473 C1018,217.7615 1002.45161,250.6686 975.354219,273.000369 C974.943749,273.338901 974.540408,273.6858 974.144297,274.040836 L827.747471,274.040469 C827.072337,273.39861 826.376285,272.775152 825.659791,272.171123 C799.390483,250.048779 784.204139,217.69451 784.001961,183.396878 C783.634099,118.668178 835.074232,65 901.001971,65 Z" transform="translate(-782 -63)"/>
</svg>
