<svg xmlns="http://www.w3.org/2000/svg" width="97" height="102" viewBox="0 0 97 102">
  <g fill="none">
    <path fill="#7C7C7C" d="M1.39372393,84.1153559 L10.4917547,84.1153559 L10.4917547,97.0562105 C10.4917547,97.0562105 6.35657575,97.0562105 4.84996018,97.0562105 C2.17142189,97.0562105 0,94.8835303 0,92.2034399 L0,85.5098875 C0,84.7397076 0.623990115,84.1153559 1.39372393,84.1153559 Z"/>
    <path fill="#A8A8A8" d="M5.53626966,84.1153559 L5.53626966,92.2034399 C5.53626966,94.1378544 4.40476493,95.8075071 2.76813483,96.5870503 C3.39889446,96.8874722 4.10471608,97.0562105 4.84996018,97.0562105 L10.4917547,97.0562105 L10.4917547,84.1153559 L5.53626966,84.1153559 Z"/>
    <path fill="#7C7C7C" d="M95.6062761,12.9408546 L85.2751979,12.9408546 L85.2751979,0 L92.1500398,0 C94.8285781,0 97,2.1726802 97,4.85277068 L97,11.5463231 C97,12.3165029 96.3760099,12.9408546 95.6062761,12.9408546 Z"/>
    <path fill="#A8A8A8" d="M94.2318652,0.469160268 C93.6009064,0.168539103 92.8952839,0 92.1500398,0 C91.3096243,0 85.2751979,0 85.2751979,0 L85.2751979,12.9408546 L91.4637303,12.9408546 L91.4637303,4.85277068 C91.4637303,2.91835616 92.5952351,1.24870342 94.2318652,0.469160268 Z"/>
    <path fill="#F0F0F0" d="M16.1970631,0 C12.6088213,0 9.69992036,2.91058663 9.69992036,6.50090779 L9.69992036,92.2034399 C9.69992036,94.8835303 7.52849847,97.0562105 4.84996018,97.0562105 L11.7865242,97.0562105 L11.7837367,97.0496363 L40.4162021,97.0496363 L42.0532304,94.7580225 L54.7787263,94.7580225 L56.5837979,97.0496363 L80.7754606,97.0496363 C84.3788343,97.0496363 87.2998805,94.1268973 87.2998805,90.5214355 L87.2998805,4.85277068 C87.3000796,2.1726802 89.4715015,0 92.1500398,0 L16.1970631,0 Z"/>
    <path fill="#F0F0F0" d="M26.3487491,97.0498355 C28.9104137,96.9187496 30.9470426,94.7990616 30.9470426,92.2034399 L30.9470426,6.50090779 C30.9470426,2.91058663 33.8557444,0 37.4439863,0 L16.1970631,0 C12.6088213,0 9.69992036,2.91058663 9.69992036,6.50090779 L9.69992036,92.2034399 C9.69992036,94.8835303 7.52849847,97.0562105 4.84996018,97.0562105 L11.7865242,97.0562105 L11.7837367,97.0496363 L26.3487491,97.0496363 L26.3487491,97.0498355 Z"/>
    <path fill="#E0E0E0" d="M74.3796615,90.5794082 L30.9476399,90.5794082 L21.1469732,84.1219301 L21.1469732,12.9279054 L30.9476399,6.47042732 L74.3802588,6.47042732 C74.3802588,10.0364438 77.2692494,12.9271085 80.8332006,12.9271085 L80.8332006,84.1219301 C77.2690503,84.1219301 74.3796615,87.0129933 74.3796615,90.5794082 Z"/>
    <path fill="#D3D3D3" d="M24.4941008,84.1219301 L24.4941008,12.9279054 C28.0584502,12.9279054 30.947839,10.0368422 30.947839,6.47042732 L22.6205376,6.47042732 C22.6205376,10.0368422 19.7311488,12.9279054 16.1667994,12.9279054 L16.1667994,84.1219301 C19.7311488,84.1219301 22.6205376,87.0129933 22.6205376,90.5794082 L30.947839,90.5794082 C30.9476399,87.0129933 28.0582511,84.1219301 24.4941008,84.1219301 Z"/>
    <g transform="translate(32.333 51.763)">
      <path fill="#C31F1F" d="M24.2503982,28.971792 L24.2503982,48.8185663 C24.2503982,50.0053126 22.8783765,50.6651253 21.9521474,49.9238322 L16.1666003,45.2929912 L10.3810532,49.9238322 C9.45482405,50.6651253 8.08280239,50.0053126 8.08280239,48.8185663 L8.08280239,28.971792 L24.2503982,28.971792 Z"/>
      <path fill="#E53737" d="M14.3282784,28.971792 L8.08280239,28.971792 L8.08280239,48.8185663 C8.08280239,50.0053126 9.45482405,50.6651253 10.3810532,49.9238322 L14.3282784,46.7644213 L14.3282784,28.971792 Z"/>
      <ellipse cx="16.167" cy="16.176" fill="#FFC600" rx="16.167" ry="16.176"/>
      <path fill="#ECB906" d="M10.4091267,16.1759687 C10.4091267,9.06485371 14.9970668,3.02991869 21.3711637,0.861621298 C19.737321,0.305800854 17.9881975,0 16.1666003,0 C7.23800658,0 0,7.24220094 0,16.1759687 C0,25.1097364 7.23800658,32.3519374 16.1666003,32.3519374 C17.9881975,32.3519374 19.7375201,32.0459373 21.3711637,31.4903161 C14.9970668,29.3220187 10.4091267,23.2870837 10.4091267,16.1759687 L10.4091267,16.1759687 Z"/>
      <ellipse cx="16.167" cy="16.176" fill="#FFE690" rx="9.7" ry="9.706"/>
      <path fill="#FFDC60" d="M14.7939813,16.1759687 C14.7939813,12.3071396 17.0569908,8.96763494 20.330251,7.40854863 C19.0685326,6.80750552 17.6570885,6.4702281 16.1666003,6.4702281 C10.8095237,6.4702281 6.46667994,10.8155885 6.46667994,16.1757695 C6.46667994,23.3528259 13.9603353,27.9772918 20.3304501,24.9431895 C17.0569908,23.3843024 14.7939813,20.0447977 14.7939813,16.1759687 L14.7939813,16.1759687 Z"/>
    </g>
    <path fill="#1D1D1D" d="M40.3614487 9.70554137L1.56136901 9.70554137C.698853 9.70554137 0 10.4049986 0 11.2678152 0 12.1306318.699052104 12.830089 1.56136901 12.830089L40.3612495 12.830089C41.2237656 12.830089 41.9226186 12.1306318 41.9226186 11.2678152 41.9226186 10.4049986 41.2237656 9.70554137 40.3614487 9.70554137zM40.3614487 16.1759687L1.56136901 16.1759687C.698853 16.1759687 0 16.8754259 0 17.7382425 0 18.6010591.699052104 19.3005163 1.56136901 19.3005163L40.3612495 19.3005163C41.2237656 19.3005163 41.9226186 18.6010591 41.9226186 17.7382425 41.9226186 16.8754259 41.2237656 16.1759687 40.3614487 16.1759687zM41.9228177 24.2086698C41.9228177 23.3458532 41.2237656 22.646396 40.3614487 22.646396L1.56136901 22.646396C.698853 22.646396 0 23.3458532 0 24.2086698 0 25.0714864.699052104 25.7709436 1.56136901 25.7709436L40.3612495 25.7709436C41.2237656 25.7709436 41.9228177 25.0714864 41.9228177 24.2086698L41.9228177 24.2086698zM29.0740767 3.12454762C29.9365927 3.12454762 30.6354457 2.42509042 30.6354457 1.56227381 30.6354457.699457197 29.9363936 0 29.0740767 0L12.8487409 0C11.9862249 0 11.2873719.699457197 11.2873719 1.56227381 11.2873719 2.42509042 11.986424 3.12454762 12.8487409 3.12454762L29.0740767 3.12454762zM12.8487409 29.0530733C11.9862249 29.0530733 11.2873719 29.7525305 11.2873719 30.6153471 11.2873719 31.4781637 11.986424 32.1776209 12.8487409 32.1776209L29.0740767 32.1776209C29.9365927 32.1776209 30.6354457 31.4781637 30.6354457 30.6153471 30.6354457 29.7525305 29.9363936 29.0530733 29.0740767 29.0530733L12.8487409 29.0530733z" transform="translate(27.539 11.379)"/>
  </g>
</svg>
