<svg xmlns="http://www.w3.org/2000/svg" width="837" height="937" viewBox="0 0 837 937">
  <defs>
    <linearGradient id="footer_bg-a" x1="17.432%" x2="45.621%" y1="8.919%" y2="57.279%">
      <stop offset="0%" stop-color="#5C5C5C"/>
      <stop offset="100%" stop-color="#181818"/>
    </linearGradient>
  </defs>
  <path fill="url(#footer_bg-a)" d="M529.642582,3867.80123 L529.642582,3810.83597 L707.409658,3810.83597 C721.601119,3860.97048 663.750621,3897.79802 718.055105,3897.79802 C783.64082,3897.79802 837,3844.09444 837,3778.0831 C837,3712.07175 783.643793,3658.36218 718.055105,3658.36218 C661.72327,3658.36218 718.185537,3697.99292 705.953056,3750.99945 L499.913047,3750.99945 C483.498039,3750.99945 470.186485,3764.39618 470.186485,3780.91621 L470.186485,3837.88147 L391.277324,3837.88147 L391.277324,3823.43766 C391.277324,3806.91762 377.96577,3793.52089 361.550762,3793.52089 L102.753906,3793.52089 L102.753906,3650.63169 L184.68923,3650.63169 C197.923496,3702.21717 244.546637,3740.43584 299.873715,3740.43584 C365.45943,3740.43584 418.815637,3686.72926 418.815637,3620.71493 C418.815637,3554.70658 365.45943,3501 299.873715,3501 C244.546637,3501 197.923496,3539.21568 184.68923,3590.79816 L73.0273437,3590.79816 C56.6123359,3590.79816 43.3007812,3604.19489 43.3007812,3620.71493 L43.3007812,3793.52089 L-152.168534,3793.52089 L-153.803611,3966.40315 L-315.763395,3966.40315 L-315.763395,3898.25575 C-264.514801,3884.93381 -226.545063,3838.00638 -226.545063,3782.3223 C-226.545063,3716.31395 -279.90127,3662.60737 -345.489957,3662.60737 C-411.078645,3662.60737 -464.434852,3716.31096 -464.434852,3782.3223 C-464.434852,3838.00638 -426.468086,3884.93681 -375.21652,3898.25575 L-375.21652,3996.31991 C-375.21652,4012.83995 -361.904965,4026.23668 -345.489957,4026.23668 L-153.803611,4026.23668 L-153.803611,4115.98697 L-450.531738,4115.98697 C-463.251734,4063.66255 -510.207813,4024.71092 -566.055105,4024.71092 C-631.643793,4024.71092 -685,4078.4175 -685,4144.43183 C-685,4210.44018 -631.643793,4264.14676 -566.055105,4264.14676 C-511.260133,4264.14676 -465.02641,4226.65208 -451.286793,4175.8235 L-297.731355,4175.8235 L-297.731355,4489.94055 L-448.281438,4489.94055 C-456.337336,4431.76142 -506.066902,4386.82046 -566.058078,4386.82046 C-631.643793,4386.82046 -685,4440.52404 -685,4506.53538 C-685,4572.54673 -631.643793,4626.25031 -566.055105,4626.25031 C-515.615074,4626.25031 -472.440215,4594.47272 -455.172055,4549.77408 L-268.004792,4549.77408 C-251.589785,4549.77408 -238.27823,4536.37736 -238.27823,4519.85732 L-238.27823,4175.8205 L-153.803611,4175.8205 L-153.803611,4385.62902 C-153.803611,4402.14906 -140.492056,4415.54579 -124.077048,4415.54579 L47.263332,4415.54579 L47.263332,4502.91246 C47.263332,4519.4325 60.5748867,4532.82923 76.9898945,4532.82923 L168.152344,4532.82923 L168.152344,4683.40629 L62.2841641,4683.40629 C50.8751094,4629.29883 3.05101562,4588.57314 -54.0596563,4588.57314 C-119.645371,4588.57314 -173.004551,4642.27672 -173.004551,4708.28806 C-173.004551,4774.29941 -119.645371,4828 -54.0596563,4828 C-0.55184375,4828 44.8049453,4792.24947 59.7009258,4743.23982 L197.878906,4743.23982 C214.293914,4743.23982 227.605469,4729.84309 227.605469,4713.32306 L227.605469,4502.91246 C227.605469,4486.39243 214.293914,4472.9957 197.878906,4472.9957 L106.716457,4472.9957 L106.716457,4415.54579 L361.553735,4415.54579 C377.968742,4415.54579 391.280297,4402.14906 391.280297,4385.62902 L391.280297,4337.8856 L454.333309,4337.8856 L459.450478,4714.32228 C459.450478,4730.84231 462.388391,4744.23904 478.803399,4744.23904 L727.011719,4744.23904 C743.426727,4744.23904 756.738281,4730.84231 756.738281,4714.32228 L756.738281,4615.4713 C803.385203,4599.27436 837,4554.67445 837,4502.29019 C837,4436.28184 783.643793,4382.57527 718.055105,4382.57527 C652.466418,4382.57527 599.110211,4436.27885 599.110211,4502.29019 C599.110211,4561.16639 641.56866,4610.21792 697.282184,4620.13832 L697.282184,4684.40252 L518.90063,4684.40252 L513.783461,4307.96884 C513.783461,4291.4488 500.471906,4278.05207 484.056899,4278.05207 L391.277324,4278.05207 L391.277324,4082.07931 L470.183512,4082.07931 L470.183512,4151.88111 C470.183512,4168.40115 483.495067,4181.79787 499.910074,4181.79787 L710.26638,4181.79787 C727.100533,4227.35512 666.996762,4259.90157 718.052133,4259.90157 C783.637848,4259.90157 837,4206.19799 837,4140.18664 C837,4074.1753 783.64082,4020.47172 718.052133,4020.47172 C658.619816,4020.47172 712.968525,4064.56903 704.219998,4121.96135 L529.636637,4121.96135 L529.636637,4052.15956 C529.636637,4035.63952 516.325082,4022.24279 499.910074,4022.24279 L391.277324,4022.24279 L391.277324,3897.715 L499.91602,3897.715 C516.331027,3897.71799 529.642582,3884.32127 529.642582,3867.80123 Z M718.176234,3718.16365 C751.162556,3718.16365 778,3745.09807 778,3778.2119 C778,3811.31973 751.162556,3838.25415 718.176234,3838.25415 C685.189912,3838.25415 762.667793,3811.31973 762.667793,3778.2119 C762.670782,3745.10107 685.189912,3718.16365 718.176234,3718.16365 Z M300.501487,3561.04525 C333.307133,3561.04525 360,3587.97967 360,3621.0875 C360,3654.19833 333.307133,3681.13575 300.501487,3681.13575 C267.692867,3681.13575 241,3654.20133 241,3621.0875 C241,3587.97667 267.689894,3561.04525 300.501487,3561.04525 Z M-405,3782.20892 C-405,3749.10109 -378.3078,3722.16667 -345.5,3722.16667 C-312.6922,3722.16667 -286,3749.10109 -286,3782.20892 C-286,3815.31974 -312.6922,3842.25716 -345.5,3842.25716 C-378.3078,3842.25716 -405,3815.31974 -405,3782.20892 Z M-565.5,4204.53017 C-598.3078,4204.53017 -625,4177.59807 -625,4144.48942 C-625,4111.37776 -598.3078,4084.43967 -565.5,4084.43967 C-532.6922,4084.43967 -506,4111.37476 -506,4144.48942 C-506.002973,4177.59807 -532.6922,4204.53017 -565.5,4204.53017 Z M-565.5,4566.80317 C-598.3078,4566.80317 -625,4539.8674 -625,4506.75792 C-625,4473.64844 -598.3078,4446.71267 -565.5,4446.71267 C-532.6922,4446.71267 -506,4473.64844 -506,4506.75792 C-506,4539.8674 -532.6922,4566.80317 -565.5,4566.80317 Z M-53.5,4768.95551 C-86.3077999,4768.95551 -113,4742.01974 -113,4708.91026 C-113,4675.80077 -86.3077999,4648.86501 -53.5,4648.86501 C-20.6922001,4648.86501 6,4675.80077 6,4708.91026 C6,4742.01974 -20.6922001,4768.95551 -53.5,4768.95551 Z M332,4355.64404 L-94,4355.64404 L-94,3853.26546 L332,3853.26546 L332,4355.64404 Z M659,4502.7549 C659,4469.64542 685.692867,4442.70965 718.501487,4442.70965 C751.310106,4442.70965 778,4469.64542 778,4502.7549 C778,4535.86438 751.307133,4562.80015 718.498513,4562.80015 C685.689894,4562.80015 659,4535.86438 659,4502.7549 Z M718.176234,4080.43665 C751.162556,4080.43665 778,4107.37242 778,4140.4819 C778,4173.59138 751.162556,4200.52715 718.176234,4200.52715 C685.189912,4200.52715 762.667793,4173.59138 762.667793,4140.4819 C762.667793,4107.37242 685.189912,4080.43665 718.176234,4080.43665 Z" opacity=".2" transform="matrix(-1 0 0 1 152 -3590)"/>
</svg>
