<svg xmlns="http://www.w3.org/2000/svg" width="1194" height="1146" viewBox="0 0 1194 1146">
  <defs>
    <linearGradient id="header_bg-a" x1="50%" x2="43.639%" y1="7.331%" y2="93.052%">
      <stop offset="0%" stop-color="#5C5C5C"/>
      <stop offset="57.271%" stop-color="#3D3D3D" stop-opacity=".798"/>
      <stop offset="100%" stop-color="#181818"/>
    </linearGradient>
  </defs>
  <path fill="#e6e6e6" d="M1460.64258,276.524814 L1460.64258,219.602484 L1638.40966,219.602484 C1652.60112,269.699218 1594.75062,306.499004 1649.05511,306.499004 C1714.64082,306.499004 1768,252.835888 1768,186.874291 C1768,120.912694 1714.64379,67.2435996 1649.05511,67.2435996 C1592.72327,67.2435996 1649.18554,106.844473 1636.95306,159.811053 L1430.91305,159.811053 C1414.49804,159.811053 1401.18648,173.197685 1401.18648,189.705274 L1401.18648,246.627604 L1322.27732,246.627604 C1322.28069,172.680228 1262.40336,112.696384 1188.45609,112.568337 L1033.75391,112.300454 L1033.75391,112.300454 L1033.75391,-30.481067 L1210.68923,-110.481067 C1223.9235,-58.9344627 1270.54664,-20.744596 1325.87371,-20.744596 C1391.45943,-20.744596 1444.81564,-74.4107006 1444.81564,-140.375287 C1444.81564,-166.127536 1436.68223,-190.005966 1422.86311,-209.548201 C1401.28764,-240.059015 1365.85277,-260 1325.87371,-260 C1270.54664,-260 1223.9235,-221.813123 1210.68923,-170.269508 L1004.02734,-90.2695079 C987.612336,-90.2695079 974.300781,-76.882876 974.300781,-60.3752874 L974.300781,112.300454 L922.465553,112.300454 C842.919683,112.300454 778.224906,176.3858 777.472047,255.928107 L777.196389,285.05243 L777.196389,285.05243 L615.236605,285.05243 L615.236605,216.956385 C666.485199,203.644489 704.454938,156.752415 704.454938,101.110302 C704.454938,35.151694 651.09873,-18.5144105 585.510043,-18.5144105 C519.921355,-18.5144105 466.565148,35.1487046 466.565148,101.110302 C466.565148,156.752415 504.531914,203.647478 555.78348,216.956385 L555.78348,314.94665 C555.78348,331.454239 569.095035,344.840871 585.510043,344.840871 L777.196389,344.840871 L777.196389,434.523532 L480.468262,434.523532 C467.748266,382.238541 420.792188,343.316266 364.944895,343.316266 C299.356207,343.316266 246,396.98237 246,462.946957 C246,528.905565 299.356207,582.571669 364.944895,582.571669 C419.739867,582.571669 465.97359,545.105243 479.713207,494.314962 L633.268645,494.314962 L633.268645,808.195309 L482.718563,808.195309 C474.662664,750.060018 424.933098,705.15292 364.941922,705.15292 C299.356207,705.15292 246,758.816036 246,824.777633 C246,890.73923 299.356207,944.402346 364.944895,944.402346 C415.384926,944.402346 458.559785,912.648705 475.827945,867.98375 L662.995208,867.98375 C679.410215,867.98375 692.72177,854.597118 692.72177,838.089529 L692.72177,494.311973 L777.196389,494.311973 L777.281921,589.100213 C777.354182,669.181469 842.331446,734.041574 922.412702,733.969313 C922.466704,733.969265 922.520706,733.969186 922.574709,733.969077 L978.263332,733.856606 L978.263332,733.856606 L978.263332,821.157443 C978.263332,837.665031 991.574887,851.051663 1007.98989,851.051663 L1099.15234,851.051663 L1099.15234,1001.51525 L993.284164,1001.51525 C981.875109,947.448567 934.051016,906.753564 876.940344,906.753564 C811.354629,906.753564 757.995449,960.416679 757.995449,1026.37828 C757.995449,1092.33987 811.354629,1146 876.940344,1146 C930.448156,1146 975.804945,1110.27641 990.700926,1061.30369 L1128.87891,1061.30369 C1145.29391,1061.30369 1158.60547,1047.91706 1158.60547,1031.40947 L1158.60547,821.157443 C1158.60547,804.649854 1145.29391,791.263222 1128.87891,791.263222 L1037.71646,791.263222 L1037.71646,733.856606 L1177.07449,734.055212 C1257.15569,734.16934 1322.16686,669.343213 1322.28099,589.262006 C1322.28112,589.17026 1322.28116,589.078514 1322.28112,588.986768 L1322.2803,587.254944 L1322.2803,587.254944 L1385.33331,587.254944 L1390.45048,963.407941 C1390.45048,979.91553 1393.38839,993.302162 1409.8034,993.302162 L1658.01172,993.302162 C1674.42673,993.302162 1687.73828,979.91553 1687.73828,963.407941 L1687.73828,864.631458 C1734.3852,848.446727 1768,803.880423 1768,751.535643 C1768,685.577035 1714.64379,631.910931 1649.05511,631.910931 C1583.46642,631.910931 1530.11021,685.574046 1530.11021,751.535643 C1530.11021,810.367469 1572.56866,859.382033 1628.28218,869.294956 L1628.28218,933.510731 L1449.90063,933.510731 L1444.78346,557.360724 C1444.78346,540.853135 1431.47191,527.466503 1415.0569,527.466503 L1322.27732,527.466503 L1322.27732,400.641423 L1401.18351,400.641423 L1401.18351,470.390618 C1401.18351,486.898206 1414.49507,500.284838 1430.91007,500.284838 L1641.26638,500.284838 C1658.10053,545.807757 1597.99676,578.32968 1649.05213,578.32968 C1714.63785,578.32968 1768,524.666564 1768,458.704967 C1768,392.74337 1714.64082,339.080254 1649.05213,339.080254 C1589.61982,339.080254 1643.96852,383.144335 1635.22,440.493408 L1460.63664,440.493408 L1460.63664,370.744213 C1460.63664,354.236624 1447.32508,340.849992 1430.91007,340.849992 L1322.27732,340.849992 L1322.27732,306.416045 L1430.91602,306.416045 C1447.33103,306.419034 1460.64258,293.032402 1460.64258,276.524814 Z M1649.17623,127 C1682.16256,127 1709,153.914123 1709,187.002997 C1709,220.085877 1682.16256,247 1649.17623,247 C1616.18991,247 1693.66779,220.085877 1693.66779,187.002997 C1693.67078,153.91712 1616.18991,127 1649.17623,127 Z M1326.50149,-200 C1359.30713,-200 1386,-173.085877 1386,-140.002997 C1386,-106.91712 1359.30713,-80 1326.50149,-80 C1293.69287,-80 1267,-106.914123 1267,-140.002997 C1267,-173.088874 1293.68989,-200 1326.50149,-200 Z M526,100.997003 C526,67.914123 552.6922,41 585.5,41 C618.3078,41 645,67.914123 645,100.997003 C645,134.08288 618.3078,161 585.5,161 C552.6922,161 526,134.08288 526,100.997003 Z M365.5,523 C332.6922,523 306,496.088202 306,463.004496 C306,429.917793 332.6922,403 365.5,403 C398.3078,403 425,429.914795 425,463.004496 C424.997027,496.088202 398.3078,523 365.5,523 Z M365.5,885 C332.6922,885 306,858.084532 306,825 C306,791.915468 332.6922,765 365.5,765 C398.3078,765 425,791.915468 425,825 C425,858.084532 398.3078,885 365.5,885 Z M877.5,1087 C844.6922,1087 818,1060.08453 818,1027 C818,993.915468 844.6922,967 877.5,967 C910.3078,967 937,993.915468 937,1027 C937,1060.08453 910.3078,1087 877.5,1087 Z M1163,674 L937,674 C881.771525,674 837,629.228475 837,574 L837,272 C837,216.771525 881.771525,172 937,172 L1163,172 C1218.22847,172 1263,216.771525 1263,272 L1263,574 C1263,629.228475 1218.22847,674 1163,674 Z M1590,752 C1590,718.915468 1616.69287,692 1649.50149,692 C1682.31011,692 1709,718.915468 1709,752 C1709,785.084532 1682.30713,812 1649.49851,812 C1616.68989,812 1590,785.084532 1590,752 Z M1649.17623,399 C1682.16256,399 1709,425.915468 1709,459 C1709,492.084532 1682.16256,519 1649.17623,519 C1616.18991,519 1693.66779,492.084532 1693.66779,459 C1693.66779,425.915468 1616.18991,399 1649.17623,399 Z" opacity=".4" transform="translate(-246)"/>
</svg>
