<svg xmlns="http://www.w3.org/2000/svg" width="109" height="47" viewBox="0 0 109 47">
  <g fill="none" transform="translate(0 .72)">
    <path fill="#FFF" d="M64.1234524 29.2795074L64.1234524 18.347472 74.596801 18.347472 74.596801 13.3401411 64.1234524 13.3401411 64.1234524 7.7976756 75.8964136 7.7976756 75.8964136 2.7903447 58.160524 2.7903447 58.160524 29.2795074 64.1234524 29.2795074zM82.5473722 6.7274064C83.4647458 6.7274064 84.261077 6.42798585 84.9363659 5.82914475 85.6116548 5.23030365 85.9492993 4.4084898 85.9492993 3.3637032 85.9492993 2.3189166 85.6116548 1.49710275 84.9363659.89826165 84.261077.29942055 83.4647458 0 82.5473722 0 81.6299986 0 80.8336673.29942055 80.1583784.89826165 79.4830895 1.49710275 79.1454451 2.3189166 79.1454451 3.3637032 79.1454451 4.4084898 79.4830895 5.23030365 80.1583784 5.82914475 80.8336673 6.42798585 81.6299986 6.7274064 82.5473722 6.7274064zM85.4141647 29.2795074L85.4141647 9.173736 79.7188036 9.173736 79.7188036 29.2795074 85.4141647 29.2795074zM94.2821095 29.2795074C94.5369355 28.7698554 94.836356 28.2219795 95.1803711 27.6358797 95.5243862 27.0497799 95.874772 26.4573095 96.2315284 25.8584684 96.5882848 25.2596273 96.9641531 24.6671568 97.3591334 24.081057 97.7541137 23.4949572 98.1427234 22.9598226 98.5249624 22.4756532 98.932684 22.9853052 99.3467762 23.5522931 99.7672391 24.1766168 100.187702 24.8009404 100.589053 25.4252641 100.971292 26.0495878 101.353531 26.6739115 101.697546 27.2727527 102.003337 27.8461111 102.309128 28.4194696 102.563954 28.8972684 102.767815 29.2795074L102.767815 29.2795074 108.883639 29.2795074C108.144644 27.8524818 107.150822 26.2343367 105.902175 24.4250721 104.653528 22.6158075 103.264726 20.7555777 101.73577 18.8443827L101.73577 18.8443827 108.616072 9.173736 102.729591 9.173736 98.7543058 15.28956 94.7790202 9.173736 88.6249723 9.173736C89.7462067 10.7791398 90.8801824 12.4036555 92.0268994 14.0472833 93.1736164 15.6909109 94.3203334 17.3154267 95.4670504 18.9208305 94.8045028 19.7362737 94.1292139 20.6090527 93.4411837 21.5391676 92.7531535 22.4692826 92.0969765 23.3993975 91.4726528 24.3295124 90.8483291 25.2596273 90.2686 26.1578889 89.7334654 27.0242973 89.1983308 27.8907057 88.7778679 28.6424424 88.4720767 29.2795074L88.4720767 29.2795074 94.2821095 29.2795074zM10.7995259 29.6892907C11.594583 29.6892907 12.3785977 29.6506421 13.1515699 29.5733449 13.9245421 29.4960477 14.6367807 29.4021868 15.2882859 29.2917622 15.939791 29.1813376 16.5139989 29.070913 17.0109096 28.9604884 17.5078203 28.8500638 17.8887852 28.7506816 18.1538042 28.6623419L18.1538042 28.6623419 18.1538042 17.9290708 14.9404484 17.9290708 14.9404484 26.4759349C14.6533444 26.5642745 14.1840399 26.6581354 13.5325347 26.7575176 12.8810296 26.8568997 12.0914937 26.9065908 11.1639271 26.9065908 9.86091678 26.9065908 8.72906463 26.6857416 7.76837061 26.2440432 6.80767659 25.8023448 6.00157701 25.1784458 5.35007187 24.3723462 4.69856673 23.5662467 4.21269849 22.6000314 3.89246715 21.4737005 3.57223581 20.3473696 3.41212014 19.0995716 3.41212014 17.7303065 3.41212014 16.3168717 3.59984196 15.0414675 3.9752856 13.9040941 4.35072924 12.7667208 4.87524609 11.8005055 5.54883615 11.0054484 6.22242621 10.2103913 7.03956825 9.60305598 8.00026227 9.1834425 8.96095629 8.76382902 10.0265537 8.55402228 11.1970544 8.55402228 12.3013004 8.55402228 13.3834615 8.69205303 14.4435377 8.96811453 15.5036138 9.24417603 16.3538833 9.59201352 16.9943459 10.011627L16.9943459 10.011627 18.0212947 7.32830922C17.8887852 7.23996954 17.6403299 7.10746002 17.2759287 6.93078066 16.9115275 6.7541013 16.4422229 6.57742194 15.868015 6.40074258 15.2938071 6.22406322 14.6036533 6.06946878 13.7975538 5.93695926 12.9914542 5.80444974 12.0694088 5.73819498 11.0314175 5.73819498 9.50755806 5.73819498 8.07755949 6.00321402 6.74142183 6.5332521 5.40528417 7.06329018 4.24030464 7.83626238 3.24648324 8.8521687 2.25266184 9.86807502 1.46312595 11.1213942.87787557 12.6121263.29262519 14.1028584 0 15.8089185 0 17.7303065 0 19.6516946.25949781 21.3522334.77849343 22.8319231 1.29748905 24.3116127 2.03181264 25.5594107 2.9814642 26.575317 3.93111576 27.5912233 5.06848914 28.3641955 6.39358434 28.8942336 7.71867954 29.4242717 9.18732672 29.6892907 10.7995259 29.6892907zM30.7090813 29.623036C31.9016669 29.623036 32.9672643 29.5126114 33.9058734 29.2917622 34.8444825 29.070913 35.5015089 28.8611062 35.8769525 28.6623419L35.8769525 28.6623419 35.4462966 26.0784063C35.070853 26.2550857 34.5132087 26.4372862 33.7733639 26.6250081 33.0335191 26.8127299 32.1225161 26.9065908 31.0403551 26.9065908 29.118967 26.9065908 27.7055321 26.4428075 26.8000504 25.5152408 25.8945687 24.5876742 25.3755731 23.2294516 25.2430636 21.4405731L25.2430636 21.4405731 37.0364108 21.4405731C37.0584958 21.2638937 37.0695382 21.0706507 37.0695382 20.8608439L37.0695382 20.8608439 37.0695382 20.3473696C37.0695382 17.3879903 36.4511605 15.1850195 35.2144049 13.7384572 33.9776494 12.291895 32.1998134 11.5686139 29.8808968 11.5686139 28.8870754 11.5686139 27.9153389 11.7563357 26.9656873 12.1317793 26.0160358 12.507223 25.1768088 13.0703884 24.4480064 13.8212757 23.7192041 14.572163 23.1339537 15.5162933 22.6922553 16.6536667 22.2505569 17.7910401 22.0297077 19.1216565 22.0297077 20.645516 22.0297077 21.9485263 22.2008658 23.1466332 22.5431821 24.2398367 22.8854983 25.3330402 23.4100152 26.2771706 24.1167326 27.0722277 24.8234501 27.8672848 25.7234106 28.4911838 26.8166141 28.9439247 27.9098176 29.3966655 29.2073067 29.623036 30.7090813 29.623036zM33.8561824 18.9560196L25.3093183 18.9560196C25.3755731 18.3597268 25.5136038 17.7744764 25.7234106 17.2002685 25.9332173 16.6260605 26.2258425 16.1181074 26.6012861 15.676409 26.9767298 15.2347106 27.4349919 14.8758306 27.9760724 14.5997691 28.517153 14.3237076 29.1410519 14.1856769 29.8477694 14.1856769 31.1066098 14.1856769 32.09491 14.6328965 32.8126699 15.5273358 33.5304298 16.421775 33.8782673 17.5646696 33.8561824 18.9560196L33.8561824 18.9560196zM47.3058986 29.5899086C48.29972 29.5899086 49.1831168 29.4739628 49.956089 29.2420711 50.7290612 29.0101794 51.2701418 28.8169364 51.5793307 28.6623419L51.5793307 28.6623419 50.9830378 26.1115337C50.7621886 26.1998734 50.3701813 26.3489466 49.8070158 26.5587533 49.2438504 26.7685601 48.4984843 26.8734634 47.5709177 26.8734634 47.0408796 26.8734634 46.5770963 26.8072087 46.1795677 26.6746991 45.7820392 26.5421896 45.4507654 26.3158192 45.1857463 25.9955878 44.9207273 25.6753565 44.721963 25.2336581 44.5894535 24.6704927 44.456944 24.1073272 44.3906892 23.3950885 44.3906892 22.5337766L44.3906892 22.5337766 44.3906892 14.5832054 50.9167831 14.5832054 50.9167831 11.9992698 44.3906892 11.9992698 44.3906892 6.66576162 41.3098429 7.1957997 41.3098429 22.566904C41.3098429 23.7153199 41.4037038 24.725705 41.5914256 25.5980593 41.7791474 26.4704136 42.1049 27.2047372 42.5686833 27.8010301 43.0324666 28.3973229 43.6453232 28.8445425 44.4072529 29.142689 45.1691826 29.4408354 46.1353979 29.5899086 47.3058986 29.5899086z"/>
    <path fill="#FCC201" d="M4.75031789,45.9510498 C6.18257069,45.9510498 7.25414669,45.6713946 7.96504589,45.1120842 C8.67594509,44.5527738 9.03139469,43.7660802 9.03139469,42.7520034 C9.03139469,42.2292834 8.96344109,41.7849714 8.82753389,41.4190674 C8.69162669,41.0531634 8.48515229,40.7343042 8.20811069,40.4624898 C7.93106909,40.1906754 7.58346029,39.9528378 7.16528429,39.748977 C6.74710829,39.5451162 6.25575149,39.3386418 5.69121389,39.1295538 C5.41939949,39.0354642 5.17110749,38.9439882 4.94633789,38.8551258 C4.72156829,38.7662634 4.52293469,38.6669466 4.35043709,38.5571754 C4.17793949,38.4474042 4.04464589,38.324565 3.95055629,38.1886578 C3.85646669,38.0527506 3.80942189,37.8854802 3.80942189,37.6868466 C3.80942189,37.3523058 3.93748829,37.1040138 4.19362109,36.9419706 C4.44975389,36.7799274 4.87054349,36.6989058 5.45598989,36.6989058 C5.97870989,36.6989058 6.42563549,36.7590186 6.79676669,36.8792442 C7.16789789,36.9994698 7.50505229,37.1379906 7.80822989,37.2948066 L7.80822989,37.2948066 L8.51390189,35.3659698 C8.16890669,35.1777906 7.72982189,35.005293 7.19664749,34.848477 C6.66347309,34.691661 6.03098189,34.613253 5.29917389,34.613253 C4.68236429,34.613253 4.12828109,34.6890474 3.63692429,34.8406362 C3.14556749,34.992225 2.72739149,35.2091538 2.38239629,35.4914226 C2.03740109,35.7736914 1.77081389,36.116073 1.58263469,36.5185674 C1.39445549,36.9210618 1.30036589,37.3732146 1.30036589,37.8750258 C1.30036589,38.376837 1.38922829,38.8028538 1.56695309,39.1530762 C1.74467789,39.5032986 1.97467469,39.801249 2.25694349,40.0469274 C2.53921229,40.2926058 2.85807149,40.4964666 3.21352109,40.6585098 C3.56897069,40.820553 3.92442029,40.964301 4.27986989,41.0897538 C5.09531309,41.3615682 5.67030509,41.6150874 6.00484589,41.8503114 C6.33938669,42.0855354 6.50665709,42.3808722 6.50665709,42.7363218 C6.50665709,42.9035922 6.48052109,43.055181 6.42824909,43.1910882 C6.37597709,43.3269954 6.28188749,43.4446074 6.14598029,43.5439242 C6.01007309,43.643241 5.82973469,43.721649 5.60496509,43.7791482 C5.38019549,43.8366474 5.09531309,43.865397 4.75031789,43.865397 C4.06032749,43.865397 3.47749469,43.7948298 3.00181949,43.6536954 C2.52614429,43.512561 2.12626349,43.3531314 1.80217709,43.1754066 L1.80217709,43.1754066 L1.11218669,45.119925 C1.25854829,45.2035602 1.43888669,45.2924226 1.65320189,45.3865122 C1.86751709,45.4806018 2.12364989,45.5694642 2.42160029,45.6530994 C2.71955069,45.7367346 3.06193229,45.8073018 3.44874509,45.864801 C3.83555789,45.9223002 4.26941549,45.9510498 4.75031789,45.9510498 Z M18.2654446,45.9510498 C19.0286158,45.9510498 19.7421286,45.8308242 20.405983,45.590373 C21.0698374,45.3499218 21.6422158,44.9918586 22.1231182,44.5161834 C22.6040206,44.0405082 22.9829926,43.4498346 23.2600342,42.7441626 C23.5370758,42.0384906 23.6755966,41.2204338 23.6755966,40.2899922 C23.6755966,39.3595506 23.5344622,38.5414938 23.2521934,37.8358218 C22.9699246,37.1301498 22.5831118,36.5368626 22.091755,36.0559602 C21.6003982,35.5750578 21.0254062,35.214381 20.366779,34.9739298 C19.7081518,34.7334786 19.007707,34.613253 18.2654446,34.613253 C17.544091,34.613253 16.8567142,34.7334786 16.2033142,34.9739298 C15.5499142,35.214381 14.9749222,35.5750578 14.4783382,36.0559602 C13.9817542,36.5368626 13.5871006,37.1301498 13.2943774,37.8358218 C13.0016542,38.5414938 12.8552926,39.3595506 12.8552926,40.2899922 C12.8552926,41.2204338 12.996427,42.0384906 13.2786958,42.7441626 C13.5609646,43.4498346 13.9477774,44.0405082 14.4391342,44.5161834 C14.930491,44.9918586 15.505483,45.3499218 16.1641102,45.590373 C16.8227374,45.8308242 17.5231822,45.9510498 18.2654446,45.9510498 Z M18.2654446,43.8026706 C17.805451,43.8026706 17.3977294,43.7190354 17.0422798,43.551765 C16.6868302,43.3844946 16.3862662,43.146657 16.1405878,42.8382522 C15.8949094,42.5298474 15.7067302,42.1613298 15.5760502,41.7326994 C15.4453702,41.304069 15.3800302,40.8231666 15.3800302,40.2899922 C15.3800302,39.7672722 15.4453702,39.2889834 15.5760502,38.8551258 C15.7067302,38.4212682 15.8949094,38.050137 16.1405878,37.7417322 C16.3862662,37.4333274 16.6868302,37.1928762 17.0422798,37.0203786 C17.3977294,36.847881 17.805451,36.7616322 18.2654446,36.7616322 C18.7149838,36.7616322 19.1200918,36.8452674 19.4807686,37.0125378 C19.8414454,37.1798082 20.144623,37.4176458 20.3903014,37.7260506 C20.6359798,38.0344554 20.824159,38.4055866 20.954839,38.8394442 C21.085519,39.2733018 21.150859,39.7568178 21.150859,40.2899922 C21.150859,40.8231666 21.085519,41.304069 20.954839,41.7326994 C20.824159,42.1613298 20.6359798,42.5298474 20.3903014,42.8382522 C20.144623,43.146657 19.8414454,43.3844946 19.4807686,43.551765 C19.1200918,43.7190354 18.7149838,43.8026706 18.2654446,43.8026706 Z M35.3873393,45.7315074 L35.3873393,43.630173 L30.5730881,43.630173 L30.5730881,34.8641586 L28.1267585,34.8641586 L28.1267585,45.7315074 L35.3873393,45.7315074 Z M43.4609507,45.9510498 C44.2345763,45.9510498 44.9036579,45.8465058 45.4681955,45.6374178 C46.0327331,45.4283298 46.4979539,45.132993 46.8638579,44.7514074 C47.2297619,44.3698218 47.5015763,43.9124418 47.6793011,43.3792674 C47.8570259,42.846093 47.9458883,42.2606466 47.9458883,41.6229282 L47.9458883,41.6229282 L47.9458883,34.8641586 L45.4995587,34.8641586 L45.4995587,41.4190674 C45.4995587,42.297237 45.3139931,42.9192738 44.9428619,43.2851778 C44.5717307,43.6510818 44.0882147,43.8340338 43.4923139,43.8340338 C43.1995907,43.8340338 42.9303899,43.7922162 42.6847115,43.708581 C42.4390331,43.6249458 42.2299451,43.486425 42.0574475,43.2930186 C41.8849499,43.0996122 41.7490427,42.8487066 41.6497259,42.5403018 C41.5504091,42.231897 41.5007507,41.8581522 41.5007507,41.4190674 L41.5007507,41.4190674 L41.5007507,34.8641586 L39.0544211,34.8641586 L39.0544211,41.6229282 C39.0544211,42.2606466 39.1406699,42.8434794 39.3131675,43.3714266 C39.4856651,43.8993738 39.7522523,44.3541402 40.1129291,44.7357258 C40.4736059,45.1173114 40.9309859,45.4152618 41.4850691,45.629577 C42.0391523,45.8438922 42.6977795,45.9510498 43.4609507,45.9510498 Z M57.4935702,45.7315074 L57.4935702,36.9498114 L60.7710246,36.9498114 L60.7710246,34.8641586 L51.7697862,34.8641586 L51.7697862,36.9498114 L55.0472406,36.9498114 L55.0472406,45.7315074 L57.4935702,45.7315074 Z M67.1980681,45.7315074 L67.1980681,34.8641586 L64.7517385,34.8641586 L64.7517385,45.7315074 L67.1980681,45.7315074 Z M77.059382,45.9510498 C77.8225532,45.9510498 78.536066,45.8308242 79.1999204,45.590373 C79.8637748,45.3499218 80.4361532,44.9918586 80.9170556,44.5161834 C81.397958,44.0405082 81.77693,43.4498346 82.0539716,42.7441626 C82.3310132,42.0384906 82.469534,41.2204338 82.469534,40.2899922 C82.469534,39.3595506 82.3283996,38.5414938 82.0461308,37.8358218 C81.763862,37.1301498 81.3770492,36.5368626 80.8856924,36.0559602 C80.3943356,35.5750578 79.8193436,35.214381 79.1607164,34.9739298 C78.5020892,34.7334786 77.8016444,34.613253 77.059382,34.613253 C76.3380284,34.613253 75.6506516,34.7334786 74.9972516,34.9739298 C74.3438516,35.214381 73.7688596,35.5750578 73.2722756,36.0559602 C72.7756916,36.5368626 72.381038,37.1301498 72.0883148,37.8358218 C71.7955916,38.5414938 71.64923,39.3595506 71.64923,40.2899922 C71.64923,41.2204338 71.7903644,42.0384906 72.0726332,42.7441626 C72.354902,43.4498346 72.7417148,44.0405082 73.2330716,44.5161834 C73.7244284,44.9918586 74.2994204,45.3499218 74.9580476,45.590373 C75.6166748,45.8308242 76.3171196,45.9510498 77.059382,45.9510498 Z M77.059382,43.8026706 C76.5993884,43.8026706 76.1916668,43.7190354 75.8362172,43.551765 C75.4807676,43.3844946 75.1802036,43.146657 74.9345252,42.8382522 C74.6888468,42.5298474 74.5006676,42.1613298 74.3699876,41.7326994 C74.2393076,41.304069 74.1739676,40.8231666 74.1739676,40.2899922 C74.1739676,39.7672722 74.2393076,39.2889834 74.3699876,38.8551258 C74.5006676,38.4212682 74.6888468,38.050137 74.9345252,37.7417322 C75.1802036,37.4333274 75.4807676,37.1928762 75.8362172,37.0203786 C76.1916668,36.847881 76.5993884,36.7616322 77.059382,36.7616322 C77.5089212,36.7616322 77.9140292,36.8452674 78.274706,37.0125378 C78.6353828,37.1798082 78.9385604,37.4176458 79.1842388,37.7260506 C79.4299172,38.0344554 79.6180964,38.4055866 79.7487764,38.8394442 C79.8794564,39.2733018 79.9447964,39.7568178 79.9447964,40.2899922 C79.9447964,40.8231666 79.8794564,41.304069 79.7487764,41.7326994 C79.6180964,42.1613298 79.4299172,42.5298474 79.1842388,42.8382522 C78.9385604,43.146657 78.6353828,43.3844946 78.274706,43.551765 C77.9140292,43.7190354 77.5089212,43.8026706 77.059382,43.8026706 Z M89.3356623,45.7315074 L89.3356623,38.612061 C90.2556495,39.6888642 91.1233647,40.833621 91.9388079,42.0463314 C92.7542511,43.2590418 93.5121951,44.4874338 94.2126399,45.7315074 L94.2126399,45.7315074 L96.2669295,45.7315074 L96.2669295,34.8641586 L93.8362815,34.8641586 L93.8362815,41.277933 C93.4599231,40.7133954 93.0574287,40.1253354 92.6287983,39.513753 C92.2001679,38.9021706 91.7689239,38.311497 91.3350663,37.7417322 C90.9012087,37.1719674 90.4751919,36.6361794 90.0570159,36.1343682 C89.6388399,35.632557 89.2572543,35.2091538 88.9122591,34.8641586 L88.9122591,34.8641586 L86.9206959,34.8641586 L86.9206959,45.7315074 L89.3356623,45.7315074 Z M104.152362,45.9510498 C105.584615,45.9510498 106.656191,45.6713946 107.36709,45.1120842 C108.077989,44.5527738 108.433439,43.7660802 108.433439,42.7520034 C108.433439,42.2292834 108.365485,41.7849714 108.229578,41.4190674 C108.093671,41.0531634 107.887196,40.7343042 107.610155,40.4624898 C107.333113,40.1906754 106.985504,39.9528378 106.567328,39.748977 C106.149152,39.5451162 105.657795,39.3386418 105.093258,39.1295538 C104.821443,39.0354642 104.573151,38.9439882 104.348382,38.8551258 C104.123612,38.7662634 103.924979,38.6669466 103.752481,38.5571754 C103.579983,38.4474042 103.44669,38.324565 103.3526,38.1886578 C103.258511,38.0527506 103.211466,37.8854802 103.211466,37.6868466 C103.211466,37.3523058 103.339532,37.1040138 103.595665,36.9419706 C103.851798,36.7799274 104.272587,36.6989058 104.858034,36.6989058 C105.380754,36.6989058 105.827679,36.7590186 106.198811,36.8792442 C106.569942,36.9994698 106.907096,37.1379906 107.210274,37.2948066 L107.210274,37.2948066 L107.915946,35.3659698 C107.570951,35.1777906 107.131866,35.005293 106.598691,34.848477 C106.065517,34.691661 105.433026,34.613253 104.701218,34.613253 C104.084408,34.613253 103.530325,34.6890474 103.038968,34.8406362 C102.547611,34.992225 102.129435,35.2091538 101.78444,35.4914226 C101.439445,35.7736914 101.172858,36.116073 100.984679,36.5185674 C100.796499,36.9210618 100.70241,37.3732146 100.70241,37.8750258 C100.70241,38.376837 100.791272,38.8028538 100.968997,39.1530762 C101.146722,39.5032986 101.376719,39.801249 101.658987,40.0469274 C101.941256,40.2926058 102.260115,40.4964666 102.615565,40.6585098 C102.971015,40.820553 103.326464,40.964301 103.681914,41.0897538 C104.497357,41.3615682 105.072349,41.6150874 105.40689,41.8503114 C105.741431,42.0855354 105.908701,42.3808722 105.908701,42.7363218 C105.908701,42.9035922 105.882565,43.055181 105.830293,43.1910882 C105.778021,43.3269954 105.683931,43.4446074 105.548024,43.5439242 C105.412117,43.643241 105.231779,43.721649 105.007009,43.7791482 C104.782239,43.8366474 104.497357,43.865397 104.152362,43.865397 C103.462371,43.865397 102.879539,43.7948298 102.403863,43.6536954 C101.928188,43.512561 101.528307,43.3531314 101.204221,43.1754066 L101.204221,43.1754066 L100.514231,45.119925 C100.660592,45.2035602 100.840931,45.2924226 101.055246,45.3865122 C101.269561,45.4806018 101.525694,45.5694642 101.823644,45.6530994 C102.121595,45.7367346 102.463976,45.8073018 102.850789,45.864801 C103.237602,45.9223002 103.671459,45.9510498 104.152362,45.9510498 Z"/>
  </g>
</svg>
