<svg xmlns="http://www.w3.org/2000/svg" width="115" height="137" viewBox="0 0 115 137">
  <g fill="none" fill-rule="evenodd" transform="translate(.66)">
    <g fill-rule="nonzero">
      <path fill="#FFC600" d="M59.5908281,110 L2.59082813,110 C1.03646484,110 0,108.95228 0,107.380813 L0,102.142664 C0,100.571197 1.03646484,99.5237023 2.59082812,99.5237023 L59.5908281,99.5237023 C61.1454141,99.5237023 62.1816563,100.571422 62.1816563,102.142664 L62.1816563,107.380813 C62.1816563,108.95228 61.1454141,110 59.5908281,110 Z"/>
      <path fill="#FFCB5B" d="M49.227293,102.142889 L0,102.142889 L0,102.142889 C0,100.571422 1.03646484,99.5239274 2.59082812,99.5239274 L49.227293,99.5239274 L49.227293,102.142889 Z"/>
      <g transform="translate(0 102.143)">
        <path fill="#D8A800" d="M49.227293,0.00022507407 L49.227293,2.61918695 C49.227293,4.19065411 48.1908281,5.23814883 46.6364648,5.23814883 L0,5.23814883 C0,6.80961598 1.03646484,7.8571107 2.59082812,7.8571107 L46.6362422,7.8571107 L59.5908281,7.8571107 C61.1454141,7.8571107 62.1816563,6.80939091 62.1816563,5.23814883 L62.1816563,0 L49.227293,0 L49.227293,0.00022507407 Z"/>
        <path fill="#D8A800" d="M7.77270703 5.23814883L7.77270703 1.30948094C7.77270703.52374736 7.25458594 0 6.47729297 0 5.7 0 5.18187891.52374736 5.18187891 1.30948094L5.18187891 5.23814883M15.5454141 5.23814883L15.5454141 1.30948094C15.5454141.52374736 15.027293 0 14.25 0 13.472707 0 12.9545859.52374736 12.9545859 1.30948094L12.9545859 5.23814883"/>
        <path fill="#F19920" d="M23.3181211 5.23814883L23.3181211 1.30948094C23.3181211.52374736 22.8 0 22.022707 0 21.2454141 0 20.727293.52374736 20.727293 1.30948094L20.727293 5.23814883M31.0908281 5.23814883L31.0908281 1.30948094C31.0908281.52374736 30.572707 0 29.7954141 0 29.0181211 0 28.5.52374736 28.5 1.30948094L28.5 5.23814883M38.8635352 5.23814883L38.8635352 1.30948094C38.8635352.52374736 38.3454141 0 37.5681211 0 36.7908281 0 36.272707.52374736 36.272707 1.30948094L36.272707 5.23814883M46.6364648 5.23814883L46.6364648 1.30948094C46.6364648.52374736 46.1183437 0 45.3410508 0 44.5637578 0 44.0456367.52374736 44.0456367 1.30948094L44.0456367 5.23814883"/>
      </g>
      <path fill="#F6B545" d="M64.772707,99.5237023 L7.77270703,99.5237023 C6.21812109,99.5237023 5.18187891,98.4759826 5.18187891,96.9047405 L5.18187891,91.6665916 C5.18187891,90.0951245 6.21834375,89.0476298 7.77270703,89.0476298 L64.772707,89.0476298 C66.327293,89.0476298 67.3635352,90.0953496 67.3635352,91.6665916 L67.3635352,96.9047405 C67.3635352,98.4762076 66.327293,99.5237023 64.772707,99.5237023 Z"/>
      <path fill="#FFCB5B" d="M54.4091719,91.6665916 L5.18187891,91.6665916 L5.18187891,91.6665916 C5.18187891,90.0951245 6.21834375,89.0476298 7.77270703,89.0476298 L54.4091719,89.0476298 L54.4091719,91.6665916 Z"/>
      <g transform="translate(5.182 91.666)">
        <path fill="#D8A800" d="M49.227293,0.00022507407 L49.227293,2.61918695 C49.227293,4.19065411 48.1908281,5.23814883 46.6364648,5.23814883 L0,5.23814883 C0,6.80961598 1.03646484,7.8571107 2.59082812,7.8571107 L46.6362422,7.8571107 L59.5908281,7.8571107 C61.1454141,7.8571107 62.1816563,6.80939091 62.1816563,5.23814883 L62.1816563,0 L49.227293,0 L49.227293,0.00022507407 Z"/>
        <path fill="#D8A800" d="M7.77270703 5.2383739L7.77270703 1.30970601C7.77270703.523972435 7.25458594.00022507407 6.47729297.00022507407 5.7.00022507407 5.18187891.523972435 5.18187891 1.30970601L5.18187891 5.2383739M15.5454141 5.2383739L15.5454141 1.30970601C15.5454141.523972435 15.027293.00022507407 14.25.00022507407 13.472707.00022507407 12.9545859.523972435 12.9545859 1.30970601L12.9545859 5.2383739"/>
        <path fill="#F19920" d="M23.3181211 5.2383739L23.3181211 1.30970601C23.3181211.523972435 22.8.00022507407 22.022707.00022507407 21.2454141.00022507407 20.727293.523972435 20.727293 1.30970601L20.727293 5.2383739M31.0908281 5.2383739L31.0908281 1.30970601C31.0908281.523972435 30.572707.00022507407 29.7954141.00022507407 29.0181211.00022507407 28.5.523972435 28.5 1.30970601L28.5 5.2383739M38.8635352 5.2383739L38.8635352 1.30970601C38.8635352.523972435 38.3454141.00022507407 37.5681211.00022507407 36.7908281.00022507407 36.272707.523972435 36.272707 1.30970601L36.272707 5.2383739M46.6362422 5.2383739L46.6362422 1.30970601C46.6362422.523972435 46.1181211.00022507407 45.3408281.00022507407 44.5635352.00022507407 44.0454141.523972435 44.0454141 1.30970601L44.0454141 5.2383739"/>
      </g>
      <path fill="#FFC600" d="M69.9545859,78.5713321 L12.9545859,78.5713321 C11.4,78.5713321 10.3637578,77.5236123 10.3637578,75.9523702 L10.3637578,70.7142214 C10.3637578,69.1427543 11.4002227,68.0952595 12.9545859,68.0952595 L69.9545859,68.0952595 C71.5091719,68.0952595 72.5454141,69.1429793 72.5454141,70.7142214 L72.5454141,75.9523702 C72.5454141,77.5238374 71.5091719,78.5713321 69.9545859,78.5713321 Z"/>
      <path fill="#FFCB5B" d="M59.5908281,70.7142214 L10.3635352,70.7142214 L10.3635352,70.7142214 C10.3635352,69.1427543 11.4,68.0952595 12.9543633,68.0952595 L59.5908281,68.0952595 L59.5908281,70.7142214 Z"/>
      <g transform="translate(10.364 70.714)">
        <path fill="#D8A800" d="M49.227293,0.00022507407 L49.227293,2.61918695 C49.227293,4.19065411 48.1908281,5.23814883 46.6364648,5.23814883 L0,5.23814883 C0,6.80961598 1.03646484,7.8571107 2.59082812,7.8571107 L46.6364648,7.8571107 L59.5910508,7.8571107 C61.1456367,7.8571107 62.1818789,6.80939091 62.1818789,5.23814883 L62.1818789,0 L49.227293,0 L49.227293,0.00022507407 Z"/>
        <path fill="#D8A800" d="M7.77292969 5.2383739L7.77292969 1.30970601C7.77292969.523972435 7.25480859.00022507407 6.47751562.00022507407 5.70022266.00022507407 5.18210156.523972435 5.18210156 1.30970601L5.18210156 5.2383739M15.5456367 5.2383739L15.5456367 1.30970601C15.5456367.523972435 15.0275156.00022507407 14.2502227.00022507407 13.4729297.00022507407 12.9548086.523972435 12.9548086 1.30970601L12.9548086 5.2383739"/>
        <path fill="#F19920" d="M23.3183437 5.2383739L23.3183437 1.30970601C23.3183437.523972435 22.8002227.00022507407 22.0229297.00022507407 21.2456367.00022507407 20.7275156.523972435 20.7275156 1.30970601L20.7275156 5.2383739M31.0910508 5.2383739L31.0910508 1.30970601C31.0910508.523972435 30.5729297.00022507407 29.7956367.00022507407 29.0183437.00022507407 28.5002227.523972435 28.5002227 1.30970601L28.5002227 5.2383739M38.8637578 5.2383739L38.8637578 1.30970601C38.8637578.523972435 38.3456367.00022507407 37.5683437.00022507407 36.7910508.00022507407 36.2729297.523972435 36.2729297 1.30970601L36.2729297 5.2383739M46.6364648 5.2383739L46.6364648 1.30970601C46.6364648.523972435 46.1183437.00022507407 45.3410508.00022507407 44.5637578.00022507407 44.0456367.523972435 44.0456367 1.30970601L44.0456367 5.2383739"/>
      </g>
      <path fill="#FFC600" d="M64.772707,68.0952595 L7.77270703,68.0952595 C6.21812109,68.0952595 5.18187891,67.0475397 5.18187891,65.4762977 L5.18187891,60.2381488 C5.18187891,58.6666817 6.21834375,57.619187 7.77270703,57.619187 L64.772707,57.619187 C66.327293,57.619187 67.3635352,58.6669067 67.3635352,60.2381488 L67.3635352,65.4762977 C67.3635352,67.0475397 66.327293,68.0952595 64.772707,68.0952595 Z"/>
      <path fill="#FFCB5B" d="M54.4091719,60.2381488 L5.18187891,60.2381488 L5.18187891,60.2381488 C5.18187891,58.6666817 6.21834375,57.619187 7.77270703,57.619187 L54.4091719,57.619187 L54.4091719,60.2381488 Z"/>
      <g transform="translate(5.182 60.238)">
        <path fill="#D8A800" d="M49.227293,0.00022507407 L49.227293,2.61918695 C49.227293,4.19065411 48.1908281,5.23814883 46.6364648,5.23814883 L0,5.23814883 C0,6.80961598 1.03646484,7.8571107 2.59082812,7.8571107 L46.6362422,7.8571107 L59.5908281,7.8571107 C61.1454141,7.8571107 62.1816563,6.80939091 62.1816563,5.23814883 L62.1816563,0 L49.227293,0 L49.227293,0.00022507407 Z"/>
        <path fill="#D8A800" d="M7.77270703 5.23814883L7.77270703 1.30948094C7.77270703.52374736 7.25458594 0 6.47729297 0 5.7 0 5.18187891.52374736 5.18187891 1.30948094L5.18187891 5.23814883M15.5454141 5.23814883L15.5454141 1.30948094C15.5454141.52374736 15.027293 0 14.25 0 13.472707 0 12.9545859.52374736 12.9545859 1.30948094L12.9545859 5.23814883M23.3181211 5.23814883L23.3181211 1.30948094C23.3181211.52374736 22.8 0 22.022707 0 21.2454141 0 20.727293.52374736 20.727293 1.30948094L20.727293 5.23814883"/>
        <path fill="#F19920" d="M31.0908281 5.23814883L31.0908281 1.30948094C31.0908281.52374736 30.572707 0 29.7954141 0 29.0181211 0 28.5.52374736 28.5 1.30948094L28.5 5.23814883M38.8635352 5.23814883L38.8635352 1.30948094C38.8635352.52374736 38.3454141 0 37.5681211 0 36.7908281 0 36.272707.52374736 36.272707 1.30948094L36.272707 5.23814883M46.6362422 5.23814883L46.6362422 1.30948094C46.6362422.52374736 46.1181211 0 45.3408281 0 44.5635352 0 44.0454141.52374736 44.0454141 1.30948094L44.0454141 5.23814883"/>
      </g>
      <path fill="#FFC600" d="M59.5908281,89.0476298 L2.59082813,89.0476298 C1.03646484,89.0476298 0,87.99991 0,86.4284428 L0,81.190294 C0,79.6188268 1.03646484,78.5713321 2.59082812,78.5713321 L59.5908281,78.5713321 C61.1454141,78.5713321 62.1816563,79.6190519 62.1816563,81.190294 L62.1816563,86.4284428 C62.1816563,87.99991 61.1454141,89.0476298 59.5908281,89.0476298 Z"/>
      <path fill="#FFCB5B" d="M49.227293,81.1905191 L0,81.1905191 L0,81.1905191 C0,79.6190519 1.03646484,78.5715572 2.59082812,78.5715572 L49.227293,78.5715572 L49.227293,81.1905191 Z"/>
      <g transform="translate(0 81.19)">
        <path fill="#D8A800" d="M49.227293,0.00022507407 L49.227293,2.61918695 C49.227293,4.19065411 48.1908281,5.23814883 46.6364648,5.23814883 L0,5.23814883 C0,6.80961598 1.03646484,7.8571107 2.59082812,7.8571107 L46.6362422,7.8571107 L59.5908281,7.8571107 C61.1454141,7.8571107 62.1816563,6.80939091 62.1816563,5.23814883 L62.1816563,0 L49.227293,0 L49.227293,0.00022507407 Z"/>
        <path fill="#D8A800" d="M7.77270703 5.23814883L7.77270703 1.30948094C7.77270703.52374736 7.25458594 1.42108547e-14 6.47729297 1.42108547e-14 5.7 1.42108547e-14 5.18187891.52374736 5.18187891 1.30948094L5.18187891 5.23814883M15.5454141 5.23814883L15.5454141 1.30948094C15.5454141.52374736 15.027293 1.42108547e-14 14.25 1.42108547e-14 13.472707 1.42108547e-14 12.9545859.52374736 12.9545859 1.30948094L12.9545859 5.23814883M23.3181211 5.23814883L23.3181211 1.30948094C23.3181211.52374736 22.8 1.42108547e-14 22.022707 1.42108547e-14 21.2454141 1.42108547e-14 20.727293.52374736 20.727293 1.30948094L20.727293 5.23814883"/>
        <path fill="#F19920" d="M31.0908281 5.23814883L31.0908281 1.30948094C31.0908281.52374736 30.572707 1.42108547e-14 29.7954141 1.42108547e-14 29.0181211 1.42108547e-14 28.5.52374736 28.5 1.30948094L28.5 5.23814883M38.8635352 5.23814883L38.8635352 1.30948094C38.8635352.52374736 38.3454141 1.42108547e-14 37.5681211 1.42108547e-14 36.7908281 1.42108547e-14 36.272707.52374736 36.272707 1.30948094L36.272707 5.23814883M46.6364648 5.23814883L46.6364648 1.30948094C46.6364648.52374736 46.1183437 1.42108547e-14 45.3410508 1.42108547e-14 44.5637578 1.42108547e-14 44.0456367.52374736 44.0456367 1.30948094L44.0456367 5.23814883"/>
      </g>
      <path fill="#E6E6E6" d="M108.818121,92.9760726 C105.45,90.6188718 103.636242,86.690429 103.636242,82.5 C103.636242,66.5237924 97.4181211,51.3333183 86.2770703,40.0715122 L75.1362422,28.809706 L75.1362422,20.9525953 L84.2043633,9.42880293 C84.9818789,8.38108314 85.5,7.0716022 85.5,5.76189619 C85.5,2.61896188 82.9091719,0 79.8,0 L69.9545859,0 L67.3637578,5.23814883 L62.1818789,0 L49.7454141,0 C46.6362422,0 44.0454141,2.61896188 44.0454141,5.76189619 C44.0454141,7.07137713 44.5635352,8.38085806 45.3408281,9.42857786 L54.4089492,20.9523702 L54.4089492,28.8094809 L43.2681211,40.0712871 C32.127293,51.3330933 25.9089492,66.5235673 25.9089492,82.4997749 L25.9089492,82.4997749 C25.9089492,86.690204 24.0954141,90.6188718 20.7270703,92.9758475 C17.3587266,95.3328232 15.5451914,99.2614911 15.5451914,103.45192 L15.5451914,103.45192 C15.5451914,107.118602 18.3951914,109.99955 22.0224844,109.99955 L107.522484,109.99955 C111.149777,109.99955 113.999777,107.118602 113.999777,103.45192 L113.999777,103.45192 C113.999777,99.2619412 112.186465,95.3332733 108.818121,92.9760726 Z"/>
      <path fill="#D0D0D0" d="M108.818121,92.9760726 C105.45,90.3571107 103.636242,86.4284428 103.636242,82.2380138 C103.895414,65.7380588 96.3816562,50.2855985 84.9816562,38.500045 L75.1362422,28.8094809 L75.1362422,20.9523702 L84.2043633,9.42857786 C85.7589492,7.59534956 86.0178984,4.97616261 84.7224844,2.61896188 C83.6860195,0.785733578 81.6133125,0 79.5406055,0 C77.7270703,0 76.6906055,2.09521452 77.2087266,3.66668167 C77.4678984,4.19042903 77.7268477,4.97616261 77.7268477,5.76189619 C77.7268477,7.07137713 77.2087266,8.38085806 76.4314336,9.42857786 L67.3633125,20.9523702 L67.3633125,28.8094809 L54.4087266,28.8094809 L51.8178984,31.4284428 L69.9543633,31.4284428 L79.5408281,41.1190069 C90.1635352,51.8570657 94.3089492,66.5237924 93.272707,81.4522802 C93.0135352,85.9046955 94.827293,90.0951245 98.1954141,92.7140864 C98.4545859,92.9760726 98.7135352,93.2378337 98.972707,93.2378337 C102.859172,97.4282628 99.4908281,104.49964 93.5318789,104.49964 L15.8045859,104.49964 C16.322707,107.380588 18.9137578,109.737789 22.022707,109.737789 L97.1591719,109.737789 L103.636465,109.737789 L107.52293,109.737789 C111.15,109.737789 114,106.857066 114,103.190384 L114,102.666637 C114,98.7379688 111.927293,95.3332733 108.818121,92.9760726 Z"/>
      <path fill="#FFC600" d="M76.4318789,28.8094809 L53.1135352,28.8094809 C51.0408281,28.8094809 49.2270703,26.9762526 49.2270703,24.880813 L49.2270703,24.880813 C49.2270703,22.7855985 51.0406055,20.9521452 53.1135352,20.9521452 L76.4316563,20.9521452 C78.5043633,20.9521452 80.3181211,22.7853735 80.3181211,24.880813 L80.3181211,24.880813 C80.3181211,26.9762526 78.5045859,28.8094809 76.4318789,28.8094809 Z"/>
      <path fill="#FFDC62" d="M53.1135352,20.9523702 L66.0681211,20.9523702 C66.8454141,20.9523702 67.3635352,21.4761176 67.3635352,22.2618512 L67.3635352,22.2618512 C67.3635352,23.0475848 66.8454141,23.5713321 66.0681211,23.5713321 L53.1135352,23.5713321 C52.3362422,23.5713321 51.8181211,23.0475848 51.8181211,22.2618512 L51.8181211,22.2618512 C51.8181211,21.4763427 52.3364648,20.9523702 53.1135352,20.9523702 Z"/>
      <path fill="#DCAB03" d="M76.4318789,20.9523702 L75.1364648,20.9523702 L75.1364648,23.5713321 C75.1364648,25.1427993 74.1,26.190294 72.5456367,26.190294 L49.4864648,26.190294 C50.0045859,27.7617611 51.5591719,28.8092559 53.1137578,28.8092559 L76.4318789,28.8092559 C78.5045859,28.8092559 80.3183437,26.9760276 80.3183437,24.880588 C80.3183437,22.7851484 78.5045859,20.9523702 76.4318789,20.9523702 Z"/>
      <path fill="#BA9103" d="M68.6591719,26.1905191 L76.4318789,26.1905191 C77.2091719,26.1905191 77.727293,26.7142664 77.727293,27.5 L77.727293,27.5 C77.727293,28.2857336 77.2091719,28.8094809 76.4318789,28.8094809 L68.6591719,28.8094809 C67.8818789,28.8094809 67.3637577,28.2857336 67.3637577,27.5 L67.3637577,27.5 C67.3635352,26.7142664 67.8818789,26.1905191 68.6591719,26.1905191 Z"/>
      <ellipse cx="64.773" cy="68.095" fill="#E4B101" rx="20.727" ry="20.952"/>
      <path fill="#C8C8C8" d="M80.577293,54.7380138 C83.6864648,58.4046955 85.5,62.8571107 85.5,68.0952595 C85.5,79.6190519 76.172707,89.0476298 64.772707,89.0476298 C59.5908281,89.0476298 55.1862422,87.2144015 51.5591719,84.0714672 C55.4456367,88.7856435 61.1456367,91.6665916 67.3637578,91.6665916 C78.7637578,91.6665916 88.0910508,82.2380138 88.0910508,70.7142214 C88.0910508,64.1665916 85.2408281,58.4046955 80.577293,54.7380138 Z"/>
      <ellipse cx="64.773" cy="68.095" fill="#FFC600" rx="18.136" ry="18.333"/>
      <path fill="#CDA105" d="M82.9091719,68.0952595 C82.9091719,78.309571 74.877293,86.4286679 64.772707,86.4286679 L64.772707,89.0476298 C76.172707,89.0476298 85.5,79.6190519 85.5,68.0952595 L82.9091719,68.0952595 Z"/>
      <path fill="#FFDF6F" d="M64.772707,49.7618512 L64.772707,47.1428893 C53.372707,47.1428893 44.0454141,56.5714672 44.0454141,68.0952595 L46.6362422,68.0952595 C46.6364648,57.8809481 54.6681211,49.7618512 64.772707,49.7618512 Z"/>
      <path fill="#AA870C" d="M67.6249543,66.4165175 L63.374863,66.4165175 C62.0998174,66.4165175 61.2499087,65.5830886 61.2499087,64.333214 C61.2499087,63.0831603 62.1,62.2499105 63.374863,62.2499105 L69.7499087,62.2499105 C71.0249543,62.2499105 71.874863,61.4164817 71.874863,60.166607 C71.874863,58.9165533 71.0247717,58.0833035 69.7499087,58.0833035 L67.6249543,58.0833035 L67.6249543,58.0833035 C67.6249543,56.8332498 66.774863,56 65.5,56 C64.2249543,56 63.3750457,56.8334288 63.3750457,58.0833035 L63.3750457,58.0833035 C59.7624772,58.0833035 57,60.7916338 57,64.333393 C57,67.8751522 59.7624772,70.5834825 63.3750457,70.5834825 L67.625137,70.5834825 C68.9001826,70.5834825 69.7500913,71.4169114 69.7500913,72.666786 C69.7500913,73.9166607 68.9,74.7500895 67.625137,74.7500895 L61.2500913,74.7500895 C59.9750457,74.7500895 59.125137,75.5835183 59.125137,76.833393 C59.125137,78.0834467 59.9752283,78.9166965 61.2500913,78.9166965 L63.3750457,78.9166965 L63.3750457,78.9166965 C63.3750457,80.1667502 64.225137,81 65.5,81 C66.7750457,81 67.6249543,80.1665712 67.6249543,78.9166965 L67.6249543,78.9166965 C71.2375228,78.9166965 74,76.2083662 74,72.666607 C74,69.1248478 71.2375228,66.4165175 67.6249543,66.4165175 Z"/>
    </g>
    <path fill="#121212" d="M57.0001505,137 C26.0723139,137 1,134.313568 1,130.999622 C1,127.685675 26.0723139,125 57.0001505,125 C87.9279871,125 113,127.685675 113,130.999622 C113,134.313568 87.9279871,137 57.0001505,137"/>
  </g>
</svg>
