<svg xmlns="http://www.w3.org/2000/svg" width="113" height="154" viewBox="0 0 113 154">
  <g fill="none" fill-rule="evenodd" transform="translate(.33)">
    <polyline fill="#E53737" points="40.669 118.964 33.058 103.206 16.008 107.15 37.617 62.04 62.278 73.853 40.669 118.964"/>
    <path fill="#CF3235" d="M40.6693625,118.964025 L40.6693625,118.964025 L39.7360625,117.031725 L56.5671875,81.895275 C57.0324875,82.28115 57.5054375,82.603575 57.9921125,82.800675 L58.6275125,81.4743 C58.6277375,81.4743 58.6275125,81.4743 58.6277375,81.4743 L40.6693625,118.964025"/>
    <polyline fill="#E53737" points="77.331 118.964 84.942 103.206 101.992 107.15 80.383 62.04 55.722 73.853 77.331 118.964"/>
    <path fill="#CF3235" d="M77.3306375,118.964025 L59.3722625,81.4743 L59.3724875,81.4743 L60.0078875,82.800675 C60.4947875,82.603575 60.9675125,82.28115 61.4328125,81.895275 L78.2639375,117.031725 L77.3306375,118.964025"/>
    <polyline fill="#D1D3D4" points="32.847 71.998 32.847 71.998 33.553 70.524 32.847 71.998"/>
    <path fill="#BC2E30" d="M56.5671875,81.895275 C54.9807125,80.579475 53.4849125,78.52815 51.8464625,78.203475 C51.6612875,78.1668 51.4704875,78.15015 51.2742875,78.15015 C50.2170125,78.15015 49.0143875,78.6375 47.8167125,79.125075 C46.6188125,79.612425 45.4254125,80.099775 44.3868125,80.099775 C44.0389625,80.099775 43.7084375,80.045325 43.4010875,79.91775 C42.2749625,79.447725 41.6139125,78.100425 41.0032625,76.670325 C40.3395125,75.11445 39.7338125,73.460475 38.6430125,72.731475 C37.2680375,71.811675 34.8551375,72.1458 32.8467875,71.997525 L33.5526125,70.524225 C35.3962625,70.577775 37.4262125,70.40925 38.6430125,71.2233 C39.7338125,71.9523 40.3395125,73.606275 41.0032625,75.16215 C41.6139125,76.59225 42.2749625,77.93955 43.4010875,78.409575 C43.7084375,78.53715 44.0389625,78.591825 44.3868125,78.591825 C45.4254125,78.591825 46.6188125,78.10425 47.8167125,77.6169 C49.0146125,77.12955 50.2170125,76.641975 51.2742875,76.641975 C51.4704875,76.641975 51.6612875,76.658625 51.8464625,76.6953 C53.6653625,77.054625 55.3083125,79.543575 57.0954875,80.792325 L56.5671875,81.895275"/>
    <path fill="#AA292C" d="M57.9921125,82.800675 C57.5054375,82.603575 57.0324875,82.28115 56.5671875,81.895275 L57.0954875,80.792325 C57.5927375,81.139725 58.1012375,81.391275 58.6275125,81.4743 L57.9921125,82.800675"/>
    <polyline fill="#D1D3D4" points="85.153 71.998 84.447 70.524 84.448 70.524 85.153 71.998"/>
    <path fill="#BC2E30" d="M61.4328125,81.895275 L60.9045125,80.792325 C62.6914625,79.543575 64.3348625,77.054625 66.1535375,76.6953 C66.3387125,76.658625 66.5297375,76.641975 66.7257125,76.641975 C67.7829875,76.641975 68.9853875,77.129325 70.1832875,77.6169 C71.3811875,78.10425 72.5745875,78.5916 73.6134125,78.591825 C73.9612625,78.591825 74.2915625,78.53715 74.5991375,78.409575 C76.9542125,77.431725 77.2633625,72.623475 79.3572125,71.2233 C80.5728875,70.409025 82.6030625,70.577775 84.4473875,70.524 L85.1532125,71.997525 C83.1450875,72.1458 80.7319625,71.811675 79.3572125,72.731475 C77.2633625,74.131425 76.9542125,78.9399 74.5991375,79.91775 C74.2915625,80.045325 73.9612625,80.1 73.6134125,80.099775 C72.5745875,80.099775 71.3811875,79.612425 70.1835125,79.125075 C68.9853875,78.6375 67.7829875,78.15015 66.7257125,78.15015 C66.5297375,78.15015 66.3387125,78.1668 66.1535375,78.203475 C64.5150875,78.52815 63.0192875,80.579475 61.4328125,81.895275"/>
    <path fill="#AA292C" d="M60.0078875,82.800675 L59.3724875,81.4743 C59.8989875,81.391275 60.4072625,81.13995 60.9045125,80.792325 L61.4328125,81.895275 C60.9675125,82.28115 60.4947875,82.603575 60.0078875,82.800675"/>
    <path fill="#F9D511" d="M91.8458375,40.750875 C91.8458375,58.89105 77.1402875,73.5966 59.0001125,73.5966 C40.8599375,73.5966 26.1543875,58.89105 26.1543875,40.750875 C26.1543875,22.6107 40.8599375,7.90515 59.0001125,7.90515 C77.1402875,7.90515 91.8458375,22.6107 91.8458375,40.750875"/>
    <path fill="#FFC600" d="M59.0001125,72.769275 C54.4152875,72.769275 50.0543375,71.80155 46.1080625,70.057125 C41.5259375,68.0337 37.5042875,64.967175 34.3448375,61.159275 C32.8391375,59.344425 31.5321125,57.361275 30.4512125,55.23975 C28.2342875,50.888925 26.9826125,45.962325 26.9826125,40.751775 C26.9826125,34.734375 28.6491875,29.1015 31.5471875,24.288075 C34.2568625,19.788975 38.0370875,16.00605 42.5364125,13.299075 C47.3498375,10.40085 52.9827125,8.7318 59.0001125,8.7318 C64.2106625,8.7318 69.1345625,9.9837 73.4880875,12.2031 C75.6069125,13.283775 77.5927625,14.5935 79.4073875,16.0965 C83.2155125,19.25595 86.2845125,23.2776 88.3052375,27.85995 C90.0496625,31.806225 91.0173875,36.167175 91.0173875,40.751775 C91.0173875,58.40685 76.6551875,72.769275 59.0001125,72.769275 M94.9436375,47.902725 C95.4287375,45.46215 99.7518875,43.335675 99.7518875,40.751775 C99.7518875,38.167875 95.4287375,36.0414 94.9436375,33.59835 C94.4459375,31.082175 97.6179875,27.467775 96.6579125,25.15275 C96.1903625,24.021675 94.8430625,23.363325 93.4102625,22.754925 C91.8543875,22.0914 90.2031125,21.4857 89.4716375,20.394675 C88.0590875,18.283275 89.6048375,13.72365 87.8151875,11.934225 C87.0711125,11.19015 85.8495875,11.021625 84.5225375,10.981575 C82.6599875,10.92105 80.5913375,11.10465 79.3572125,10.28025 C78.6534125,9.80775 78.1507625,8.9532 77.7057125,7.985475 C76.8234875,6.077475 76.1624375,3.73995 74.5991375,3.0915 C73.3728875,2.583 71.7823625,3.233475 70.1835125,3.884175 C68.7635375,4.461975 67.3370375,5.039775 66.1535375,4.805775 C63.7104875,4.32315 61.5840125,7.10542736e-15 59.0001125,7.10542736e-15 C56.4162125,7.10542736e-15 54.2897375,4.32315 51.8464625,4.805775 C51.5726375,4.861125 51.2859875,4.871025 50.9894375,4.84605 C48.5612375,4.66245 45.4645625,2.234475 43.4010875,3.0915 C41.0457875,4.06935 40.7366375,8.8776 38.6430125,10.28025 C36.5340875,11.6928 31.9744625,10.14705 30.1850375,11.934225 C28.3951625,13.72365 29.9411375,18.283275 28.5283625,20.394675 C27.1259375,22.488525 22.3174625,22.7952 21.3423125,25.150275 C20.4877625,27.21645 22.9132625,30.31065 23.0966375,32.738625 C23.1218375,33.03765 23.1117125,33.3243 23.0565875,33.59835 C22.5714875,36.0414 18.2481125,38.167875 18.2481125,40.751775 C18.2481125,43.335675 22.5714875,45.46215 23.0565875,47.902725 C23.5540625,50.4189 20.3820125,54.035775 21.3423125,56.3508 C21.9907625,57.914325 24.3282875,58.57785 26.2360625,59.455125 C27.2013125,59.9049 28.0583375,60.40755 28.5283625,61.108875 C29.3529875,62.340525 29.1693875,64.409175 29.2296875,66.2742 C29.2749125,67.601475 29.4409625,68.823 30.1850375,69.56685 C31.9719875,71.356725 36.5316125,69.81075 38.6430125,71.2233 C39.7338125,71.9523 40.3395125,73.606275 41.0032625,75.16215 C41.6139125,76.59225 42.2749625,77.93955 43.4010875,78.409575 C44.6271125,78.918075 46.2178625,78.267375 47.8167125,77.6169 C49.2366875,77.0391 50.6629625,76.4613 51.8464625,76.6953 C54.2897375,77.177925 56.4162125,81.503775 59.0001125,81.503775 C61.5840125,81.503775 63.7104875,77.177925 66.1535375,76.6953 C67.3370375,76.4613 68.7633125,77.0391 70.1832875,77.6169 C71.7823625,78.267375 73.3728875,78.918075 74.5991375,78.409575 C76.9542125,77.431725 77.2633625,72.623475 79.3572125,71.2233 C81.4661375,69.81075 86.0255375,71.356725 87.8151875,69.56685 C89.6048375,67.777425 88.0590875,63.2178 89.4716375,61.108875 C90.8742875,59.01525 95.6825375,58.705875 96.6579125,56.3508 C97.6179875,54.035775 94.4459375,50.4189 94.9436375,47.902725"/>
    <path fill="#FFC600" d="M88.2303125,40.750875 C88.2303125,56.8944 75.1434125,69.981075 59.0001125,69.981075 C42.8565875,69.981075 29.7699125,56.8944 29.7699125,40.750875 C29.7699125,24.607575 42.8565875,11.520675 59.0001125,11.520675 C75.1434125,11.520675 88.2303125,24.607575 88.2303125,40.750875"/>
    <path fill="#FA9401" d="M92.2751375,42.007725 C92.2751375,32.86125 88.4193125,24.599025 82.2486875,18.758925 C87.6815375,24.499125 91.0182875,32.2425 91.0182875,40.750875 C91.0182875,58.40595 76.6549625,72.769275 59.0001125,72.769275 C50.4915125,72.769275 42.7483625,69.4323 37.0081625,63.99945 C42.8482625,70.170075 51.1102625,74.026125 60.2567375,74.026125 C77.9118125,74.026125 92.2751375,59.6628 92.2751375,42.007725"/>
    <path fill="#FA9401" d="M31.0265375,42.25905 C31.0265375,26.11575 44.1134375,13.02885 60.2567375,13.02885 C68.9374625,13.02885 76.7328125,16.81425 82.0864625,22.82265 C76.7382125,15.94575 68.3864375,11.520675 59.0001125,11.520675 C42.8565875,11.520675 29.7699125,24.607575 29.7699125,40.750875 C29.7699125,48.213675 32.5680125,55.021725 37.1703875,60.187275 C33.3204125,55.236825 31.0265375,49.016025 31.0265375,42.25905"/>
    <path fill="#FA9401" d="M50.4458375,55.1169 L41.5324625,46.2033 C40.0229375,44.693775 40.0229375,42.246225 41.5324625,40.7367 L41.5875875,40.681575 C43.0971125,39.17205 45.5446625,39.17205 47.0541875,40.681575 L52.5950375,46.222425 C53.0002625,46.62765 53.6572625,46.62765 54.0624875,46.222425 L72.4539875,27.830925 C73.9635125,26.3214 76.4110625,26.3214 77.9205875,27.830925 L77.9757125,27.886275 C79.4854625,29.3958 79.4854625,31.84335 77.9757125,33.352875 L56.2116875,55.1169 C54.6195875,56.709225 52.0381625,56.709225 50.4458375,55.1169"/>
    <path fill="#FEF1A7" d="M49.6918625,54.362925 L40.7782625,45.449325 C39.2687375,43.9398 39.2687375,41.49225 40.7782625,39.982725 L40.8336125,39.9276 C42.3431375,38.41785 44.7906875,38.41785 46.3002125,39.9276 L51.8410625,45.46845 C52.2462875,45.873675 52.9032875,45.873675 53.3085125,45.46845 L71.6997875,27.07695 C73.2095375,25.567425 75.6568625,25.567425 77.1666125,27.07695 L77.2217375,27.132075 C78.7312625,28.641825 78.7312625,31.08915 77.2217375,32.598675 L55.4577125,54.362925 C53.8653875,55.955025 51.2839625,55.955025 49.6918625,54.362925"/>
    <path fill="#FFF" d="M66.7250375,4.8591 C66.5290625,4.8591 66.3384875,4.842225 66.1535375,4.805775 C66.3384875,4.842225 66.5292875,4.8591 66.7250375,4.8591 M51.2866625,4.858875 C51.1962125,4.858875 51.1048625,4.85505 51.0123875,4.84785 C51.1048625,4.85505 51.1962125,4.858875 51.2866625,4.858875 M51.7832375,4.8177 C51.7985375,4.815 51.8138375,4.812075 51.8291375,4.80915 C51.8138375,4.812075 51.7985375,4.815 51.7832375,4.8177 M70.2006125,3.8772 C70.7844875,3.6396 71.3670125,3.402675 71.9308625,3.222675 C71.3670125,3.402675 70.7844875,3.6396 70.2006125,3.8772 M74.5554875,3.07395 C74.2679375,2.9619 73.9608125,2.91195 73.6386125,2.909475 C73.9608125,2.91195 74.2679375,2.9619 74.5554875,3.07395 M73.3778375,2.91735 C73.3866125,2.916675 73.3953875,2.916225 73.4043875,2.91555 C73.3953875,2.916225 73.3866125,2.916675 73.3778375,2.91735 M73.4295875,2.9142 C73.4912375,2.91105 73.5524375,2.90925 73.6131875,2.90925 L73.6134125,2.90925 C73.5524375,2.90925 73.4912375,2.91105 73.4295875,2.9142"/>
    <path fill="#FADA2F" d="M30.4512125,55.23975 L30.4512125,55.23975 C28.2342875,50.888925 26.9826125,45.962325 26.9826125,40.751775 C26.9826125,34.734375 28.6491875,29.1015 31.5471875,24.288075 L42.5364125,13.29885 C47.3498375,10.40085 52.9827125,8.7318 59.0001125,8.7318 C64.2106625,8.7318 69.1345625,9.9837 73.4880875,12.2031 L71.4120125,14.279175 C67.8702875,12.61575 63.9402125,11.642175 59.7950375,11.53125 L59.7945875,11.53125 C59.7858125,11.531025 59.7770375,11.5308 59.7682625,11.530575 C59.7678125,11.530575 59.7671375,11.530575 59.7666875,11.530575 C59.7588125,11.53035 59.7504875,11.530125 59.7426125,11.5299 C59.7414875,11.5299 59.7399125,11.5299 59.7387875,11.5299 C59.7300125,11.529675 59.7232625,11.52945 59.7144875,11.529225 C59.7138125,11.529225 59.7129125,11.529225 59.7124625,11.529225 C59.6850125,11.52855 59.6595875,11.5281 59.6321375,11.527425 C59.6303375,11.527425 59.6294375,11.527425 59.6278625,11.527425 C59.6208875,11.5272 59.6132375,11.526975 59.6062625,11.526975 C59.6040125,11.52675 59.6022125,11.52675 59.5999625,11.52675 C59.5938875,11.526525 59.5862375,11.526525 59.5803875,11.5263 C59.5781375,11.5263 59.5749875,11.5263 59.5727375,11.5263 C59.5659875,11.526075 59.5587875,11.52585 59.5518125,11.52585 C59.5502375,11.52585 59.5493375,11.52585 59.5477625,11.52585 C59.5398875,11.525625 59.5315625,11.5254 59.5236875,11.5254 C59.5232375,11.5254 59.5214375,11.525175 59.5209875,11.525175 C59.5032125,11.52495 59.4863375,11.524725 59.4685625,11.5245 C59.4663125,11.524275 59.4640625,11.524275 59.4618125,11.524275 C59.4550625,11.524275 59.4485375,11.52405 59.4417875,11.52405 C59.4399875,11.52405 59.4370625,11.523825 59.4352625,11.523825 C59.4285125,11.523825 59.4233375,11.523825 59.4163625,11.5236 C59.4136625,11.5236 59.4107375,11.5236 59.4080375,11.5236 C59.4019625,11.523375 59.3961125,11.523375 59.3902625,11.523375 C59.3873375,11.52315 59.3844125,11.52315 59.3814875,11.52315 C59.3756375,11.52315 59.3697875,11.522925 59.3639375,11.522925 C59.3610125,11.522925 59.3585375,11.522925 59.3556125,11.522925 C59.3477375,11.5227 59.3376125,11.5227 59.3299625,11.522475 C59.3292875,11.522475 59.3279375,11.522475 59.3272625,11.522475 C59.3193875,11.522475 59.3119625,11.52225 59.3040875,11.52225 C59.3013875,11.52225 59.2982375,11.52225 59.2953125,11.52225 C59.2894625,11.522025 59.2847375,11.522025 59.2786625,11.522025 C59.2752875,11.522025 59.2721375,11.522025 59.2687625,11.522025 C59.2626875,11.5218 59.2584125,11.5218 59.2525625,11.5218 C59.2489625,11.5218 59.2460375,11.5218 59.2424375,11.5218 C59.2365875,11.521575 59.2318625,11.521575 59.2257875,11.521575 C59.2224125,11.521575 59.2203875,11.521575 59.2170125,11.521575 C59.2120625,11.521575 59.2050875,11.52135 59.2001375,11.52135 C59.1967625,11.52135 59.1936125,11.52135 59.1902375,11.52135 C59.1823625,11.52135 59.1729125,11.521125 59.1650375,11.521125 C59.1643625,11.521125 59.1641375,11.521125 59.1634625,11.521125 C59.1555875,11.521125 59.1474875,11.521125 59.1396125,11.521125 C59.1366875,11.521125 59.1337625,11.521125 59.1308375,11.5209 C59.1249875,11.5209 59.1191375,11.5209 59.1132875,11.5209 C59.1099125,11.5209 59.1069875,11.5209 59.1036125,11.5209 C59.0986625,11.5209 59.0932625,11.5209 59.0883125,11.5209 C59.0847125,11.5209 59.0808875,11.5209 59.0775125,11.5209 C59.0725625,11.5209 59.0658125,11.5209 59.0608625,11.520675 C59.0579375,11.520675 59.0545625,11.520675 59.0516375,11.520675 C59.0457875,11.520675 59.0397125,11.520675 59.0338625,11.520675 C59.0309375,11.520675 59.0289125,11.520675 59.0259875,11.520675 C59.0169875,11.520675 59.0088875,11.520675 59.0001125,11.520675 C42.8565875,11.520675 29.7699125,24.607575 29.7699125,40.750875 C29.7699125,40.7646 29.7699125,40.778325 29.7699125,40.792275 C29.7699125,40.793625 29.7699125,40.794525 29.7699125,40.795875 C29.7699125,40.8096 29.7699125,40.821525 29.7699125,40.83525 C29.7699125,40.83705 29.7699125,40.838625 29.7699125,40.840425 C29.7699125,40.85325 29.7701375,40.8663 29.7701375,40.879125 C29.7701375,40.880925 29.7701375,40.882725 29.7701375,40.88475 C29.7701375,40.89735 29.7701375,40.91085 29.7703625,40.923675 C29.7703625,40.925475 29.7703625,40.9266 29.7703625,40.9284 C29.7703625,40.94235 29.7705875,40.954275 29.7705875,40.968 C29.7705875,40.96935 29.7705875,40.970475 29.7705875,40.971825 C29.7708125,40.98555 29.7708125,40.999275 29.7710375,41.013 L29.7710375,41.013225 C29.7712625,41.041575 29.7714875,41.071725 29.7719375,41.1003 C29.7719375,41.114925 29.7721625,41.12775 29.7723875,41.142375 C29.7723875,41.143275 29.7723875,41.14395 29.7723875,41.14485 C29.7726125,41.1597 29.7728375,41.17185 29.7730625,41.186475 C29.7730625,41.187375 29.7730625,41.187375 29.7730625,41.188275 C29.7732875,41.2029 29.7735125,41.216175 29.7737375,41.231025 C29.8423625,45.49185 30.8226875,49.531725 32.5281875,53.162775 L30.4512125,55.23975"/>
    <path fill="#FFB421" d="M26.2360625,59.455125 L26.2360625,59.455125 C24.3282875,58.57785 21.9907625,57.914325 21.3423125,56.3508 C21.2147375,56.043225 21.1600625,55.712925 21.1600625,55.365075 C21.1600625,53.2863 23.1114875,50.587875 23.1099125,48.472425 C23.1096875,48.27735 23.0930375,48.087 23.0565875,47.902725 C22.5714875,45.46215 18.2481125,43.335675 18.2481125,40.751775 C18.2481125,38.167875 22.5714875,36.0414 23.0565875,33.59835 C23.0928125,33.418575 23.1096875,33.233175 23.1096875,33.0426 C23.1099125,32.9427 23.1054125,32.84145 23.0966375,32.738625 L31.5471875,24.288075 C28.6491875,29.1015 26.9826125,34.734375 26.9826125,40.751775 C26.9826125,45.962325 28.2342875,50.888925 30.4512125,55.23975 L26.2360625,59.455125 M42.5364125,13.29885 L50.9894375,4.84605 C50.9970875,4.8465 51.0047375,4.847175 51.0123875,4.84785 C51.1048625,4.85505 51.1962125,4.858875 51.2866625,4.858875 C51.2873375,4.858875 51.2880125,4.858875 51.2889125,4.858875 C51.2898125,4.858875 51.2909375,4.858875 51.2918375,4.858875 C51.4594625,4.858875 51.6234875,4.845825 51.7832375,4.8177 C51.7985375,4.815 51.8138375,4.812075 51.8291375,4.80915 C51.8293625,4.80915 51.8295875,4.80915 51.8300375,4.80915 C51.8354375,4.808025 51.8410625,4.8069 51.8464625,4.805775 C54.2897375,4.32315 56.4162125,4.54747351e-13 59.0001125,4.54747351e-13 C61.5840125,4.54747351e-13 63.7104875,4.32315 66.1535375,4.805775 C66.3384875,4.842225 66.5290625,4.8591 66.7250375,4.8591 C66.7252625,4.8591 66.7254875,4.8591 66.7257125,4.8591 C66.7297625,4.8591 66.7340375,4.8591 66.7380875,4.8591 C67.7924375,4.855275 68.9901125,4.369725 70.1835125,3.884175 C70.1891375,3.881925 70.1949875,3.87945 70.2006125,3.8772 C70.7844875,3.6396 71.3670125,3.402675 71.9308625,3.222675 C71.9324375,3.222 71.9340125,3.22155 71.9355875,3.2211 C71.9385125,3.2202 71.9414375,3.2193 71.9445875,3.218175 C72.4407125,3.060675 72.9224375,2.9475 73.3778375,2.91735 C73.3866125,2.916675 73.3953875,2.916225 73.4043875,2.91555 C73.4061875,2.91555 73.4077625,2.915325 73.4093375,2.915325 C73.4118125,2.9151 73.4142875,2.9151 73.4167625,2.914875 C73.4185625,2.914875 73.4205875,2.91465 73.4223875,2.91465 C73.4246375,2.914425 73.4268875,2.914425 73.4291375,2.9142 C73.4291375,2.9142 73.4293625,2.9142 73.4295875,2.9142 C73.4912375,2.91105 73.5524375,2.90925 73.6134125,2.90925 C73.6217375,2.90925 73.6302875,2.90925 73.6386125,2.909475 C73.9608125,2.91195 74.2679375,2.9619 74.5554875,3.07395 C74.5561625,3.074175 74.5568375,3.074625 74.5575125,3.07485 C74.5599875,3.07575 74.5626875,3.07665 74.5651625,3.077775 C74.5764125,3.082275 74.5876625,3.086775 74.5991375,3.0915 C76.1624375,3.73995 76.8234875,6.077475 77.7057125,7.985475 L73.4880875,12.2031 C69.1345625,9.9837 64.2106625,8.7318 59.0001125,8.7318 C52.9827125,8.7318 47.3498375,10.40085 42.5364125,13.299075"/>
    <path fill="#FFC600" d="M32.5281875,53.162775 C30.8226875,49.531725 29.8423625,45.49185 29.7737375,41.231025 C29.8423625,45.492075 30.8231375,49.530825 32.5293125,53.161875 L32.5281875,53.162775 M32.9595125,52.731675 C31.7109875,49.48065 31.0265375,45.949725 31.0265375,42.25905 C31.0265375,26.11575 44.1134375,13.02885 60.2567375,13.02885 C63.9476375,13.02885 67.4783375,13.713075 70.7295875,14.9616 L46.0189625,39.672225 C45.3081875,39.08745 44.4374375,38.7954 43.5669125,38.7954 C42.5775875,38.7954 41.5882625,39.172725 40.8336125,39.9276 L40.7782625,39.982725 C39.3591875,41.4018 39.2741375,43.64955 40.5231125,45.168075 L32.9595125,52.731675 M29.7737375,41.231025 C29.7735125,41.216175 29.7732875,41.2029 29.7730625,41.188275 C29.7732875,41.20245 29.7735125,41.21685 29.7737375,41.231025 M29.7730625,41.186475 C29.7728375,41.17185 29.7726125,41.1597 29.7723875,41.14485 C29.7726125,41.158575 29.7728375,41.172975 29.7730625,41.186475 M29.7723875,41.142375 C29.7721625,41.12775 29.7719375,41.114925 29.7719375,41.1003 C29.7719375,41.11425 29.7721625,41.1282 29.7723875,41.142375 M29.7719375,41.1003 C29.7714875,41.071725 29.7712625,41.041575 29.7710375,41.013225 C29.7712625,41.04225 29.7714875,41.07105 29.7719375,41.1003 M29.7710375,41.013 C29.7708125,40.999275 29.7708125,40.98555 29.7705875,40.971825 C29.7708125,40.985325 29.7708125,40.999275 29.7710375,41.013 M29.7705875,40.968 C29.7705875,40.954275 29.7703625,40.94235 29.7703625,40.9284 C29.7703625,40.941675 29.7705875,40.954725 29.7705875,40.968 M29.7703625,40.923675 C29.7701375,40.91085 29.7701375,40.89735 29.7701375,40.88475 C29.7701375,40.89735 29.7701375,40.91085 29.7703625,40.923675 M29.7701375,40.879125 C29.7701375,40.8663 29.7699125,40.85325 29.7699125,40.840425 C29.7699125,40.85325 29.7701375,40.8663 29.7701375,40.879125 M29.7699125,40.83525 C29.7699125,40.821525 29.7699125,40.8096 29.7699125,40.795875 C29.7699125,40.808925 29.7699125,40.8222 29.7699125,40.83525 M29.7699125,40.792275 C29.7699125,40.778325 29.7699125,40.7646 29.7699125,40.750875 C29.7699125,40.7646 29.7699125,40.77855 29.7699125,40.792275 M29.7699125,40.750875 L29.7699125,40.750875 C29.7699125,24.607575 42.8565875,11.520675 59.0001125,11.520675 C59.0088875,11.520675 59.0169875,11.520675 59.0259875,11.520675 C59.0174375,11.520675 59.0086625,11.520675 59.0001125,11.520675 C42.8565875,11.520675 29.7699125,24.607575 29.7699125,40.750875 M71.4115625,14.279625 C67.8700625,12.615975 63.9402125,11.64195 59.7950375,11.53125 C63.9402125,11.642175 67.8702875,12.61575 71.4120125,14.279175 L71.4115625,14.279625 M59.7945875,11.53125 C59.7853625,11.531025 59.7774875,11.5308 59.7682625,11.530575 C59.7770375,11.5308 59.7858125,11.531025 59.7945875,11.53125 M59.7666875,11.530575 C59.7585875,11.53035 59.7504875,11.530125 59.7426125,11.5299 C59.7504875,11.530125 59.7588125,11.53035 59.7666875,11.530575 M59.7387875,11.5299 C59.7306875,11.529675 59.7223625,11.52945 59.7144875,11.529225 C59.7232625,11.52945 59.7300125,11.529675 59.7387875,11.5299 M59.7124625,11.529225 C59.6856875,11.52855 59.6589125,11.527875 59.6321375,11.527425 C59.6595875,11.5281 59.6850125,11.52855 59.7124625,11.529225 M59.5477625,11.52585 C59.5396625,11.525625 59.5317875,11.5254 59.5236875,11.5254 C59.5315625,11.5254 59.5398875,11.525625 59.5477625,11.52585 M59.5209875,11.525175 C59.5032125,11.52495 59.4863375,11.524725 59.4685625,11.5245 C59.4863375,11.524725 59.5032125,11.52495 59.5209875,11.525175 M59.3556125,11.522925 C59.3470625,11.5227 59.3385125,11.5227 59.3299625,11.522475 C59.3376125,11.5227 59.3477375,11.5227 59.3556125,11.522925 M59.3272625,11.522475 C59.3193875,11.522475 59.3121875,11.52225 59.3040875,11.52225 C59.3119625,11.52225 59.3193875,11.522475 59.3272625,11.522475 M59.1902375,11.52135 C59.1816875,11.52135 59.1735875,11.521125 59.1650375,11.521125 C59.1729125,11.521125 59.1823625,11.52135 59.1902375,11.52135 M59.1634625,11.521125 C59.1555875,11.521125 59.1474875,11.521125 59.1396125,11.521125 C59.1474875,11.521125 59.1555875,11.521125 59.1634625,11.521125"/>
    <path fill="#FBA121" d="M32.5293125,53.161875 C30.8231375,49.530825 29.8423625,45.492075 29.7737375,41.231025 C29.7735125,41.21685 29.7732875,41.20245 29.7730625,41.188275 C29.7730625,41.187375 29.7730625,41.187375 29.7730625,41.186475 C29.7728375,41.172975 29.7726125,41.158575 29.7723875,41.14485 C29.7723875,41.14395 29.7723875,41.143275 29.7723875,41.142375 C29.7721625,41.1282 29.7719375,41.11425 29.7719375,41.1003 C29.7714875,41.07105 29.7712625,41.04225 29.7710375,41.013225 L29.7710375,41.013 C29.7708125,40.999275 29.7708125,40.985325 29.7705875,40.971825 C29.7705875,40.970475 29.7705875,40.96935 29.7705875,40.968 C29.7705875,40.954725 29.7703625,40.941675 29.7703625,40.9284 C29.7703625,40.9266 29.7703625,40.925475 29.7703625,40.923675 C29.7699125,40.91085 29.7699125,40.89735 29.7699125,40.88475 C29.7699125,40.882725 29.7699125,40.880925 29.7699125,40.879125 C29.7699125,40.8663 29.7699125,40.85325 29.7699125,40.840425 C29.7699125,40.838625 29.7699125,40.83705 29.7699125,40.83525 C29.7699125,40.8222 29.7699125,40.808925 29.7699125,40.795875 C29.7699125,40.794525 29.7699125,40.793625 29.7699125,40.792275 C29.7699125,40.77855 29.7699125,40.7646 29.7699125,40.750875 C29.7699125,24.607575 42.8565875,11.520675 59.0001125,11.520675 C59.0086625,11.520675 59.0174375,11.520675 59.0259875,11.520675 C59.0289125,11.520675 59.0309375,11.520675 59.0338625,11.520675 C59.0394875,11.520675 59.0460125,11.520675 59.0516375,11.520675 C59.0545625,11.520675 59.0579375,11.520675 59.0608625,11.520675 C59.0667125,11.520675 59.0716625,11.520675 59.0775125,11.520675 C59.0808875,11.520675 59.0847125,11.520675 59.0883125,11.520675 C59.0934875,11.520675 59.0984375,11.520675 59.1036125,11.520675 C59.1069875,11.520675 59.1099125,11.520675 59.1132875,11.520675 C59.1191375,11.520675 59.1252125,11.520675 59.1308375,11.520675 C59.1337625,11.521125 59.1366875,11.521125 59.1396125,11.521125 C59.1474875,11.521125 59.1555875,11.521125 59.1634625,11.521125 C59.1641375,11.521125 59.1643625,11.521125 59.1650375,11.521125 C59.1735875,11.521125 59.1816875,11.52135 59.1902375,11.52135 C59.1936125,11.52135 59.1967625,11.52135 59.2001375,11.52135 C59.2053125,11.52135 59.2118375,11.521575 59.2170125,11.521575 C59.2203875,11.521575 59.2224125,11.521575 59.2257875,11.521575 C59.2309625,11.521575 59.2372625,11.521575 59.2424375,11.5218 C59.2460375,11.5218 59.2489625,11.5218 59.2525625,11.5218 C59.2577375,11.5218 59.2635875,11.5218 59.2687625,11.522025 C59.2721375,11.522025 59.2752875,11.522025 59.2786625,11.522025 C59.2845125,11.522025 59.2896875,11.522025 59.2953125,11.52225 C59.2982375,11.52225 59.3013875,11.52225 59.3040875,11.52225 C59.3121875,11.52225 59.3193875,11.522475 59.3272625,11.522475 C59.3279375,11.522475 59.3292875,11.522475 59.3299625,11.522475 C59.3385125,11.5227 59.3470625,11.5227 59.3556125,11.522925 C59.3585375,11.522925 59.3610125,11.522925 59.3639375,11.522925 C59.3695625,11.522925 59.3758625,11.52315 59.3814875,11.52315 C59.3844125,11.52315 59.3873375,11.52315 59.3902625,11.523375 C59.3965625,11.523375 59.4017375,11.523375 59.4080375,11.5236 C59.4107375,11.5236 59.4136625,11.5236 59.4163625,11.5236 C59.4226625,11.523825 59.4291875,11.523825 59.4352625,11.523825 C59.4370625,11.523825 59.4399875,11.52405 59.4417875,11.52405 C59.4485375,11.52405 59.4550625,11.524275 59.4618125,11.524275 C59.4640625,11.524275 59.4663125,11.524275 59.4685625,11.5245 C59.4863375,11.524725 59.5032125,11.52495 59.5209875,11.525175 C59.5214375,11.525175 59.5232375,11.5254 59.5236875,11.5254 C59.5317875,11.5254 59.5396625,11.525625 59.5477625,11.52585 C59.5493375,11.52585 59.5502375,11.52585 59.5518125,11.52585 C59.5587875,11.52585 59.5659875,11.526075 59.5727375,11.5263 C59.5749875,11.5263 59.5781375,11.5263 59.5803875,11.5263 C59.5871375,11.526525 59.5929875,11.526525 59.5999625,11.52675 C59.6022125,11.52675 59.6040125,11.52675 59.6062625,11.526975 C59.6132375,11.526975 59.6208875,11.5272 59.6278625,11.527425 C59.6294375,11.527425 59.6303375,11.527425 59.6321375,11.527425 C59.6589125,11.527875 59.6856875,11.52855 59.7124625,11.529225 C59.7129125,11.529225 59.7138125,11.529225 59.7144875,11.529225 C59.7223625,11.52945 59.7306875,11.529675 59.7387875,11.5299 C59.7399125,11.5299 59.7414875,11.5299 59.7426125,11.5299 C59.7504875,11.530125 59.7585875,11.53035 59.7666875,11.530575 C59.7671375,11.530575 59.7678125,11.530575 59.7682625,11.530575 C59.7774875,11.5308 59.7853625,11.531025 59.7945875,11.53125 L59.7950375,11.53125 C63.9402125,11.64195 67.8700625,12.615975 71.4115625,14.279625 L70.7295875,14.9616 C67.4783375,13.713075 63.9476375,13.02885 60.2567375,13.02885 C44.1134375,13.02885 31.0265375,26.11575 31.0265375,42.25905 C31.0265375,45.949725 31.7109875,49.48065 32.9595125,52.731675 L32.5293125,53.161875"/>
    <path fill="#FEF1A7" d="M40.5231125,45.168075 C39.2741375,43.64955 39.3591875,41.4018 40.7782625,39.982725 L40.8336125,39.9276 C41.5882625,39.172725 42.5775875,38.7954 43.5669125,38.7954 C44.4374375,38.7954 45.3081875,39.08745 46.0189625,39.672225 L40.5231125,45.168075"/>
    <path fill="#FFC600" d="M48.2316125,67.933575 C43.5421625,66.074625 39.4496375,63.038025 36.3162875,59.1876 L36.3178625,59.18625 C36.5946125,59.52645 36.8787875,59.860125 37.1703875,60.187275 C36.8994875,59.838975 36.6360125,59.483925 36.3808625,59.12325 L45.4164125,50.087475 L49.6918625,54.362925 C49.6925375,54.3636 49.6932125,54.36405 49.6938875,54.364725 L50.4458375,55.1169 C51.2421125,55.91295 52.2854375,56.310975 53.3287625,56.310975 C54.3723125,56.310975 55.4156375,55.91295 56.2116875,55.1169 L77.9757125,33.352875 C79.4854625,31.84335 79.4854625,29.3958 77.9757125,27.886275 L77.9205875,27.830925 C77.8022375,27.712575 77.6780375,27.60345 77.5491125,27.503775 C77.4492125,27.374625 77.3400875,27.25065 77.2217375,27.132075 L77.1666125,27.07695 C76.4117375,26.322075 75.4224125,25.94475 74.4333125,25.94475 C73.4439875,25.94475 72.4546625,26.322075 71.6997875,27.07695 L53.3085125,45.46845 C53.1057875,45.67095 52.8402875,45.7722 52.5747875,45.7722 C52.3092875,45.7722 52.0435625,45.67095 51.8410625,45.46845 L50.9383625,44.56575 L77.1207125,18.383175 C78.9405125,19.671075 80.6068625,21.16215 82.0864625,22.82265 C80.7209375,21.066975 79.1601125,19.471275 77.4359375,18.06795 L77.4366125,18.067275 C81.2872625,21.200625 84.3236375,25.292925 86.1828125,29.9826 L48.2316125,67.933575"/>
    <path fill="#FBA121" d="M45.6632375 70.50195C42.4261625 68.837175 39.5083625 66.6369 37.0263875 64.0188 37.0203125 64.0125 37.0142375 64.005975 37.0081625 63.99945 38.7456125 65.643975 40.6668875 67.096575 42.7368875 68.322375 43.8213875 68.96475 44.9463875 69.544575 46.1078375 70.057575L45.6632375 70.50195M88.3065875 27.8586C87.5406875 26.124525 86.6253875 24.471 85.5768875 22.913775 84.5823875 21.437325 83.4684125 20.0475 82.2486875 18.758925 82.2507125 18.760725 82.2529625 18.762975 82.2547625 18.764775 84.8789375 21.24945 87.0834875 24.171525 88.7511875 27.414L88.3065875 27.8586M53.3287625 56.310975C52.2854375 56.310975 51.2421125 55.91295 50.4458375 55.1169L49.6938875 54.364725C50.4897125 55.15965 51.5321375 55.557 52.5747875 55.557 53.6181125 55.557 54.6616625 55.158975 55.4577125 54.362925L77.2217375 32.598675C78.6129125 31.2075 78.7220375 29.019825 77.5491125 27.503775 77.6780375 27.60345 77.8022375 27.712575 77.9205875 27.830925L77.9757125 27.886275C79.4854625 29.3958 79.4854625 31.84335 77.9757125 33.352875L56.2116875 55.1169C55.4156375 55.91295 54.3723125 56.310975 53.3287625 56.310975"/>
    <path fill="#FEF1A7" d="M52.5747875,55.557 C51.5321375,55.557 50.4897125,55.15965 49.6938875,54.364725 C49.6932125,54.36405 49.6925375,54.3636 49.6918625,54.362925 L45.4164125,50.087475 L50.9383625,44.56575 L51.8410625,45.46845 C52.0435625,45.67095 52.3092875,45.7722 52.5747875,45.7722 C52.8402875,45.7722 53.1057875,45.67095 53.3085125,45.46845 L71.6997875,27.07695 C72.4546625,26.322075 73.4439875,25.94475 74.4333125,25.94475 C75.4224125,25.94475 76.4117375,26.322075 77.1666125,27.07695 L77.2217375,27.132075 C77.3400875,27.25065 77.4492125,27.374625 77.5491125,27.503775 C78.7220375,29.019825 78.6129125,31.2075 77.2217375,32.598675 L55.4577125,54.362925 C54.6616625,55.158975 53.6181125,55.557 52.5747875,55.557"/>
    <path fill="#262626" d="M56.0001505,153.785938 C25.0723139,153.785938 0,151.099506 0,147.785559 C0,144.471612 25.0723139,141.785938 56.0001505,141.785938 C86.9279871,141.785938 112,144.471612 112,147.785559 C112,151.099506 86.9279871,153.785938 56.0001505,153.785938"/>
  </g>
</svg>
