<svg xmlns="http://www.w3.org/2000/svg" width="93" height="93" viewBox="0 0 93 93">
  <g fill="none">
    <path fill="#E53737" d="M28.3540118,48.0482538 C28.2954903,48.0482538 28.2369688,48.0461387 28.1777422,48.0426132 L2.73429306,46.4540722 C1.76622066,46.3941406 0.897564408,45.8406543 0.433623092,44.989625 C-0.029613191,44.1385957 -0.023972566,43.1084766 0.449839934,42.2623828 C0.583099655,42.0240663 3.78979497,36.370045 9.89647656,31.4387285 C18.1487109,24.7757403 27.7420038,22.6146757 37.6384806,25.1896212 C38.4598965,25.4032597 39.1410019,25.9757832 39.493541,26.7478438 C39.84608,27.5199043 39.8319785,28.4097128 39.4547618,29.1697872 L30.8803066,46.4801601 C30.4022637,47.4447069 29.4200899,48.0482538 28.3540118,48.0482538 L28.3540118,48.0482538 Z"/>
    <path fill="#C31F1F" d="M48.8654394,92.416 C48.4014981,92.416 47.9375566,92.3017774 47.516625,92.0719219 C46.6655957,91.6079806 46.1121094,90.7400293 46.0514726,89.7719569 L44.4636368,64.3285078 C44.3931288,63.1954472 45.0086622,62.1300743 46.0260899,61.6259434 L63.3364628,53.0507832 C64.0972422,52.6742715 64.9863457,52.66017 65.7584063,53.012709 C66.5311719,53.3645431 67.1029903,54.0463535 67.3166288,54.8677694 C69.8922793,64.7642462 67.7312149,74.3575391 61.0675215,82.6097734 C56.1369101,88.716455 50.4821837,91.9224453 50.2438672,92.0564101 C49.8158847,92.2961368 49.3406622,92.416 48.8654394,92.416 L48.8654394,92.416 Z"/>
    <path fill="#E0E0E0" d="M87.9831738,22.7535762 L69.7526738,4.52307622 C69.0222128,3.79261528 67.9504941,3.52045503 66.9598594,3.8130625 C54.7556622,7.4230625 44.7372069,13.0848399 37.1808847,20.6404569 C35.6050351,22.2170118 34.0912325,23.925416 32.6824863,25.7177247 C28.5859825,30.9261368 25.1642382,37.0842891 22.5131444,44.0215528 C20.8244825,48.4430976 19.44958,53.1798125 18.4265118,58.0998476 C16.6398438,66.694045 16.5439531,72.8536075 16.5402221,73.111666 C16.5312618,73.8710351 16.8288047,74.6029062 17.3660743,75.1401757 C17.8948828,75.6689844 18.6126524,75.9658222 19.3600351,75.9658222 L19.394584,75.9658222 C19.6533476,75.9630019 25.8129101,75.8671113 34.4064024,74.0804434 C39.3264375,73.057375 44.0631524,71.6824726 48.4854024,69.9931056 C55.4219609,67.3420118 61.5801132,63.9209726 66.7871153,59.8251738 C68.580834,58.4157226 70.2892382,56.90192 71.8657931,55.3253653 C79.4221153,47.7690431 85.0838925,37.7505878 88.6931875,25.5463906 C88.9865,24.5557559 88.7136347,23.4840372 87.9831738,22.7535762 L87.9831738,22.7535762 Z"/>
    <path fill="#FFC600" d="M36.3326757,69.8323476 L22.6739024,56.1735743 C21.6656406,55.1653125 20.0629981,55.0687168 18.9405137,55.9486543 C18.0683319,56.63258 17.238455,57.3672715 16.4741503,58.1315762 C6.97040243,67.6353243 6.67638472,82.3608809 6.66839082,82.9827597 C6.65875781,83.742834 6.95630069,84.474705 7.49427535,85.0119747 C8.02308403,85.5414882 8.74014844,85.8383262 9.48753125,85.8383262 C9.49951753,85.8383262 9.51150382,85.8383262 9.52349028,85.8376212 C10.1453691,85.8298653 24.8716309,85.5358476 34.3746738,76.0320997 C35.1389785,75.267795 35.87367,74.4379181 36.5575957,73.5657363 C37.4375332,72.4432519 37.3409375,70.8406094 36.3326757,69.8323476 L36.3326757,69.8323476 Z"/>
    <path fill="#545454" d="M22.7310137,43.4574903 L14.3511601,51.8380488 C13.8223516,52.3661524 13.5248087,53.0832168 13.5248087,53.8313047 C13.5248087,54.5786875 13.8223516,55.2957519 14.3511601,55.8245606 L36.6816894,78.1550899 C37.2097931,78.6838984 37.9268575,78.9807363 38.6749453,78.9807363 C39.4230332,78.9807363 40.1393925,78.6838984 40.6682012,78.1550899 L49.0480547,69.7752363 L22.7310137,43.4574903 Z"/>
    <path fill="#DCDCDC" d="M59.3125819,41.794916 C57.0154375,41.794916 54.8550781,40.9001719 53.2305781,39.2756719 C49.8772266,35.9223203 49.8772266,30.4664257 53.2305781,27.1123691 C54.8550781,25.4878691 57.0154375,24.593125 59.3125819,24.593125 C61.6097266,24.593125 63.7700859,25.4878691 65.3945859,27.1123691 C67.0190859,28.7368691 67.91383,30.8965234 67.91383,33.1943731 C67.91383,35.4915175 67.0190859,37.6511719 65.3945859,39.2756719 C63.7700859,40.9001719 61.6097266,41.794916 59.3125819,41.794916 Z"/>
    <path fill="#494949" d="M59.3118769,44.5524766 C56.2779257,44.5524766 53.4258847,43.3707656 51.2810372,41.2259181 C46.8524413,36.7973222 46.8524413,29.5914238 51.2810372,25.1628281 C53.4258847,23.0179806 56.2786309,21.8362694 59.3118769,21.8362694 C62.3458281,21.8362694 65.1978691,23.0179806 67.3434219,25.1628281 C69.4889747,27.3083809 70.6699806,30.1604219 70.6699806,33.1943731 C70.6699806,36.2283243 69.4889747,39.0803653 67.3434219,41.2259181 C65.1978691,43.3707656 62.3458281,44.5524766 59.3118769,44.5524766 L59.3118769,44.5524766 Z M59.3118769,27.4747793 C57.7846778,27.4747793 56.3477285,28.0698653 55.2675488,29.150045 C53.0380918,31.3802069 53.0380918,35.0085391 55.2675488,37.2387012 C56.3477285,38.3188809 57.7846778,38.9139668 59.3118769,38.9139668 C60.8397813,38.9139668 62.2760253,38.3188809 63.356205,37.2387012 C64.4363847,36.1585215 65.0314707,34.7222774 65.0314707,33.1943731 C65.0314707,31.6664688 64.4363847,30.2302247 63.356205,29.150045 C62.2760253,28.0698653 60.8397813,27.4747793 59.3118769,27.4747793 Z"/>
    <path fill="#E53737" d="M91.6806035,0.826351562 C91.1426288,0.288376908 90.4065274,-0.0141015625 89.6506837,0.000705078125 C89.2325722,0.005640625 79.2662931,0.173449309 66.9598594,3.8130625 L88.6931875,25.5463906 C92.3328007,13.2399569 92.5006094,3.27367778 92.505783,2.85556632 C92.515416,2.09549219 92.2178731,1.36362118 91.6806035,0.826351562 Z"/>
    <path fill="#D3D3D3" d="M87.9831738,22.7535762 L78.8679238,13.6383262 L17.3660743,75.1401757 C17.8948828,75.6689844 18.6119472,75.9658222 19.35933,75.9658222 L19.394584,75.9658222 C19.6526425,75.9630019 25.812205,75.8671113 34.4064024,74.0804434 C39.3264375,73.057375 44.0624472,71.6824726 48.4846972,69.9931056 C55.4219609,67.3420118 61.5801132,63.9209726 66.7871153,59.8251738 C68.5801288,58.4157226 70.2892382,56.90192 71.8650878,55.3253653 C79.4214101,47.7690431 85.0831875,37.7505878 88.6924825,25.5463906 C88.9865,24.5557559 88.7136347,23.4840372 87.9831738,22.7535762 L87.9831738,22.7535762 Z"/>
    <path fill="#E4B307" d="M36.3326757,69.8323476 L29.5032891,63.0029609 L7.49357031,85.0119747 L7.49357031,85.0126797 C8.02308403,85.5414882 8.74014844,85.8383262 9.48753125,85.8383262 L9.52278507,85.8383262 C10.1453691,85.8305703 24.8709257,85.5358476 34.3746738,76.0320997 C35.1389785,75.267795 35.87367,74.4379181 36.5568906,73.5657363 C37.4375332,72.4432519 37.3416425,70.8406094 36.3326757,69.8323476 L36.3326757,69.8323476 Z"/>
    <path fill="#363636" d="M35.8898868,56.6163632 L25.5160722,66.9901778 L36.6816894,78.155795 C37.2097931,78.6838984 37.9268575,78.9814413 38.6749453,78.9814413 C39.4230332,78.9814413 40.1393925,78.6838984 40.6682012,78.155795 L49.0480547,69.7752363 L35.8898868,56.6163632 Z"/>
    <path fill="#A5A5A5" d="M65.3945859,27.1123691 C65.3938809,27.1123691 65.3938809,27.1123691 65.3938809,27.1123691 L53.2305781,39.2756719 L53.2312832,39.2756719 C54.8550781,40.9001719 57.0154375,41.794916 59.3125819,41.794916 C61.6097266,41.794916 63.7700859,40.9001719 65.3945859,39.2756719 C67.0190859,37.6511719 67.91383,35.4915175 67.91383,33.1943731 C67.913125,30.8972285 67.0190859,28.7368691 65.3945859,27.1123691 L65.3945859,27.1123691 Z"/>
    <path fill="#1D1D1D" d="M67.3434219,25.1628281 L63.356205,29.150045 C64.4363847,30.2302247 65.0314707,31.6664687 65.0314707,33.1943731 C65.0314707,34.7222774 64.4363847,36.1585215 63.356205,37.2387012 C62.2760253,38.3188809 60.8397812,38.9139668 59.3118769,38.9139668 C57.7839726,38.9139668 56.3477285,38.3188809 55.2675488,37.2387012 C55.2675488,37.2387012 55.2675488,37.2387012 55.2675488,37.2379962 L51.2803319,41.2252128 L51.2803319,41.2259181 C53.4258847,43.3707656 56.2779257,44.5524766 59.3118769,44.5524766 C62.3458281,44.5524766 65.1978691,43.3707656 67.3434219,41.2259181 C69.4882694,39.0803653 70.6699806,36.2283243 70.6699806,33.1943731 C70.6699806,30.1604219 69.4882694,27.3083809 67.3434219,25.1628281 Z"/>
    <path fill="#C31F1F" d="M91.6798984,0.825646529 L77.8265234,14.6797266 L88.6931875,25.5463906 C92.3328007,13.2399569 92.5006094,3.27367778 92.505545,2.85556632 C92.515416,2.09549219 92.2178731,1.36362118 91.6798984,0.825646529 L91.6798984,0.825646529 Z"/>
  </g>
</svg>
