<svg xmlns="http://www.w3.org/2000/svg" width="84" height="110" viewBox="0 0 84 110">
  <g fill="none" transform="translate(.134)">
    <path fill="#E53737" d="M76.4773124,83.0007506 L56.0773591,75.5824248 L41.4485598,80.4589864 L26.8197606,75.5824248 L6.41980728,83.0010459 C2.56567905,84.4025739 0,88.0653834 0,92.1663364 L0,107.278747 C0,108.625064 1.09152077,109.71688 2.43813321,109.71688 L80.4589864,109.71688 C81.8055989,109.71688 82.8971196,108.625064 82.8971196,107.278747 L82.8971196,92.1663364 C82.8971196,88.0650881 80.3317358,84.4022786 76.4773124,83.0007506 Z"/>
    <polygon fill="#FFC600" points="38.894 85.336 36.572 109.717 46.325 109.717 44.003 85.336"/>
    <path fill="#E1B005" d="M44.008334,88.6851026 L38.8887857,88.6851026 C37.9460684,88.6851026 37.1819743,87.9210085 37.1819743,86.9782913 L37.1819743,80.4589864 L45.7148502,80.4589864 L45.7148502,86.9782913 C45.7151453,87.9207133 44.9510512,88.6851026 44.008334,88.6851026 Z"/>
    <path fill="#C31F1F" d="M80.2726868,85.5212572 C81.9189729,87.2882985 82.8971196,89.6416964 82.8971196,92.1660412 L82.8971196,107.278452 C82.8971196,108.625064 81.8055989,109.716585 80.4589864,109.716585 L68.2683204,109.716585 L68.2683204,101.565461 C68.2683204,98.9788195 69.295773,96.498171 71.1248157,94.6694235 L80.2726868,85.5212572 Z"/>
    <path fill="#633A42" d="M68.2683204,25.3013155 L68.2683204,4.87626642 C68.2683204,2.18304153 66.0849836,0 63.392054,0 L34.1341602,0 C23.3618511,0 14.6287993,8.73275661 14.6287993,19.5053609 L14.6287993,25.3013155 C14.6287993,27.9219101 15.0512949,30.5253805 15.8800476,33.0113435 L16.6916761,35.446229 C16.9402724,36.1920178 17.0669325,36.9729409 17.0669325,37.7591783 L17.0669325,39.0104266 L65.8298919,39.0104266 L65.8298919,37.7591783 C65.8298919,36.9729409 65.956552,36.1920178 66.2051483,35.446229 L67.0167768,33.0113434 C67.8458248,30.5250853 68.2683204,27.9216149 68.2683204,25.3013155 Z"/>
    <path fill="#6E4343" d="M26.8197606,9.90487926 C26.8197606,15.3751786 31.2543405,19.8097585 36.7246398,19.8097585 L38.0960528,19.8097585 L38.7579921,39.0101314 L65.8298919,39.0101314 L65.8298919,37.7588831 C65.8298919,36.9726456 65.956552,36.1917226 66.2051483,35.4459337 L67.0167768,33.0110482 C67.8455295,30.5250853 68.2680251,27.9216149 68.2680251,25.3010203 L68.2680251,4.87626642 C68.2680251,2.18304153 66.0846883,0 63.3917587,0 L36.7246398,0 C31.2543405,0 26.8197606,4.4345799 26.8197606,9.90487926 Z"/>
    <rect width="29.259" height="21.943" x="26.819" y="58.517" fill="#DB9D5F"/>
    <path fill="#C2814C" d="M26.8197606,66.7599137 C31.1267946,69.2550292 36.1131874,70.7061583 41.4485598,70.7061583 C46.7839322,70.7061583 51.7706203,69.2550292 56.0773591,66.7599137 L56.0773591,58.5154923 L26.8194653,58.5154923 L26.8197606,66.7599137 L26.8197606,66.7599137 Z"/>
    <path fill="#C31F1F" d="M41.4485598 80.4589864L33.672397 88.2351492C32.6272297 89.2803165 30.8997512 89.1625138 30.0063398 87.9850767L21.9434941 77.3609806 24.0524292 72.9166577C24.6748056 71.6051794 26.2980626 71.1245205 27.5339582 71.8862526L41.4485598 80.4589864zM41.4485598 80.4589864L49.2247226 88.2351492C50.2698899 89.2803165 51.9973684 89.1625138 52.8907798 87.9850767L60.9536255 77.3609806 58.8446905 72.9166577C58.222314 71.6051794 56.599057 71.1245205 55.3631614 71.8862526L41.4485598 80.4589864z"/>
    <path fill="#EDAF66" d="M41.4485598,65.8301872 L41.4485598,65.8301872 C27.9830259,65.8301872 17.0669325,54.9140938 17.0669325,41.4485598 L17.0669325,38.5920644 C17.0669325,37.2988913 17.5806588,36.0585671 18.4950325,35.1438981 L20.5148036,33.124127 C21.4291773,32.2097533 21.9429036,30.969429 21.9429036,29.6759607 L21.9429036,23.8312907 C21.9429036,22.7022738 22.7010928,21.7214699 23.7996995,21.4619495 C29.5661295,20.0999844 47.5102349,16.8738422 59.7218634,25.8551951 C60.5148914,26.438304 60.9533303,27.396374 60.9533303,28.3807209 L60.9533303,29.6759607 C60.9533303,30.9691338 61.4670566,32.209458 62.3814303,33.124127 L64.4012014,35.1438981 C65.3155751,36.0582719 65.8293014,37.2985961 65.8293014,38.5920644 L65.8293014,41.4485598 C65.8301872,54.9140938 54.9140938,65.8301872 41.4485598,65.8301872 Z"/>
    <path fill="#D89D61" d="M59.7221586,25.8554904 C51.1334816,19.5387236 39.7249195,19.2653267 31.696027,20.1300993 C28.3092716,20.4947269 25.5109395,21.0583496 23.8002899,21.4622448 C22.7016833,21.7217651 21.9434941,22.702569 21.9434941,23.8315859 L21.9434941,29.6759607 C21.9434941,30.969429 21.4297678,32.2097533 20.5150988,33.1244223 L18.4953278,35.1441933 C17.5806588,36.0588623 17.0669325,37.2991866 17.0669325,38.5926549 L17.0669325,41.4488551 C17.0669325,53.9152799 26.4291514,64.1782914 38.50231,65.6353255 C34.295364,61.2541849 31.6957317,55.3171032 31.6957317,48.7632547 L31.6957317,30.9419712 C31.6957317,28.4710658 33.5330414,26.4061223 35.9844606,26.0987723 C41.835626,25.3650884 52.552429,24.9239924 60.9533308,29.6765512 L60.9533308,28.3810161 C60.9539207,27.3966693 60.5145962,26.438304 59.7221586,25.8554904 Z"/>
    <path fill="#C31F1F" d="M2.6244328,85.5212572 C0.978146685,87.2882985 0,89.6416964 0,92.1660412 L0,107.278452 C0,108.625064 1.09152077,109.716585 2.43813321,109.716585 L14.6287993,109.716585 L14.6287993,101.565461 C14.6287993,98.9788195 13.6013467,96.498171 11.7723039,94.6694235 L2.6244328,85.5212572 Z"/>
  </g>
</svg>
