<svg xmlns="http://www.w3.org/2000/svg" width="44" height="73" viewBox="0 0 44 73">
  <g fill="none" transform="translate(0 .546)">
    <path fill="#633A42" d="M43.6437064,37.0184086 C41.5601624,31.4979176 39.9076762,22.0078575 39.550725,17.0669325 C38.8716615,7.6645602 31.7860767,0 22.2077384,0 C12.6294001,0 5.54381537,7.66485545 4.86475187,17.0669325 C4.50780066,22.0075623 2.8553144,31.4979176 0.77177043,37.0184086 C0.312664455,38.2354085 0.84262923,39.577297 2.04102869,40.1205478 C4.27367138,41.1323524 9.03390651,43.1146274 14.7749455,43.886693 L29.640236,43.886693 C35.3544078,43.1128559 40.1480056,41.1294 42.3741529,40.1205478 C43.5728476,39.577297 44.1028124,38.2354085 43.6437064,37.0184086 Z"/>
    <path fill="#6E4343" d="M42.3744481,40.120843 C43.5725523,39.5775922 44.1028124,38.2357037 43.6434111,37.0187038 C41.5601624,31.4982128 39.9073809,22.0081528 39.550725,17.0672277 C38.8719567,7.66485544 31.7860767,0.000295245 22.2080337,0.000295245 C22.1838236,0.000295245 22.1599087,0.000295245 22.1356986,0.000295245 C14.7861648,0.030410235 12.1888946,10.0536827 18.5156997,13.7935512 C18.89568,14.0182326 19.1392571,14.1262923 19.1392571,14.1262923 L24.6807105,43.8869883 L29.6405313,43.8869883 C35.354703,43.1125606 40.1483008,41.1294 42.3744481,40.120843 Z"/>
    <path fill="#DB9D5F" d="M39.8433128,48.7818551 L31.9531854,44.8370867 C30.3009943,44.0109912 29.2573033,42.3221898 29.2575985,40.475137 L29.258189,33.1604422 L14.6287993,33.1604422 L14.6287993,40.4754323 C14.6287993,42.322485 13.5854034,44.0106959 11.9332124,44.8367914 L4.04308503,48.7818551 C1.56509375,50.0207031 0,52.5533148 0,55.3235986 L0,69.7321451 C0,71.0784623 1.09152077,72.1702783 2.43813321,72.1702783 L41.4485598,72.1702783 C42.7951723,72.1702783 43.886693,71.0784623 43.886693,69.7321451 L43.886693,55.3238938 C43.886693,52.5533148 42.321304,50.0207031 39.8433128,48.7818551 Z"/>
    <path fill="#C2814C" d="M21.9434941,42.9126798 C24.5688127,42.9126798 27.0834143,42.3714957 29.3886873,41.4081112 C29.3281621,41.1007612 29.2575985,40.7951826 29.2575985,40.4748418 L29.258189,33.1601469 L14.6287993,33.1601469 L14.6287993,40.475137 C14.6287993,40.7972493 14.5582357,41.1043041 14.49712,41.4128352 C16.8038692,42.3712004 19.3172899,42.9126798 21.9434941,42.9126798 Z"/>
    <path fill="#DBDBDB" d="M39.8433128,48.7818551 L34.2224384,45.971418 C31.6160156,49.9961978 27.0955194,52.6655079 21.9434941,52.6655079 C16.7914689,52.6655079 12.2706774,49.9961978 9.66425458,45.9711227 L4.04338027,48.7818551 C1.56538899,50.0207031 0,52.5533148 0,55.3235986 L0,69.7321451 C0,71.0787575 1.09152077,72.1702783 2.43813321,72.1702783 L41.4485598,72.1702783 C42.7951723,72.1702783 43.886693,71.0787575 43.886693,69.7321451 L43.886693,55.3238938 C43.886693,52.5533148 42.321304,50.0207031 39.8433128,48.7818551 Z"/>
    <path fill="#EDAF66" d="M21.9434941,38.0364133 L21.9434941,38.0364133 C14.5056821,38.0364133 8.36458609,32.4858073 7.43604057,25.3010203 C7.30140885,24.2599864 7.80184912,23.2393244 8.73895675,22.7666372 C9.86147824,22.2003573 11.4927069,21.245535 13.0545529,19.8519786 C14.7938412,18.3001708 15.8142079,16.6636278 16.3905262,15.4622759 C16.886833,14.4277374 18.0276597,13.8425618 19.1395524,14.1262923 C27.724096,16.3158292 33.5684708,20.7820003 35.6889204,22.6054334 C36.2581527,23.0949496 36.5861699,23.8168237 36.5277114,24.565565 C35.9369262,32.1031698 29.6331502,38.0364133 21.9434941,38.0364133 Z"/>
    <path fill="#D89D61" d="M35.6886251,22.6051382 C33.5684708,20.7817051 27.7238007,16.3155339 19.1392571,14.125997 C18.0273645,13.8422666 16.8865378,14.4274422 16.3902309,15.4619806 C15.9538588,16.3719257 15.2325753,17.5310576 14.1623122,18.7143996 C14.1620169,18.717352 14.1611312,18.719714 14.1608359,18.7226664 C13.8286853,19.0991038 13.4749818,19.4764269 13.0545529,19.8519786 C11.4927069,21.2458302 9.86147824,22.2003573 8.73895675,22.7666372 C7.80184912,23.2393244 7.30170409,24.2602816 7.43604057,25.3013155 C8.27010769,31.753895 13.3193877,36.889977 19.7256137,37.8695999 C16.8065264,35.8837821 14.6290945,33.1527658 14.6290945,28.2841758 L14.6290945,24.8073706 C15.1829741,24.3984563 15.7406919,23.990723 16.3010669,23.4905779 C17.6562415,22.2812544 18.8392882,20.8826788 19.7879104,19.3769293 C26.3550449,21.4262249 30.8073395,24.8395523 32.4952552,26.2909768 C32.9573136,26.6960529 34.1040452,27.75303 35.4456385,29.0116594 C36.0228424,27.6225317 36.4045942,26.1321349 36.5271209,24.5658602 C36.5858747,23.8168237 36.2578575,23.0949496 35.6886251,22.6051382 Z"/>
    <path fill="#C1C1C1" d="M1.48626333,50.9285815 C0.547088985,52.1751059 0,53.7041798 0,55.3235986 L0,69.7321451 C0,71.0787575 1.09152077,72.1702783 2.43813321,72.1702783 L9.75253284,72.1702783 L9.75253284,59.8851338 C9.75253284,58.4038897 9.079079,57.0026569 7.92230909,56.0773591 L1.48626333,50.9285815 Z"/>
  </g>
</svg>
