<svg xmlns="http://www.w3.org/2000/svg" width="138" height="110" viewBox="0 0 138 110">
  <g fill="none">
    <path fill="#633A42" d="M95.7168802,46.3248262 L95.7168802,48.035771 C95.7168802,50.1323058 96.0549357,52.214964 96.7177607,54.2037343 L100.593147,65.8298919 L107.907546,65.8298919 L107.907546,39.0101314 L103.03128,39.0101314 C98.9917377,39.0104266 95.7168802,42.2849889 95.7168802,46.3248262 Z"/>
    <path fill="#6E4343" d="M129.100528,51.3897542 L124.974774,65.8301872 L105.469413,48.7632547 C102.776188,48.7632547 100.593147,46.5799179 100.593147,43.8869883 L100.593147,43.8869883 C100.593147,39.8474462 103.868004,36.5725886 107.907546,36.5725886 L124.974479,36.5725886 C127.667704,36.5725886 129.850745,38.7559254 129.850745,41.4488551 L129.850745,46.031648 C129.85104,47.8435665 129.598311,49.646923 129.100528,51.3897542 Z"/>
    <rect width="14.629" height="10.791" x="105.468" y="73.146" fill="#DB9D5F"/>
    <path fill="#C2814C" d="M105.469413,77.6231582 C107.730694,78.5419606 110.196581,79.0592299 112.783813,79.0592299 C115.371045,79.0592299 117.836931,78.5419606 120.098212,77.6231582 L120.098212,73.1445868 L105.469413,73.1445868 L105.469413,77.6231582 L105.469413,77.6231582 Z"/>
    <path fill="#E1E1E1" d="M131.860183,82.4200037 L120.097622,79.0592299 L112.783813,83.9130577 L105.469413,79.0592299 L93.7074427,82.4200037 C90.5672169,83.3172533 88.4024806,86.1873299 88.4024806,89.4530349 L88.4024806,107.278747 C88.4024806,108.625359 89.4940013,109.71688 90.8406138,109.71688 L134.727307,109.71688 C136.073919,109.71688 137.16544,108.625359 137.16544,107.278747 L137.16544,89.4530349 C137.16544,86.1870347 135.000408,83.3172533 131.860183,82.4200037 Z"/>
    <polygon fill="#CCC" points="115.222 109.717 110.346 109.717 111.565 83.935 114.003 83.935"/>
    <path fill="#EDAF66" d="M112.783813,75.58272 L112.783813,75.58272 C104.704433,75.58272 98.1550134,69.0330049 98.1550134,60.9539207 L98.1550134,58.0974254 C98.1550134,56.8042523 98.6687397,55.563928 99.5831135,54.649259 L104.004407,50.2279651 C104.940629,49.2917432 106.220812,48.7535116 107.5441,48.7951411 C115.337977,49.0410802 122.236672,50.7106907 126.007836,54.3938721 C126.931067,55.2955503 127.412907,56.556837 127.412907,57.8470576 L127.412907,60.9539207 C127.412907,69.0333002 120.863192,75.58272 112.783813,75.58272 Z"/>
    <path fill="#D89D61" d="M105.469413,58.7020871 C105.469413,55.8895833 107.831373,53.6539881 110.638267,53.8329066 C115.560297,54.1470473 122.864067,54.9695998 127.345001,57.1248883 C127.198855,56.0962548 126.756873,55.125194 126.007836,54.3935768 C122.236672,50.7103955 115.337977,49.040785 107.5441,48.7948459 L107.543804,48.7951412 L107.543804,48.7948459 C106.220812,48.7532164 104.940334,49.2917432 104.004407,50.2276699 L99.5834087,54.6486685 C98.6687397,55.5630423 98.1550134,56.8033665 98.1550134,58.0968349 L98.1550134,60.9533303 C98.1550134,67.6246863 102.625318,73.2417224 108.730689,75.0007921 C106.698518,72.4935716 105.469708,69.3108305 105.469708,65.8295967 L105.469413,58.7020871 L105.469413,58.7020871 Z"/>
    <path fill="#DEDEDE" d="M127.412907,96.7181286 C127.412907,94.7780737 128.183497,92.9177349 129.555205,91.5460267 L135.831228,85.2700037 C136.670019,86.4689936 137.16544,87.9124464 137.16544,89.4533301 L137.16544,107.279042 C137.16544,108.625655 136.073919,109.717175 134.727307,109.717175 L127.412907,109.717175 L127.412907,96.7181286 L127.412907,96.7181286 Z"/>
    <path fill="#ACACAC" d="M114.002879,88.8117627 L111.564746,88.8117627 C110.891587,88.8117627 110.345679,88.2658547 110.345679,87.5926961 L110.345679,83.9354963 L115.221946,83.9354963 L115.221946,87.5926961 C115.221946,88.2658547 114.676333,88.8117627 114.002879,88.8117627 Z"/>
    <path fill="#CFCFD1" d="M10.0108722 6.79019362L5.87832795 9.94665791C5.16649225 10.4904992 4.13726818 10.2726084 3.70709622 9.4866662L0 2.71669835 1.49216823.440654648C1.82313787-.0642143015 2.52847818-.150130597 2.97105043.260259953L10.0108722 6.79019362zM10.0108722 6.79019362L14.1434165 9.94695316C14.8552522 10.4907944 15.8844762 10.2729036 16.3146482 9.48696145L20.0217444 2.7169936 18.5295762.440949893C18.1986066-.0639190565 17.4932662-.149835352 17.050694.260555198L10.0108722 6.79019362z" transform="translate(102.773 77.123)"/>
    <path fill="#633A42" d="M43.6437064,74.5647152 C41.5601624,69.0442242 39.9076762,59.5541642 39.550725,54.6132391 C38.8716615,45.2108668 31.7860767,37.5463066 22.2077384,37.5463066 C12.6294001,37.5463066 5.54381537,45.2111621 4.86475187,54.6132391 C4.50780066,59.5538689 2.8553144,69.0442242 0.77177043,74.5647152 C0.312664455,75.7817151 0.84262923,77.1236037 2.04102869,77.6668545 C4.27367138,78.6786591 9.03390651,80.660934 14.7749455,81.4329997 L29.640236,81.4329997 C35.3544078,80.6591625 40.1480056,78.6757066 42.3741529,77.6668545 C43.5728476,77.1236037 44.1028124,75.7817151 43.6437064,74.5647152 Z"/>
    <path fill="#6E4343" d="M42.3744481,77.6671497 C43.5725523,77.1238989 44.1028124,75.7820104 43.6434111,74.5650105 C41.5601624,69.0445195 39.9073809,59.5544594 39.550725,54.6135344 C38.8719567,45.2111621 31.7860767,37.5466019 22.2080337,37.5466019 C22.1838236,37.5466019 22.1599087,37.5466019 22.1356986,37.5466019 C14.7861648,37.5767169 12.1888946,47.5999894 18.5156997,51.3398578 C18.89568,51.5645393 19.1392571,51.6725989 19.1392571,51.6725989 L24.6807105,81.4332949 L29.6405313,81.4332949 C35.354703,80.6588673 40.1483008,78.6757066 42.3744481,77.6671497 Z"/>
    <path fill="#DB9D5F" d="M39.8433128,86.3281618 L31.9531854,82.3833933 C30.3009943,81.5572978 29.2573033,79.8684964 29.2575985,78.0214437 L29.258189,70.7067488 L14.6287993,70.7067488 L14.6287993,78.0217389 C14.6287993,79.8687917 13.5854034,81.5570026 11.9332124,82.3830981 L4.04308503,86.3281618 C1.56509375,87.5670098 0,90.0996214 0,92.8699052 L0,107.278452 C0,108.624769 1.09152077,109.716585 2.43813321,109.716585 L41.4485598,109.716585 C42.7951723,109.716585 43.886693,108.624769 43.886693,107.278452 L43.886693,92.8702005 C43.886693,90.0996214 42.321304,87.5670098 39.8433128,86.3281618 Z"/>
    <path fill="#C2814C" d="M21.9434941,80.4589864 C24.5688127,80.4589864 27.0834143,79.9178023 29.3886873,78.9544179 C29.3281621,78.6470679 29.2575985,78.3414893 29.2575985,78.0211485 L29.258189,70.7064536 L14.6287993,70.7064536 L14.6287993,78.0214437 C14.6287993,78.343556 14.5582357,78.6506108 14.49712,78.9591418 C16.8038692,79.9175071 19.3172899,80.4589864 21.9434941,80.4589864 Z"/>
    <path fill="#DBDBDB" d="M39.8433128,86.3281618 L34.2224384,83.5177246 C31.6160156,87.5425045 27.0955194,90.2118145 21.9434941,90.2118145 C16.7914689,90.2118145 12.2706774,87.5425045 9.66425458,83.5174294 L4.04338027,86.3281618 C1.56538899,87.5670098 0,90.0996214 0,92.8699052 L0,107.278452 C0,108.625064 1.09152077,109.716585 2.43813321,109.716585 L41.4485598,109.716585 C42.7951723,109.716585 43.886693,108.625064 43.886693,107.278452 L43.886693,92.8702005 C43.886693,90.0996214 42.321304,87.5670098 39.8433128,86.3281618 Z"/>
    <path fill="#EDAF66" d="M21.9434941,75.58272 L21.9434941,75.58272 C14.5056821,75.58272 8.36458609,70.032114 7.43604057,62.8473269 C7.30140885,61.8062931 7.80184912,60.7856311 8.73895675,60.3129438 C9.86147824,59.7466639 11.4927069,58.7918416 13.0545529,57.3982852 C14.7938412,55.8464775 15.8142079,54.2099344 16.3905262,53.0085825 C16.886833,51.9740441 18.0276597,51.3888685 19.1395524,51.6725989 C27.724096,53.8621358 33.5684708,58.328307 35.6889204,60.1517401 C36.2581527,60.6412563 36.5861699,61.3631303 36.5277114,62.1118716 C35.9369262,69.6494765 29.6331502,75.58272 21.9434941,75.58272 Z"/>
    <path fill="#D89D61" d="M35.6886251,60.1514448 C33.5684708,58.3280117 27.7238007,53.8618406 19.1392571,51.6723037 C18.0273645,51.3885732 16.8865378,51.9737488 16.3902309,53.0082873 C15.9538588,53.9182324 15.2325753,55.0773643 14.1623122,56.2607062 C14.1620169,56.2636587 14.1611312,56.2660206 14.1608359,56.2689731 C13.8286853,56.6454105 13.4749818,57.0227336 13.0545529,57.3982852 C11.4927069,58.7921369 9.86147824,59.7466639 8.73895675,60.3129438 C7.80184912,60.7856311 7.30170409,61.8065883 7.43604057,62.8476222 C8.27010769,69.3002016 13.3193877,74.4362837 19.7256137,75.4159066 C16.8065264,73.4300887 14.6290945,70.6990725 14.6290945,65.8304824 L14.6290945,62.3536773 C15.1829741,61.944763 15.7406919,61.5370296 16.3010669,61.0368846 C17.6562415,59.8275611 18.8392882,58.4289855 19.7879104,56.923236 C26.3550449,58.9725315 30.8073395,62.385859 32.4952552,63.8372834 C32.9573136,64.2423596 34.1040452,65.2993367 35.4456385,66.5579661 C36.0228424,65.1688384 36.4045942,63.6784416 36.5271209,62.1121669 C36.5858747,61.3631303 36.2578575,60.6412563 35.6886251,60.1514448 Z"/>
    <path fill="#C1C1C1" d="M1.48626333,88.4748882 C0.547088985,89.7214126 0,91.2504864 0,92.8699052 L0,107.278452 C0,108.625064 1.09152077,109.716585 2.43813321,109.716585 L9.75253284,109.716585 L9.75253284,97.4314405 C9.75253284,95.9501963 9.079079,94.5489636 7.92230909,93.6236657 L1.48626333,88.4748882 Z"/>
    <path fill="#E53737" d="M103.611473,83.0007506 L83.2115193,75.5824248 L68.58272,80.4589864 L53.9539207,75.5824248 L33.5539675,83.0010459 C29.6998392,84.4025739 27.1341602,88.0653834 27.1341602,92.1663364 L27.1341602,107.278747 C27.1341602,108.625064 28.2256809,109.71688 29.5722934,109.71688 L107.593147,109.71688 C108.939759,109.71688 110.03128,108.625064 110.03128,107.278747 L110.03128,92.1663364 C110.03128,88.0650881 107.465896,84.4022786 103.611473,83.0007506 Z"/>
    <polygon fill="#FFC600" points="66.029 85.336 63.706 109.717 73.459 109.717 71.137 85.336"/>
    <path fill="#E1B005" d="M71.1424941,88.6851026 L66.0229458,88.6851026 C65.0802286,88.6851026 64.3161345,87.9210085 64.3161345,86.9782913 L64.3161345,80.4589864 L72.8490103,80.4589864 L72.8490103,86.9782913 C72.8493055,87.9207133 72.0852114,88.6851026 71.1424941,88.6851026 Z"/>
    <path fill="#C31F1F" d="M107.406847,85.5212572 C109.053133,87.2882985 110.03128,89.6416964 110.03128,92.1660412 L110.03128,107.278452 C110.03128,108.625064 108.939759,109.716585 107.593147,109.716585 L95.4024806,109.716585 L95.4024806,101.565461 C95.4024806,98.9788195 96.4299332,96.498171 98.2589759,94.6694235 L107.406847,85.5212572 Z"/>
    <path fill="#633A42" d="M95.4024806,25.3013155 L95.4024806,4.87626642 C95.4024806,2.18304153 93.2191438,0 90.5262141,0 L61.2683204,0 C50.4960113,0 41.7629594,8.73275661 41.7629594,19.5053609 L41.7629594,25.3013155 C41.7629594,27.9219101 42.185455,30.5253805 43.0142078,33.0113435 L43.8258363,35.446229 C44.0744325,36.1920178 44.2010927,36.9729409 44.2010927,37.7591783 L44.2010927,39.0104266 L92.9640521,39.0104266 L92.9640521,37.7591783 C92.9640521,36.9729409 93.0907122,36.1920178 93.3393085,35.446229 L94.150937,33.0113434 C94.979985,30.5250853 95.4024806,27.9216149 95.4024806,25.3013155 Z"/>
    <path fill="#6E4343" d="M53.9539207,9.90487926 C53.9539207,15.3751786 58.3885006,19.8097585 63.8588,19.8097585 L65.230213,19.8097585 L65.8921523,39.0101314 L92.9640521,39.0101314 L92.9640521,37.7588831 C92.9640521,36.9726456 93.0907122,36.1917226 93.3393085,35.4459337 L94.150937,33.0110482 C94.9796897,30.5250853 95.4021853,27.9216149 95.4021853,25.3010203 L95.4021853,4.87626642 C95.4021853,2.18304153 93.2188485,0 90.5259189,0 L63.8588,0 C58.3885006,0 53.9539207,4.4345799 53.9539207,9.90487926 Z"/>
    <rect width="29.259" height="21.943" x="53.953" y="58.517" fill="#DB9D5F"/>
    <path fill="#C2814C" d="M53.9539207,66.7599137 C58.2609548,69.2550292 63.2473476,70.7061583 68.58272,70.7061583 C73.9180924,70.7061583 78.9047804,69.2550292 83.2115193,66.7599137 L83.2115193,58.5154923 L53.9536255,58.5154923 L53.9539207,66.7599137 L53.9539207,66.7599137 Z"/>
    <path fill="#C31F1F" d="M19.781415 9.06667871L12.0052522 16.8428415C10.9600849 17.8880088 9.2326064 17.7702061 8.33919503 16.592769L.27634932 5.96867292 2.38528436 1.52434994C3.00766082.212871645 4.63091783-.267787215 5.8668134.493944885L19.781415 9.06667871zM19.781415 9.06667871L27.5575778 16.8428415C28.6027451 17.8880088 30.3302236 17.7702061 31.223635 16.592769L39.2864807 5.96867292 37.1775456 1.52434994C36.5551692.212871645 34.9319122-.267787215 33.6960166.493944885L19.781415 9.06667871z" transform="translate(48.801 71.392)"/>
    <path fill="#EDAF66" d="M68.58272,65.8301872 L68.58272,65.8301872 C55.117186,65.8301872 44.2010927,54.9140938 44.2010927,41.4485598 L44.2010927,38.5920644 C44.2010927,37.2988913 44.714819,36.0585671 45.6291927,35.1438981 L47.6489638,33.124127 C48.5633375,32.2097533 49.0770638,30.969429 49.0770638,29.6759607 L49.0770638,23.8312907 C49.0770638,22.7022738 49.835253,21.7214699 50.9338596,21.4619495 C56.7002897,20.0999844 74.6443951,16.8738422 86.8560235,25.8551951 C87.6490516,26.438304 88.0874904,27.396374 88.0874904,28.3807209 L88.0874904,29.6759607 C88.0874904,30.9691338 88.6012167,32.209458 89.5155905,33.124127 L91.5353615,35.1438981 C92.4497353,36.0582719 92.9634616,37.2985961 92.9634616,38.5920644 L92.9634616,41.4485598 C92.9643473,54.9140938 82.048254,65.8301872 68.58272,65.8301872 Z"/>
    <path fill="#D89D61" d="M86.8563188,25.8554904 C78.2676417,19.5387236 66.8590797,19.2653267 58.8301872,20.1300993 C55.4434318,20.4947269 52.6450997,21.0583496 50.9344501,21.4622448 C49.8358435,21.7217651 49.0776543,22.702569 49.0776543,23.8315859 L49.0776543,29.6759607 C49.0776543,30.969429 48.563928,32.2097533 47.649259,33.1244223 L45.629488,35.1441933 C44.714819,36.0588623 44.2010927,37.2991866 44.2010927,38.5926549 L44.2010927,41.4488551 C44.2010927,53.9152799 53.5633116,64.1782914 65.6364701,65.6353255 C61.4295241,61.2541849 58.8298919,55.3171032 58.8298919,48.7632547 L58.8298919,30.9419712 C58.8298919,28.4710658 60.6672016,26.4061223 63.1186208,26.0987723 C68.9697862,25.3650884 79.6865892,24.9239924 88.087491,29.6765512 L88.087491,28.3810161 C88.0880809,27.3966693 87.6487564,26.438304 86.8563188,25.8554904 Z"/>
    <path fill="#C31F1F" d="M29.758593,85.5212572 C28.1123069,87.2882985 27.1341602,89.6416964 27.1341602,92.1660412 L27.1341602,107.278452 C27.1341602,108.625064 28.2256809,109.716585 29.5722934,109.716585 L41.7629594,109.716585 L41.7629594,101.565461 C41.7629594,98.9788195 40.7355068,96.498171 38.9064641,94.6694235 L29.758593,85.5212572 Z"/>
  </g>
</svg>
