<svg xmlns="http://www.w3.org/2000/svg" width="50" height="74" viewBox="0 0 50 74">
  <g fill="none" transform="translate(.402 .573)">
    <path fill="#633A42" d="M7.31439963,9.75223759 L7.31439963,11.4631824 C7.31439963,13.5597171 7.65245516,15.6423753 8.31528018,17.6311457 L12.1906661,29.2573033 L19.5050657,29.2573033 L19.5050657,2.43754272 L14.6287993,2.43754272 C10.5892572,2.43783796 7.31439963,5.71240026 7.31439963,9.75223759 Z"/>
    <path fill="#6E4343" d="M40.698047,14.8171656 L36.5722934,29.2575985 L17.0669325,12.190666 C14.3737076,12.190666 12.1906661,10.0073293 12.1906661,7.31439963 L12.1906661,7.31439963 C12.1906661,3.27485754 15.4655236,0 19.5050657,0 L36.5719982,0 C39.265223,0 41.4482648,2.18333678 41.4482648,4.87626642 L41.4482648,9.45905931 C41.4485598,11.2709779 41.1958301,13.0743343 40.698047,14.8171656 Z"/>
    <rect width="14.629" height="10.791" x="17.065" y="36.573" fill="#DB9D5F"/>
    <path fill="#C2814C" d="M17.0669325,41.0505696 C19.3282139,41.969372 21.7941002,42.4866412 24.3813321,42.4866412 C26.968564,42.4866412 29.4344503,41.969372 31.6957317,41.0505696 L31.6957317,36.5719982 L17.0669325,36.5719982 L17.0669325,41.0505696 L17.0669325,41.0505696 Z"/>
    <path fill="#E1E1E1" d="M43.457702,45.8474151 L31.6951412,42.4866412 L24.3813321,47.340469 L17.0669325,42.4866412 L5.30496216,45.8474151 C2.16473634,46.7446646 0,49.6147413 0,52.8804462 L0,70.7061583 C0,72.0527708 1.09152077,73.1442915 2.43813321,73.1442915 L46.3248262,73.1442915 C47.6714387,73.1442915 48.7629594,72.0527708 48.7629594,70.7061583 L48.7629594,52.8804462 C48.7629594,49.614446 46.5979279,46.7446646 43.457702,45.8474151 Z"/>
    <polygon fill="#CCC" points="26.819 73.144 21.943 73.144 23.162 47.363 25.6 47.363"/>
    <path fill="#EDAF66" d="M24.3813321,39.0101314 L24.3813321,39.0101314 C16.3019527,39.0101314 9.75253284,32.4604163 9.75253284,24.3813321 L9.75253284,21.5248367 C9.75253284,20.2316636 10.2662591,18.9913394 11.1806329,18.0766704 L15.6019268,13.6553765 C16.5381487,12.7191546 17.818331,12.180923 19.1416191,12.2225525 C26.9354966,12.4684916 33.8341913,14.1381021 37.6053557,17.8212834 C38.5285868,18.7229617 39.0104266,19.9842483 39.0104266,21.274469 L39.0104266,24.3813321 C39.0104266,32.4607115 32.4607115,39.0101314 24.3813321,39.0101314 Z"/>
    <path fill="#D89D61" d="M17.0669325,22.1294985 C17.0669325,19.3169946 19.4288925,17.0813995 22.2357867,17.2603179 C27.1578161,17.5744586 34.4615869,18.3970112 38.9425203,20.5522997 C38.796374,19.5236661 38.3543922,18.5526053 37.6053557,17.8209882 C33.8341913,14.1378068 26.9354966,12.4681963 19.1416191,12.2222573 L19.1413238,12.2225525 L19.1413238,12.2222573 C17.818331,12.1806277 16.5378534,12.7191546 15.6019268,13.6550812 L11.1809282,18.0760799 C10.2662591,18.9904536 9.75253284,20.2307779 9.75253284,21.5242462 L9.75253284,24.3807416 C9.75253284,31.0520976 14.2228374,36.6691338 20.3282087,38.4282035 C18.2960374,35.9209829 17.0672277,32.7382418 17.0672277,29.257008 L17.0669325,22.1294985 L17.0669325,22.1294985 Z"/>
    <path fill="#DEDEDE" d="M39.0104266,60.1455399 C39.0104266,58.205485 39.7810161,56.3451463 41.1527243,54.973438 L47.4287473,48.6974151 C48.2675383,49.896405 48.7629594,51.3398578 48.7629594,52.8807415 L48.7629594,70.7064536 C48.7629594,72.053066 47.6714387,73.1445868 46.3248262,73.1445868 L39.0104266,73.1445868 L39.0104266,60.1455399 L39.0104266,60.1455399 Z"/>
    <path fill="#ACACAC" d="M25.6003987,52.2391741 L23.1622655,52.2391741 C22.4891069,52.2391741 21.9431989,51.6932661 21.9431989,51.0201075 L21.9431989,47.3629077 L26.8194653,47.3629077 L26.8194653,51.0201075 C26.8194653,51.6932661 26.2738526,52.2391741 25.6003987,52.2391741 Z"/>
    <path fill="#CFCFD1" d="M24.3813321 47.3407643L20.2487878 50.4972286C19.5369521 51.0410699 18.5077281 50.8231791 18.0775561 50.0372369L14.3704599 43.267269 15.8626281 40.9912253C16.1935978 40.4863564 16.8989381 40.4004401 17.3415103 40.8108306L24.3813321 47.3407643zM24.3813321 47.3407643L28.5138764 50.4975238C29.2257121 51.0413651 30.2549361 50.8234743 30.6851081 50.0375321L34.3922043 43.2675643 32.9000361 40.9915206C32.5690664 40.4866516 31.8637261 40.4007353 31.4211539 40.8111259L24.3813321 47.3407643z"/>
  </g>
</svg>
