<svg xmlns="http://www.w3.org/2000/svg" width="110" height="137" viewBox="0 0 110 137">
  <g fill="none" fill-rule="evenodd" transform="translate(0 3)">
    <path fill="#121212" d="M55.0001478,133.846154 C24.624594,133.846154 0,131.194164 0,127.922703 C0,124.651243 24.624594,122 55.0001478,122 C85.3757016,122 110,124.651243 110,127.922703 C110,131.194164 85.3757016,133.846154 55.0001478,133.846154"/>
    <g transform="translate(4)">
      <path fill="#FFFFFE" d="M68.5658025,3.141855 L84.42693,3.141855 C87.4651275,3.141855 89.928045,5.6047725 89.928045,8.64297 L89.928045,92.737125 C89.928045,95.7753225 87.4651275,98.23824 84.42693,98.23824 L5.501115,98.23824 C2.4629175,98.23824 0,95.7753225 0,92.737125 L0,8.64297 C0,5.6047725 2.4629175,3.141855 5.501115,3.141855 L68.5658025,3.141855"/>
      <path fill="#FFC600" d="M68.5658025,3.141855 L84.42693,3.141855 C87.4651275,3.141855 89.928045,5.6047725 89.928045,8.64297 L89.928045,27.9465975 L0,27.9465975 L0,8.64297 C0,5.6047725 2.4629175,3.141855 5.501115,3.141855 L68.5658025,3.141855"/>
      <line x1="89.928" y1="29.477" y2="29.477" stroke="#DAAC0A" stroke-width="4.652"/>
      <line x1="62.157" x2="27.771" y1="17.096" y2="17.096" stroke="#D8A800" stroke-linecap="round" stroke-width="6.885"/>
      <path stroke="#4B4B48" stroke-linecap="round" stroke-width="4.652" d="M70.80534,8.5775625 L70.80534,0 M19.122705,8.5775625 L19.122705,0"/>
      <path fill="#E0DECB" d="M39.841965 49.300425L30.2270625 49.300425C29.7818325 49.300425 29.42037 48.939345 29.42037 48.4937325L29.42037 38.87883C29.42037 38.4332175 29.7818325 38.0721375 30.2270625 38.0721375L39.841965 38.0721375C40.2875775 38.0721375 40.6486575 38.4332175 40.6486575 38.87883L40.6486575 48.4937325C40.6486575 48.939345 40.2875775 49.300425 39.841965 49.300425M59.7499425 49.300425L50.1354225 49.300425C49.68981 49.300425 49.32873 48.939345 49.32873 48.4937325L49.32873 38.87883C49.32873 38.4332175 49.68981 38.0721375 50.1354225 38.0721375L59.7499425 38.0721375C60.195555 38.0721375 60.5570175 38.4332175 60.5570175 38.87883L60.5570175 48.4937325C60.5570175 48.939345 60.195555 49.300425 59.7499425 49.300425M79.6583025 49.300425L70.0434 49.300425C69.5977875 49.300425 69.2367075 48.939345 69.2367075 48.4937325L69.2367075 38.87883C69.2367075 38.4332175 69.5977875 38.0721375 70.0434 38.0721375L79.6583025 38.0721375C80.103915 38.0721375 80.464995 38.4332175 80.464995 38.87883L80.464995 48.4937325C80.464995 48.939345 80.103915 49.300425 79.6583025 49.300425"/>
      <path fill="#181818" d="M19.9339875,69.5549475 L10.319085,69.5549475 C9.8734725,69.5549475 9.5123925,69.1938675 9.5123925,68.748255 L9.5123925,59.1333525 C9.5123925,58.68774 9.8734725,58.32666 10.319085,58.32666 L19.9339875,58.32666 C20.3796,58.32666 20.74068,58.68774 20.74068,59.1333525 L20.74068,68.748255 C20.74068,69.1938675 20.3796,69.5549475 19.9339875,69.5549475"/>
      <path fill="#E0DECB" d="M39.841965 69.5549475L30.2270625 69.5549475C29.7818325 69.5549475 29.42037 69.1938675 29.42037 68.748255L29.42037 59.1333525C29.42037 58.68774 29.7818325 58.32666 30.2270625 58.32666L39.841965 58.32666C40.2875775 58.32666 40.6486575 58.68774 40.6486575 59.1333525L40.6486575 68.748255C40.6486575 69.1938675 40.2875775 69.5549475 39.841965 69.5549475M59.7499425 69.5549475L50.1354225 69.5549475C49.68981 69.5549475 49.32873 69.1938675 49.32873 68.748255L49.32873 59.1333525C49.32873 58.68774 49.68981 58.32666 50.1354225 58.32666L59.7499425 58.32666C60.195555 58.32666 60.5570175 58.68774 60.5570175 59.1333525L60.5570175 68.748255C60.5570175 69.1938675 60.195555 69.5549475 59.7499425 69.5549475M79.6583025 69.5549475L70.0434 69.5549475C69.5977875 69.5549475 69.2367075 69.1938675 69.2367075 68.748255L69.2367075 59.1333525C69.2367075 58.68774 69.5977875 58.32666 70.0434 58.32666L79.6583025 58.32666C80.103915 58.32666 80.464995 58.68774 80.464995 59.1333525L80.464995 68.748255C80.464995 69.1938675 80.103915 69.5549475 79.6583025 69.5549475M19.9339875 89.80947L10.319085 89.80947C9.8734725 89.80947 9.5123925 89.44839 9.5123925 89.0027775L9.5123925 79.387875C9.5123925 78.942645 9.8734725 78.5811825 10.319085 78.5811825L19.9339875 78.5811825C20.3796 78.5811825 20.74068 78.942645 20.74068 79.387875L20.74068 89.0027775C20.74068 89.44839 20.3796 89.80947 19.9339875 89.80947M39.841965 89.80947L30.2270625 89.80947C29.7818325 89.80947 29.42037 89.44839 29.42037 89.0027775L29.42037 79.387875C29.42037 78.942645 29.7818325 78.5811825 30.2270625 78.5811825L39.841965 78.5811825C40.2875775 78.5811825 40.6486575 78.942645 40.6486575 79.387875L40.6486575 89.0027775C40.6486575 89.44839 40.2875775 89.80947 39.841965 89.80947M59.7499425 89.80947L50.1354225 89.80947C49.68981 89.80947 49.32873 89.44839 49.32873 89.0027775L49.32873 79.387875C49.32873 78.942645 49.68981 78.5811825 50.1354225 78.5811825L59.7499425 78.5811825C60.195555 78.5811825 60.5570175 78.942645 60.5570175 79.387875L60.5570175 89.0027775C60.5570175 89.44839 60.195555 89.80947 59.7499425 89.80947"/>
      <path fill="#878984" d="M73.98927,108.990697 C58.325895,108.990697 45.582525,96.24771 45.582525,80.584335 C45.582525,64.92096 58.325895,52.17759 73.98927,52.17759 C89.652645,52.17759 102.395633,64.92096 102.395633,80.584335 C102.395633,96.24771 89.652645,108.990697 73.98927,108.990697"/>
      <path fill="#F4F4F4" d="M96.246945,80.584335 C96.246945,92.8767375 86.2816725,102.841627 73.98927,102.841627 C61.6968675,102.841627 51.731595,92.8767375 51.731595,80.584335 C51.731595,68.2919325 61.6968675,58.32666 73.98927,58.32666 C86.2816725,58.32666 96.246945,68.2919325 96.246945,80.584335"/>
      <path fill="#DE4345" d="M84.1488525,91.0369125 C83.81493,91.0369125 83.4764175,90.9519975 83.16621,90.7729875 L71.3810025,83.9767275 L71.3810025,65.971305 C71.3810025,64.88271 72.2638125,64.0002825 73.3524075,64.0002825 C74.441385,64.0002825 75.3238125,64.88271 75.3238125,65.971305 L75.3238125,81.69894 L85.13532,87.357645 C86.0789475,87.90156 86.40216,89.1068175 85.858245,90.0500625 C85.49334,90.6831 84.8304675,91.0369125 84.1488525,91.0369125"/>
      <path stroke="#E67D7C" stroke-width=".5" d="M84.1488525,91.0369125 C83.81493,91.0369125 83.4764175,90.9519975 83.16621,90.7729875 L71.3810025,83.9767275 L71.3810025,65.971305 C71.3810025,64.88271 72.2638125,64.0002825 73.3524075,64.0002825 C74.441385,64.0002825 75.3238125,64.88271 75.3238125,65.971305 L75.3238125,81.69894 L85.13532,87.357645 C86.0789475,87.90156 86.40216,89.1068175 85.858245,90.0500625 C85.49334,90.6831 84.8304675,91.0369125 84.1488525,91.0369125 Z"/>
    </g>
  </g>
</svg>
