<svg xmlns="http://www.w3.org/2000/svg" width="76" height="23" viewBox="0 0 76 23">
  <path fill="#FFF" d="M29.6605308,7.00321101 C30.5367569,6.99727936 31.4069514,7.15265436 32.2300151,7.46199762 C33.1895709,7.88109112 34.0382294,8.52950515 34.705637,9.35348628 C35.1716353,8.81039763 35.4602641,8.13052163 35.5308442,7.40967985 L36.2309016,7.40967985 L36.2309016,13.2089036 L35.5308442,13.2089036 C35.2198896,11.6927735 34.4779838,10.3059769 33.3993847,9.22470408 C32.4443092,8.28366494 31.1705235,7.76253863 29.8482557,7.77187981 C28.56938,7.77187981 27.6307556,8.12603088 27.0323825,8.8423819 C26.4623446,9.48210097 26.1432188,10.3166938 26.1367784,11.1846083 C26.12432,12.1779274 26.5360707,13.1268415 27.2631277,13.7803746 C28.0022944,14.4967257 29.3437451,15.3056389 31.2796579,16.195041 C32.6605076,16.8055109 34.0090521,17.4906211 35.3196538,18.2475074 C36.1645526,18.7697393 36.8616957,19.5107048 37.3416071,20.3965605 C37.8703409,21.3623843 38.1402736,22.4553979 38.1237941,23.5637979 C38.1919106,25.3208157 37.5121421,27.0210656 36.2621891,28.2200796 C35.0341555,29.408632 33.3941701,30.0015668 31.3422329,29.9988838 C29.064874,30.0387087 26.8934133,29.0110533 25.440632,27.2059197 C25.0352864,27.8602983 24.7687468,28.5953568 24.658445,29.3630216 L23.8567033,29.3428994 L23.8567033,22.2236581 L24.6388903,22.2236581 C25.5384054,26.8598175 27.6698649,29.1778972 31.033269,29.1778972 C32.5481045,29.1778972 33.721385,28.7352084 34.5531105,27.8498307 C35.3383141,27.0667766 35.7861933,25.9928433 35.7967878,24.8677177 C35.8222188,23.82107 35.4258777,22.8101987 34.701726,22.0747536 C33.9899359,21.3423048 32.6641289,20.5481479 30.7243052,19.6922828 C29.3739323,19.1223588 28.0666734,18.4497588 26.8133702,17.6800608 C25.956149,17.12826 25.2495471,16.360986 24.7601293,15.4505189 C24.2735282,14.5570023 24.0202116,13.548991 24.0248735,12.5247481 C23.9871535,11.0363445 24.5675037,9.60190809 25.620535,8.58079304 C26.7078963,7.51998448 28.1630037,6.95177814 29.6605308,7.00321101 Z M47.2558273,7.00723545 C48.1320255,7.00164933 49.0021609,7.15701377 49.8253116,7.46602207 C50.7848674,7.88511556 51.6335259,8.53352959 52.3009334,9.35751073 C52.7653703,8.8133991 53.0537702,8.1340623 53.1261407,7.41370429 L53.826198,7.41370429 L53.826198,13.212928 L53.1261407,13.212928 C52.8154431,11.6958127 52.0719433,10.308582 50.9907702,9.22872852 C50.0366681,8.28866195 48.7644698,7.76761123 47.4435522,7.77590425 C46.1646764,7.77590425 45.226052,8.13005532 44.627679,8.84640634 C44.057641,9.48612542 43.7385153,10.3207182 43.7320749,11.1886327 C43.7196164,12.1819518 44.1313671,13.1308659 44.8584242,13.7843991 C45.5975909,14.5007501 46.9390416,15.3096633 48.8749544,16.1990655 C50.2549986,16.8084975 51.6022942,17.4936364 52.9110393,18.2515319 C53.7579478,18.7724659 54.4566522,19.5136571 54.9369036,20.4005849 C55.4558949,21.369377 55.7175909,22.461811 55.695625,23.5678223 C55.7594313,25.3086233 55.0893156,26.9929219 53.8574855,28.187884 C52.6294519,29.3764365 50.9894665,29.9693712 48.9375293,29.9666882 C46.6601704,30.0065131 44.4887098,28.9788578 43.0359285,27.1737241 C42.632152,27.8289062 42.3657403,28.5636119 42.2537415,29.3308261 L41.4559107,29.3428994 L41.4559107,22.2236581 L42.2380977,22.2236581 C43.1428273,26.8598175 45.2755906,29.1778972 48.6363873,29.1778972 C50.1512228,29.1778972 51.3245033,28.7352084 52.1562288,27.8498307 C52.9414324,27.0667766 53.3893117,25.9928433 53.3999061,24.8677177 C53.4253371,23.82107 53.028996,22.8101987 52.3048443,22.0747536 C51.5904469,21.3423048 50.2633363,20.5481479 48.3235125,19.6922828 C46.9731397,19.1223588 45.6658808,18.4497588 44.4125776,17.6800608 C43.5553563,17.12826 42.8487545,16.360986 42.3593367,15.4505189 C41.8720257,14.5585718 41.617378,13.5520115 41.62017,12.5287726 C41.58245,11.040369 42.1628001,9.60593254 43.2158315,8.58481749 C44.3031928,7.52400893 45.7583001,6.95580259 47.2558273,7.00723545 Z M11.4473067,7.11589544 L18.6395161,24.7027155 L19.6133389,27.0127464 C19.8055091,27.4947787 20.113713,27.9185674 20.508943,28.2442262 C21.0117513,28.5899393 21.5980577,28.7850091 22.2023778,28.8076484 L22.2023778,29.5602194 L13.7430255,29.5602194 L13.7430255,28.8076484 C14.4510786,28.8506341 15.1611046,28.7703596 15.8431976,28.5702062 C16.2075016,28.4170627 16.4303563,28.0354042 16.3907285,27.6325107 C16.2318211,26.8929152 15.9876125,26.1755045 15.6632946,25.495531 L14.01288,21.4066959 L5.83902592,21.4066959 L5.28367315,22.8112269 C4.45976952,24.8475955 4.0478177,26.175662 4.0478177,26.7954264 C4.00968379,27.3768856 4.25075997,27.940688 4.69312197,28.3045929 C5.18427962,28.6662902 5.77928399,28.8477046 6.38264588,28.8197217 L6.38264588,29.5722927 L0,29.5722927 L0,28.8197217 C0.805402478,28.740454 1.55827975,28.3730276 2.12754863,27.7814152 C2.59294989,27.2421397 3.15221359,26.1112709 3.80925066,24.3767356 C3.85878917,24.2157578 4.11299995,23.5852616 4.57188298,22.4852469 L10.8293789,7.11589544 L11.4473067,7.11589544 Z M58.2142671,7.42175318 L74.8240079,7.42577763 L75,12.9473147 L74.2530114,12.9473147 C74.1535234,11.881895 73.8133442,10.8551667 73.2596339,9.94910399 C72.8918229,9.29047773 72.326474,8.77226187 71.6483287,8.47213306 C70.7205741,8.23398769 69.7642471,8.1350372 68.8089899,8.17834865 L64.6047348,8.17834865 L64.6047348,17.5673764 L66.6188664,17.5673764 C67.9225113,17.5673764 68.7881316,17.3420075 69.2157272,16.8912698 C69.6433227,16.4405321 69.8571205,15.5336907 69.8571205,14.1707457 L70.6393075,14.1707457 L70.6393075,21.978167 L69.8571205,21.978167 C69.8812788,21.2191846 69.7875406,20.4610998 69.5794441,19.7325273 C69.453719,19.2625544 69.1586127,18.8595782 68.7542368,18.6056829 C68.3892162,18.4044607 67.6774261,18.3038496 66.6188664,18.3038496 L64.6047348,18.3038496 L64.6047348,23.7931912 C64.5787186,24.9336693 64.6205133,26.0747171 64.7298848,27.2099441 C64.7786255,27.6852555 65.0111974,28.1203863 65.375189,28.4172773 C65.7193513,28.6788662 66.3802993,28.8197217 67.3658549,28.8197217 L68.0971998,28.8197217 L68.0971998,29.5722927 L58.096939,29.5722927 L58.096939,28.8197217 L58.7657089,28.8197217 C59.6847786,28.8197217 60.3300829,28.6989884 60.6781561,28.4615462 C61.0439672,28.1999098 61.2898433,27.7956717 61.3586588,27.3427508 C61.4959588,26.1705682 61.5469462,24.9893819 61.5111853,23.809289 L61.5111853,12.9432903 C61.5454096,11.8033729 61.4944172,10.6624348 61.3586588,9.53056182 C61.3061099,9.09901198 61.075187,8.71177109 60.7250873,8.46810861 C60.4004797,8.2749353 59.6965114,8.1743242 58.6053606,8.1743242 L58.2142671,8.1743242 L58.2142671,7.42175318 Z M9.93377483,11.2329016 L6.14016791,20.6702227 L13.7430255,20.6702227 L9.93377483,11.2329016 Z" transform="translate(.784 -7)"/>
</svg>
