<svg xmlns="http://www.w3.org/2000/svg" xmlns:xlink="http://www.w3.org/1999/xlink" width="197" height="17" viewBox="0 0 197 17">
  <defs>
    <polygon id="byznysvcesku-a" points="0 0 2.329 0 2.329 7.438 0 7.438"/>
  </defs>
  <g fill="none" fill-rule="evenodd" transform="translate(.784)">
    <path fill="#FFF" fill-rule="nonzero" d="M8.69356284 16.4715003L8.69356284 9.98661528 14.6536932.287609851 11.7319915.287609851 7.31919823 7.52782013 2.92170165.287609851 0 .287609851 5.91306305 9.97551785 5.91306305 16.4715003 8.69356284 16.4715003zM28.8514702 16.4715L28.8514702 13.994671 20.8474428 13.9946714 28.6024842.783761496 28.6024842.287609499 17.0265205.287609499 17.0265205 2.76466952 24.4447955 2.76466952 16.6431576 16.0484067 16.6431576 16.4715 28.8514702 16.4715zM35.1104081 16.4715003L35.1104081 4.91527781 43.6688881 16.4715003 45.9377667 16.4715003 45.9377667.287609851 43.2883491.287609851 43.2883491 11.6530936 34.9049595.287609851 32.4609905.287609851 32.4609905 16.4715003 35.1104081 16.4715003zM58.1403618 16.4715003L58.1403618 9.98661528 64.1004922.287609851 61.1787905.287609851 56.7659972 7.52782013 52.3685006.287609851 49.446799.287609851 55.359862 9.97551785 55.359862 16.4715003 58.1403618 16.4715003zM72.0813867 16.7195765C75.4168099 16.7195765 78.0768175 14.9989974 78.0768175 11.7610633 78.0768175 8.28268288 75.0605105 7.56226847 72.4988733 6.9380327 70.5429922 6.47933509 68.8497467 6.07311927 68.8497467 4.57842152 68.8497467 3.26174651 70.207167 2.52283615 71.8491094 2.52283615 73.5689481 2.52283615 74.9263685 3.3972288 74.9263685 5.01145645L77.5993197 5.01145645C77.5993197 1.95894354 75.4843513.0462389815 71.9098262.0462389815 68.3993127.0462389815 66.1466724 1.77051695 66.1466724 4.69101575 66.1466724 8.03067708 69.0384866 8.71456209 71.5596459 9.31567802 73.5458852 9.77460706 75.3097317 10.1805915 75.3097317 11.7908884 75.3097317 13.2793441 73.8111095 14.1833301 72.0578531 14.1833301 70.1266824 14.1833301 68.6111159 13.1836279 68.6111159 11.3747312L65.8677989 11.3747312C65.8677989 14.6815624 68.386134 16.7195765 72.0813867 16.7195765zM88.7593744 16.4715003L95.176528.287609851 92.2209382.287609851 87.4866753 12.6703668 82.6516883.287609851 79.6657396.287609851 86.2344499 16.4715003 88.7593744 16.4715003zM105.328637 16.7588812C109.296174 16.7591112 112.419794 14.3042464 113.276654 10.4984889L110.533102 10.4984889C109.790851 12.7929023 107.845325 14.1895722 105.328637 14.1895722 102.02922 14.1895722 99.6099618 11.7631447 99.6099618 8.38626038 99.6099618 5.0093761 102.02922 2.56953904 105.328637 2.56953904 107.767899 2.56953904 109.689892 3.8737295 110.476151 6.02942383L113.212878 6.02942383C112.349193 2.38550528 109.225573 0 105.328637 0 100.453878 0 96.859585 3.54427208 96.859585 8.38602967 96.859585 13.2146091 100.453878 16.7588812 105.328637 16.7588812zM126.823255 16.4715003L126.823255 13.9616102 119.701504 13.9616102 119.701504 9.43497615 125.952511 9.43497615 125.952511 7.00115012 119.701504 7.00115012 119.701504 2.77438016 126.564385 2.77438016 126.564385.287609851 116.998195.287609851 116.998195 16.4715003 126.823255 16.4715003zM136.096382 16.7195765C139.431806 16.7195765 142.091813 14.9989974 142.091813 11.7610633 142.091813 8.28268288 139.075506 7.56226847 136.513869 6.9380327 134.557988 6.47933509 132.864742 6.07311927 132.864742 4.57842152 132.864742 3.26174651 134.222163 2.52283615 135.864105 2.52283615 137.583944 2.52283615 138.941364 3.3972288 138.941364 5.01145645L141.614315 5.01145645C141.614315 1.95894354 139.499347.0462389815 135.924822.0462389815 132.414308.0462389815 130.161668 1.77051695 130.161668 4.69101575 130.161668 7.7095558 132.524101 8.5584916 134.840004 9.13769606L135.135212 9.21031818C135.282505 9.246043 135.42919 9.28099826 135.574642 9.31567802 137.560881 9.77460706 139.324727 10.1805915 139.324727 11.7908884 139.324727 13.2793441 137.826105 14.1833301 136.072849 14.1833301 134.141678 14.1833301 132.626112 13.1836279 132.626112 11.3747312L129.882795 11.3747312C129.882795 14.6815624 132.40113 16.7195765 136.096382 16.7195765zM148.79083 16.4715003L148.79083 9.36885303 150.726472 9.36885303 155.882929 16.4715003 159.241886 16.4715003 153.097722 8.09471844 158.727676.287609851 155.399077.287609851 150.708587 6.89849796 148.79083 6.89849796 148.79083.287609851 146.087521.287609851 146.087521 16.4715003 148.79083 16.4715003zM168.577377 16.7755261C172.356645 16.7755261 175.181153 14.1498053 175.181153 10.4173377L175.181153.287609499 172.461134.287609499 172.461134 10.2554988C172.461134 12.6451659 170.845079 14.2193959 168.577377 14.2193959 166.292731 14.2193959 164.676911 12.6451659 164.676911 10.2554988L164.676911.287609499 161.956893.287609499 161.956893 10.4173377C161.956893 14.1498053 164.781401 16.7755261 168.577377 16.7755261z" transform="translate(20.819)"/>
    <g transform="translate(0 .073)">
      <g fill="#FFF">
        <polygon points="7.53 16.927 8.508 16.927 8.508 0 7.53 0"/>
        <polygon points="0 16.927 .387 16.927 .387 0 0 0"/>
        <polygon points="5.414 16.927 6.006 16.927 6.006 0 5.414 0"/>
        <polygon points="3.003 16.927 3.503 16.927 3.503 0 3.003 0"/>
        <path d="M12.5310061,4.36296227e-06 L12.4664332,4.36296227e-06 L12.4664332,16.9266833 L12.8498513,16.9266833 C13.3130973,16.9266833 13.7403708,16.9065701 14.1498578,16.8669108 L14.1498578,0.0936117166 C13.6493736,0.0253531732 13.1056558,4.36296227e-06 12.5310061,4.36296227e-06"/>
        <polygon points="9.987 16.927 11.352 16.927 11.352 0 9.987 0"/>
        <path d="M14.8550545,0.213466651 L14.8550545,16.7747475 C15.2872797,16.7014934 15.6900164,16.6020615 16.0518066,16.4757319 C16.389171,16.3579101 16.6977352,16.2232037 16.993487,16.0720707 L16.993487,1.00911825 C16.3792453,0.647755906 15.6740064,0.382313287 14.8550545,0.213466651"/>
      </g>
      <g transform="translate(17.471 1.23)">
        <path fill="#FFF" d="M1.54752405,5.7383642 C1.91919558,5.14569941 2.10603058,4.48178746 2.10603058,3.74665014 C2.10603058,3.02872472 1.957322,2.38992161 1.65990484,1.83010993 C1.36195475,1.27075637 0.96796695,0.78223549 0.479251535,0.364547305 C0.327323194,0.235141847 0.159296044,0.113764239 1.77642023e-05,0 L1.77642023e-05,7.14430694 C0.682518422,6.78172297 1.18682192,6.31314083 1.54752405,5.7383642"/>
        <g transform="translate(0 7.207)">
          <mask id="byznysvcesku-b" fill="#fff">
            <use xlink:href="#byznysvcesku-a"/>
          </mask>
          <path fill="#FFF" d="M1.73882675,1.47548837 C1.35578614,0.825516075 0.773497785,0.33400657 -1.89182003e-13,-5.46229728e-14 L-1.89182003e-13,7.43791248 C0.31855656,7.25061052 0.584198002,7.04197367 0.830098975,6.81167471 C1.29745294,6.37755997 1.66461679,5.89338024 1.93070234,5.3586556 C2.19625496,4.82432362 2.32899797,4.25633139 2.32899797,3.65504975 C2.32899797,2.87024012 2.13192634,2.14369784 1.73882675,1.47548837" mask="url(#byznysvcesku-b)"/>
        </g>
      </g>
    </g>
  </g>
</svg>
