<svg xmlns="http://www.w3.org/2000/svg" width="143" height="37" viewBox="0 0 143 37">
  <g fill="none" fill-rule="evenodd" transform="translate(.784)">
    <path fill="#FFF" d="M9.73623359,16.0127159 C9.73623359,16.0127159 7.16267155,10.1195631 11.1786037,6.07672018 C15.1939173,2.03418866 19.2664555,2.9450194 20.453944,3.22994594 C21.6417419,3.51456109 23.8475196,4.53936245 25.4312501,6.13401689 C25.4312501,6.13401689 27.2977012,6.24767611 29.0790887,6.75992109 C29.0790887,6.75992109 27.1835613,2.6638296 22.2922468,0.952401993 C17.6542673,-0.670278009 14.515264,0.497142319 11.7725027,2.06283701 C9.3836061,3.42612487 6.39586142,6.70604973 6.22944599,11.4006427 C6.05993734,16.1836718 8.09589711,18.4325674 8.09589711,18.4325674 C8.09589711,18.4325674 8.94436834,17.0088689 9.73623359,16.0127159"/>
    <path fill="#000105" d="M18.0324139,0.341600453 C15.476174,0.341600453 13.4757863,1.28668466 11.8558651,2.21121679 C9.44005743,3.59007441 6.56150355,6.82578116 6.39910931,11.4067149 C6.26084221,15.307873 7.62495382,17.5137961 8.0784204,18.1347179 C8.33763254,17.7134003 8.95101878,16.7412248 9.54151516,15.984846 C9.23095551,15.1948366 7.29026703,9.74947 11.058432,5.95605457 C13.1596588,3.84074748 15.5448435,2.76830267 18.1481005,2.76830267 C19.261661,2.76830267 20.1249797,2.97538043 20.4933826,3.06381664 C21.6060152,3.33037087 23.8486023,4.32216435 25.5059515,5.96788759 C25.8248628,5.99155362 27.2728008,6.11517748 28.7436286,6.49196558 C28.1670517,5.48304538 26.1805835,2.49396356 22.2364141,1.11354897 C20.7513575,0.5941419 19.3764196,0.341600453 18.0324139,0.341600453 M8.09605177,18.6033676 C8.04841613,18.6033676 8.00294574,18.5831269 7.9704669,18.5473165 C7.88571257,18.4535866 5.8899647,16.1919238 6.05978268,11.3945704 C6.2274354,6.67288615 9.19662073,3.33659877 11.688831,1.91414584 C13.3467988,0.967504656 15.3972968,0 18.0324139,0 C19.4150849,0 20.8265228,0.25876935 22.3477702,0.79094362 C27.0268895,2.42825919 29.0288238,6.27430039 29.2181291,6.6573164 C29.2394723,6.68596475 29.2521546,6.72146379 29.2521546,6.76007679 C29.2521546,6.8550523 29.1732774,6.92885295 29.0814086,6.93103271 C29.0653239,6.93072132 29.0486205,6.92885295 29.0325357,6.92418202 C27.2904322,6.42314726 25.4394472,6.3054399 25.4208878,6.30450572 C25.3794386,6.30170316 25.340464,6.28426504 25.3110784,6.2546825 C23.6995089,4.6320025 21.5002269,3.65640157 20.4148147,3.39607524 C20.0575474,3.31044158 19.2217584,3.10990312 18.1481005,3.10990312 C15.6382589,3.10990312 13.333498,4.14902866 11.2984662,6.19769719 C7.40966546,10.1125567 9.86630364,15.8861337 9.89135875,15.9440532 C9.9170325,16.0022841 9.90806216,16.0698569 9.86877822,16.1193687 C9.09299774,17.095281 8.24978499,18.5062123 8.24143328,18.5202251 C8.21390359,18.566623 8.16626795,18.5971397 8.11275518,18.6024334 C8.10718738,18.6030562 8.10161958,18.6033676 8.09605177,18.6033676"/>
    <path fill="#FFF" d="M16.2969608,9.86340947 C16.2969608,9.86340947 14.1477891,11.144489 9.73623359,16.0411774 C5.93961094,20.2546648 6.45556064,25.9198764 6.45556064,25.9198764 C6.45556064,25.9198764 7.75657048,27.0019744 9.34030097,27.5425564 C9.34030097,27.5425564 8.20323197,22.2189453 11.630833,17.9484725 C14.4871157,14.389849 18.4461326,11.628397 18.4461326,11.628397 C18.4461326,11.628397 17.4847587,10.5749473 16.2969608,9.86340947"/>
    <path fill="#1F1E26" d="M6.61965615,25.8331839 C6.8652581,26.0271831 7.88942444,26.8038026 9.1242393,27.2821055 C8.94823487,26.0922647 8.52260731,21.5493212 11.4989071,17.8409166 C14.0112233,14.7113956 17.410676,12.1672975 18.1873844,11.6039837 C17.8960028,11.3072241 17.1604342,10.5981774 16.2992808,10.0644462 C15.8615896,10.3546664 13.7216975,11.8717835 9.86197312,16.1559576 C6.38890167,20.0104065 6.57913492,25.1677326 6.61965615,25.8331839 L6.61965615,25.8331839 Z M9.56904485,27.8012011 L9.28570557,27.7043573 C7.69053016,27.1600386 6.40158389,26.0966242 6.3477618,26.0514719 L6.29332106,26.0063196 L6.28682529,25.9356329 C6.28156681,25.8780248 5.80799428,20.1467976 9.61049405,15.9264594 C13.988952,11.0665157 16.122039,9.76924359 16.2105052,9.71630642 L16.2971155,9.66492622 L16.3837258,9.71661781 C17.5789474,10.4328266 18.5313509,11.4688382 18.5712535,11.5127449 L18.7027155,11.6569208 L18.5431051,11.7687117 C18.5035119,11.7961145 14.5701688,14.5581892 11.762759,18.0557793 C8.42455212,22.2147726 9.49480748,27.454307 9.50594309,27.5069327 L9.56904485,27.8012011 Z"/>
    <path fill="#FFF" d="M18.3047413,28.9375131 C11.5741961,31.869921 8.52025646,31.4143499 3.59955636,26.9732326 C0.889583167,24.5275353 -0.981817109,19.5143852 0.969388336,14.1337888 C2.63911043,9.52981188 7.07788629,7.44346453 7.07788629,7.44346453 C7.07788629,7.44346453 6.34262705,9.5217156 6.20126673,11.3723368 C6.20126673,11.3723368 2.58126715,14.1904627 2.89244545,19.0874625 C3.20362374,23.9838394 6.56874169,26.4606763 8.94433741,27.4001554 C11.3199331,28.3396345 12.8470576,28.1116932 15.759637,27.1155402 L18.3047413,28.9375131 Z"/>
    <path fill="#000105" d="M6.78353514,7.79253847 C5.69533908,8.40536408 2.47560263,10.4786328 1.12881308,14.1923311 C-0.808782181,19.5352487 1.10994442,24.4970186 3.71258275,26.845872 C6.72538253,29.5649743 8.87950345,30.6246519 11.3952222,30.6246519 C13.1432029,30.6246519 15.176688,30.0915434 17.96028,28.9004571 L15.732231,27.3054912 C14.1655133,27.8382883 12.9458552,28.1671216 11.7447565,28.1671216 C10.8282343,28.1671216 9.9454283,27.9796617 8.88228735,27.5592783 C7.52962067,27.02399 3.08775158,24.8330139 2.72306052,19.0980499 C2.43198818,14.5171162 5.56325843,11.6871573 6.03775893,11.2863918 C6.15251752,9.92466089 6.56608152,8.47978751 6.78353514,7.79253847 M11.3952222,30.9662523 C8.78608809,30.9662523 6.56824677,29.8822859 3.48615878,27.1002819 C0.801240701,24.677005 -1.18151562,19.5673224 0.810211049,14.0752465 C2.48457298,9.458191 6.96108617,7.30956463 7.00624724,7.28838976 C7.06811171,7.25943001 7.14142111,7.27064024 7.19214997,7.31703811 C7.24256952,7.36343598 7.26081954,7.43567965 7.23762036,7.50076123 C7.23050595,7.52131331 6.50823824,9.5796351 6.37028046,11.3854154 C6.3665686,11.4333703 6.34275077,11.4778998 6.30501345,11.5074823 C6.26944138,11.5351965 2.7601792,14.3315247 3.06176851,19.0765636 C3.41346803,24.610055 7.70067593,26.7247393 9.00632561,27.2413438 C10.0283267,27.6455347 10.8727767,27.8255211 11.7447565,27.8255211 C12.9201814,27.8255211 14.1314878,27.4920169 15.7050106,26.9536148 C15.7569768,26.936488 15.8135828,26.9448957 15.8581252,26.9763466 L18.4029203,28.7983195 C18.4530305,28.8341299 18.4799415,28.8942292 18.4734458,28.9552626 C18.46695,29.0166075 18.4282847,29.069856 18.371988,29.0944562 C15.4009468,30.3889258 13.2493004,30.9662523 11.3952222,30.9662523"/>
    <path fill="#FFF" d="M9.99074402,20.8525435 C10.301613,19.8560791 11.4046565,18.2903844 11.4046565,18.2903844 C11.4046565,18.2903844 16.5233229,24.0125812 17.3717942,24.8380897 C18.2199561,25.6635982 20.3694372,27.3149265 22.6599692,27.9414535 C24.9505013,28.5676691 27.5806693,27.5142194 27.5806693,27.5142194 C27.1847367,29.3931776 25.6857606,30.730931 25.6857606,30.730931 C21.4721714,31.6704101 16.6653019,27.9704133 15.5053431,26.7740332 C13.2145017,24.4108556 9.99074402,20.8525435 9.99074402,20.8525435"/>
    <path fill="#000105" d="M10.1832044,20.8113148 C10.6580142,21.3344586 13.5455384,24.5081977 15.6266593,26.6546443 C16.4574991,27.5116037 20.3592914,30.7115 24.2706726,30.7115 C24.7315629,30.7115 25.1800804,30.6651021 25.6044706,30.5741747 C25.8058395,30.3832895 26.9150695,29.280328 27.3394598,27.7825174 C26.7950524,27.9653064 25.5883859,28.310955 24.2524226,28.310955 C23.6634728,28.310955 23.1125697,28.2421366 22.6154887,28.106057 C20.2717532,27.4648944 18.0832975,25.7684138 17.2536949,24.9606548 C16.4806983,24.2086356 12.2748422,19.5171566 11.4223498,18.5655331 C11.1417944,18.9818684 10.4492216,20.0480853 10.1832044,20.8113148 M24.2706726,31.0531004 C20.2405116,31.0531004 16.235715,27.77193 15.3838412,26.893173 C13.1174363,24.5552184 9.89769986,21.0031341 9.86553033,20.9676351 C9.82469978,20.9227942 9.81078027,20.8592696 9.82903029,20.8013501 C10.1442298,19.7905615 11.2206716,18.2563177 11.266142,18.1915476 C11.2961462,18.1491978 11.3431632,18.1227292 11.3948201,18.1199267 C11.4470956,18.1168127 11.4962778,18.1373648 11.5309219,18.1759778 C11.5819601,18.2332745 16.6551561,23.9034684 17.4897079,24.7149641 C18.2973485,25.5018595 20.427033,27.1534993 22.7045735,27.7762895 C23.1725782,27.9042729 23.6934771,27.9693545 24.2524226,27.9693545 C25.9626659,27.9693545 27.502782,27.3618226 27.5179388,27.3555947 C27.5760914,27.3325515 27.6422863,27.3431389 27.6902313,27.3836203 C27.737867,27.424413 27.7595195,27.4879376 27.746528,27.5499053 C27.3437903,29.4618714 25.8612082,30.8027388 25.7981064,30.8587899 C25.7767632,30.8780964 25.7504708,30.8914864 25.7223225,30.8980257 C25.2605042,31.0007861 24.7720842,31.0531004 24.2706726,31.0531004"/>
    <path fill="#FFF" d="M29.107732,18.7173694 L27.2409715,21.0656 C27.2409715,21.0656 28.5880704,25.3787339 27.2412808,28.5104347 C25.8892328,31.6545913 21.8680421,33.578079 20.0863453,33.8910311 C18.3046485,34.2042946 14.8266279,34.545895 10.9239077,30.7879786 C10.9239077,30.7879786 9.3120289,30.8736123 7.04964516,29.5641958 C7.04964516,29.5641958 8.43540933,33.4357714 12.8185072,35.5137111 C15.2343148,36.6596451 18.7677041,37.7479711 23.5083786,35.5993447 C28.3443244,33.4074344 30.1139576,29.7859091 30.4084325,26.6598134 C30.7196108,23.3577795 30.4084325,21.2508801 29.107732,18.7173694"/>
    <path fill="#1F1E26" d="M7.40493283,29.9540625 C7.91747998,31.0227706 9.49966384,33.7512147 12.8910742,35.3595705 C14.0668085,35.9169678 15.8958316,36.6583995 18.1956433,36.6583995 L18.196262,36.6583995 C19.896607,36.6583995 21.6600538,36.2495377 23.4386573,35.4436472 C28.8666461,32.9830029 30.0293889,28.8741442 30.2394187,26.6436209 C30.5437919,23.4135193 30.2394187,21.3857142 29.0754387,19.0312557 L27.4292251,21.1023446 C27.619149,21.7509807 28.663112,25.6340779 27.3970556,28.5783188 C26.0156219,31.7903595 21.9727787,33.7331537 20.1156072,34.0594958 C19.6343016,34.1438839 18.9816315,34.2410392 18.1993552,34.2410392 C15.6075432,34.2413506 13.1379134,33.1374549 10.8572797,30.9601801 C10.5791989,30.9595573 9.22807881,30.9038176 7.40493283,29.9540625 M18.196262,37 L18.1956433,37 C15.8277807,37 13.9514312,36.2398845 12.7463113,35.668163 C8.35053128,33.5843069 6.90413992,29.6613511 6.8899111,29.6221153 L6.73308466,29.1839823 L7.13427576,29.4159717 C9.11177361,30.5603488 10.5856946,30.6185797 10.8609915,30.6185797 C10.8943984,30.6185797 10.9129577,30.6176455 10.9154323,30.6176455 L10.9884324,30.6139088 L11.0413265,30.6646662 C13.2706127,32.8114242 15.6789966,33.8997501 18.1993552,33.8994387 C18.9556484,33.8994387 19.5894499,33.805086 20.0571453,33.7228777 C21.795537,33.4173991 25.7718759,31.4973367 27.085568,28.4425505 C28.3921456,25.4045797 27.0926824,21.1596413 27.0793815,21.1169802 L27.0521611,21.030101 L29.1385405,18.4053515 L29.2585575,18.6388978 C30.5536903,21.1618211 30.898894,23.2649838 30.5775081,26.676006 C30.3606731,28.9803299 29.1626676,33.2237113 23.5781617,35.7550423 C21.7556344,36.5811736 19.9448613,37 18.196262,37"/>
    <path fill="#FFF" d="M28.025877,12.4609742 C28.025877,15.06704 27.1563718,17.0089 25.6929678,18.6530663 C24.2292544,20.2969211 21.7689043,23.4142977 18.4180152,25.6990038 C18.4180152,25.6990038 20.029894,26.8947611 20.9631196,27.2790227 C20.9631196,27.2790227 24.3789664,24.5097858 28.1319746,20.0621292 C31.8435336,15.6636731 30.5286042,10.7314857 30.5286042,10.7314857 C30.5286042,10.7314857 28.2167289,9.25827533 27.2197829,9.06614453 C27.2197829,9.06614453 28.025877,11.1372335 28.025877,12.4609742"/>
    <path fill="#000105" d="M18.7128613,25.7025537 C19.1477685,26.0145716 20.2174052,26.7603629 20.9350331,27.0810999 C21.4667582,26.6389188 24.6153505,23.9655917 28.0027397,19.9517085 C31.3898195,15.9375139 30.5128906,11.4253986 30.379882,10.8393529 C30.0557122,10.6360119 28.4500198,9.64421844 27.4939044,9.31849914 C27.7203284,9.95561357 28.1954475,11.4173023 28.1954475,12.4607874 C28.1954475,14.9416723 27.4403916,16.9455 25.8192332,18.7668501 C25.6042541,19.0084927 25.3682412,19.2812748 25.1105756,19.5789685 C23.6632563,21.2517832 21.49336,23.7594481 18.7128613,25.7025537 M20.9631814,27.4497917 C20.9415289,27.4497917 20.919567,27.4457436 20.8988424,27.4370245 C19.9569558,27.0493376 18.3837423,25.8859654 18.317238,25.8364536 C18.2730049,25.8037571 18.2470218,25.7511313 18.2482168,25.695703 C18.2494964,25.6402747 18.2770261,25.5888945 18.3228058,25.5574436 C21.1626943,23.6215001 23.3845569,21.0537359 24.854766,19.3547641 C25.1133595,19.0558247 25.3509191,18.7814856 25.5665168,18.5389088 C27.1285947,16.7838859 27.8561209,14.8526133 27.8561209,12.4607874 C27.8561209,11.1850015 27.0698235,9.1487888 27.0620904,9.12823672 C27.0395099,9.07031723 27.0500268,9.00492425 27.0896201,8.9569694 C27.128904,8.90901455 27.1913871,8.8865941 27.251705,8.89842712 C28.2684476,9.09429465 30.5240262,10.5264008 30.6192975,10.5871229 C30.6554882,10.6101661 30.6814713,10.6456652 30.6926069,10.6870807 C30.7059078,10.7375267 31.9874303,15.7572162 28.2613332,20.172799 C24.5408038,24.5815312 21.1039231,27.3843988 21.0695883,27.4121129 C21.0386561,27.4370245 21.0012281,27.4497917 20.9631814,27.4497917"/>
    <path fill="#FFF" d="M9.22721271,9.4363622 C9.22721271,9.4363622 11.6024991,8.35457553 13.6950649,8.86682051 C15.78794,9.37937689 16.8909835,9.92058162 22.5750912,15.301178 C22.5750912,15.301178 25.4310645,18.2619229 25.6856368,18.6318603 C25.6856368,18.6318603 26.760532,17.3507807 27.241219,16.2406571 C27.241219,16.2406571 22.9710238,11.7139061 20.7649367,10.0059039 C18.559159,8.29759022 16.4947416,5.67844582 11.2065665,6.04838323 C11.2065665,6.04838323 9.96247196,7.1871552 9.22721271,9.4363622"/>
    <path fill="#000105" d="M12.4806344,8.55825908 C12.9266772,8.55825908 13.3485929,8.60621393 13.7352458,8.70087805 C15.8912227,9.22869279 17.0616985,9.8474349 22.6913654,15.1766511 C22.8017935,15.2912445 25.0607747,17.6335586 25.6856059,18.3619118 C25.9714198,18.0019391 26.6599713,17.0976476 27.0395099,16.2752531 C26.4474669,15.6518401 22.6681663,11.6949422 20.6615921,10.1410805 C20.3216469,9.87826302 19.9919092,9.59925299 19.6429936,9.30405041 C17.9138816,7.8414275 15.9537058,6.18387125 12.1920366,6.18387125 C11.8966337,6.18387125 11.5900953,6.19414729 11.279845,6.21469936 C11.0750736,6.41959736 10.150509,7.4073427 9.5111397,9.13683123 C10.0728691,8.92570533 11.2300441,8.55825908 12.4806344,8.55825908 M25.6856059,18.8028473 C25.6831313,18.8028473 25.6803474,18.8028473 25.6775635,18.8025359 C25.6246694,18.8000448 25.5764151,18.7729534 25.5461015,18.7293581 C25.344114,18.4350897 23.2450525,16.2406882 22.4531872,15.4201621 C16.8890966,10.1532249 15.7452225,9.54444745 13.654822,9.03282525 C13.2947708,8.94470043 12.8997662,8.89985954 12.4806344,8.89985954 C10.835658,8.89985954 9.31255475,9.58492881 9.29708863,9.5920909 C9.2358428,9.61980507 9.16408002,9.60890624 9.11366047,9.56344255 C9.06355025,9.51829026 9.04499091,9.44729217 9.06602483,9.38283338 C9.80654256,7.11681104 11.0404295,5.9696314 11.0923956,5.92198795 C11.1205439,5.89614215 11.1567347,5.88088379 11.1947813,5.87808123 C11.5337986,5.8544152 11.8694134,5.84227079 12.1920366,5.84227079 C16.0774348,5.84227079 18.0877208,7.54248818 19.8613752,9.0424785 C20.2075069,9.33518992 20.5344606,9.61170879 20.8685288,9.87047814 C23.0594591,11.5672702 27.3213025,16.0775172 27.3642983,16.1229809 C27.4113153,16.1724927 27.4239976,16.245982 27.3964679,16.3088838 C26.9117597,17.4292834 25.8597544,18.6891881 25.8155213,18.7421253 C25.7830424,18.7807383 25.7354068,18.8028473 25.6856059,18.8028473"/>
    <path fill="#FFF" d="M26.3927477,6.21924573 C29.0792124,6.53250923 31.0981595,7.06530629 33.7453402,10.2334403 C36.2904446,13.2798188 36.4884109,17.3509987 36.4321142,18.1761958 C36.3751989,19.0020157 36.7429832,22.6459614 33.9717642,26.033629 C31.2002359,29.421608 29.6731114,29.5639155 29.6731114,29.5639155 C29.6731114,29.5639155 30.4934343,27.5140014 30.4649766,25.8346475 C30.4649766,25.8346475 34.4524511,22.788269 33.6605859,17.3220389 C32.8687207,11.8561203 30.4649766,9.86350289 26.8734347,9.00934606 C23.5024396,8.20781501 20.7649367,10.0058105 20.7649367,10.0058105 C20.7649367,10.0058105 18.672371,8.2978082 18.5028623,8.21217454 C18.5028623,8.21217454 21.4621493,5.64472173 26.3927477,6.21924573"/>
    <path fill="#000105" d="M30.6354132,25.9153923 C30.6366505,27.2111074 30.1751416,28.6715505 29.9499549,29.3067966 C30.5089004,29.0913112 31.8491942,28.3595326 33.8409208,25.9250455 C36.2353852,22.9976199 36.2483768,19.9144968 36.2539446,18.5976068 C36.2548725,18.4151293 36.2554912,18.2706419 36.2626056,18.1644562 C36.3247794,17.2561166 36.0572155,13.2658995 33.6154248,10.3434562 C30.9428796,7.14480547 28.9279538,6.68674324 26.3732604,6.3890495 C25.9024718,6.33424395 25.4288993,6.30621839 24.965225,6.30621839 C21.6195944,6.30621839 19.4029904,7.75078038 18.7874389,8.20604006 C19.2498758,8.55417981 20.306521,9.41207338 20.7785469,9.79695775 C21.2097423,9.53943398 22.8865788,8.63265138 25.1059667,8.63265138 C25.717497,8.63265138 26.3253155,8.70364947 26.9124093,8.84315448 C31.0440281,9.82560611 33.1124667,12.3538231 33.8282386,17.2975322 C34.5681377,22.4022325 31.1637358,25.4732112 30.6354132,25.9153923 M29.6731114,29.7346535 C29.6199079,29.7346535 29.569179,29.7097419 29.5370095,29.6661466 C29.5017468,29.6181917 29.4937044,29.5556013 29.5156663,29.500173 C29.5237087,29.4799323 30.3226883,27.4620919 30.2954679,25.8372321 C30.2942307,25.7830493 30.3192858,25.7313577 30.3622816,25.6983499 C30.4015655,25.6684559 34.260362,22.6444979 33.4926239,17.3467326 C32.7907714,12.5004902 30.8615279,10.1332645 26.8344601,9.17572448 C26.2727307,9.04213597 25.6912046,8.97425183 25.1059667,8.97425183 C22.6790235,8.97425183 20.8756741,10.1370012 20.8577334,10.1488342 C20.7961783,10.1893156 20.7154451,10.1852675 20.6582205,10.1385582 C19.8672832,9.49272472 18.5616336,8.44020919 18.4252224,8.36422878 C18.3766588,8.3371374 18.3420147,8.28669139 18.3364469,8.23095167 C18.3305698,8.17552333 18.3500571,8.11947221 18.3921249,8.08303898 C18.4917267,7.99647114 20.8809326,5.96461794 24.965225,5.96461794 C25.4418908,5.96461794 25.9284549,5.99326629 26.412235,6.04962881 C28.9601233,6.34669976 31.1278544,6.83527871 33.8752556,10.1236112 C36.3479786,13.0831105 36.6798815,17.0362716 36.6013136,18.1878108 C36.5948178,18.2830977 36.5941992,18.4226027 36.5935805,18.5991638 C36.5877034,19.9521756 36.5744025,23.1209324 34.1026076,26.1420879 C31.3180877,29.545948 29.7538445,29.7281142 29.6888868,29.7340307 C29.6836283,29.7346535 29.6783698,29.7346535 29.6731114,29.7346535"/>
    <polygon fill="#FFF" points="43.216 26.823 43.216 11.118 43.556 11.118 53.938 23.157 53.938 11.118 55.475 11.118 55.475 26.823 55.126 26.823 44.828 14.931 44.828 26.823"/>
    <polygon fill="#FFF" points="59.283 11.118 68.223 11.118 68.223 12.656 60.842 12.656 60.842 17.577 68.159 17.577 68.159 19.115 60.842 19.115 60.842 25.285 68.159 25.285 68.159 26.823 59.283 26.823"/>
    <path fill="#FFF" d="M72.4855531 19.2641792L72.4855531 25.2853154 74.4191271 25.2853154C75.5592893 25.2853154 76.394769 25.1732131 76.9258755 24.9490086 77.4572913 24.7248041 77.8835376 24.3744846 78.2061608 23.8974273 78.5281654 23.4206813 78.6893223 22.9046996 78.6893223 22.3494821 78.6893223 21.651957 78.4632077 21.043491 78.0100504 20.5240839 77.5568931 20.0043654 76.9342272 19.6484408 76.141434 19.45631 75.6100182 19.3283266 74.6854537 19.2641792 73.3677404 19.2641792L72.4855531 19.2641792zM72.4855531 12.6557518L72.4855531 17.6841603 73.3782574 17.6841603C74.4624323 17.6841603 75.259556 17.5826455 75.7696286 17.3799273 76.2793918 17.1768977 76.6833668 16.8567835 76.9809349 16.4189619 77.278503 15.9814518 77.4272871 15.4956754 77.4272871 14.9619441 77.4272871 14.2429328 77.1773546 13.6789962 76.6781083 13.2695116 76.178862 12.8606498 75.3832849 12.6557518 74.292305 12.6557518L72.4855531 12.6557518zM70.9584286 11.1183941L74.0337115 11.1183941C75.2710009 11.1183941 76.2218578 11.2663068 76.8865916 11.5615094 77.551016 11.8570233 78.0759361 12.310726 78.4613517 12.9226175 78.8467674 13.5348203 79.0394752 14.2145958 79.0394752 14.9619441 79.0394752 15.6594692 78.8705852 16.2947153 78.5331145 16.8673709 78.1950252 17.440338 77.6991814 17.9049395 77.0449646 18.2605527 77.8553892 18.5383172 78.4792924 18.8637251 78.9163649 19.2373992 79.3531281 19.6110734 79.6933827 20.0632191 79.9365101 20.5932136 80.1796374 21.1235195 80.3015104 21.6983549 80.3015104 22.3174084 80.3015104 23.5773131 79.8437134 24.6432186 78.9281192 25.5148136 78.0122157 26.3867199 76.7842059 26.8226731 75.2428526 26.8226731L70.9584286 26.8226731 70.9584286 11.1183941zM89.563952 14.455024L86.8907881 20.139542 92.2241243 20.139542 89.563952 14.455024zM89.760681 11.1184252L97.0356336 26.8227042 95.3516827 26.8227042 92.8981377 21.6554135 86.1781094 21.6554135 83.748073 26.8227042 82.0087533 26.8227042 89.3789772 11.1184252 89.760681 11.1184252z"/>
    <polygon fill="#FFF" points="99.464 26.823 99.464 11.118 99.804 11.118 110.186 23.157 110.186 11.118 111.723 11.118 111.723 26.823 111.373 26.823 101.076 14.931 101.076 26.823"/>
    <polygon fill="#FFF" points="115.52 11.118 117.111 11.118 117.111 17.012 123.346 11.118 125.441 11.118 117.948 18.164 126.024 26.823 123.948 26.823 117.111 19.508 117.111 26.823 115.52 26.823"/>
    <path fill="#FFF" d="M134.528318,14.455024 L131.855155,20.139542 L137.188491,20.139542 L134.528318,14.455024 Z M134.725047,11.1184252 L142,26.8227042 L140.316049,26.8227042 L137.862504,21.6554135 L131.142476,21.6554135 L128.712439,26.8227042 L126.97312,26.8227042 L134.343344,11.1184252 L134.725047,11.1184252 Z"/>
  </g>
</svg>
