<?xml version="1.0" encoding="UTF-8"?>
<svg width="65px" height="65px" viewBox="0 0 65 65" version="1.1" xmlns="http://www.w3.org/2000/svg" xmlns:xlink="http://www.w3.org/1999/xlink">
    <title>Group</title>
    <g id="Mockups" stroke="none" stroke-width="1" fill="none" fill-rule="evenodd">
        <g id="Career---Contact-form" transform="translate(-1347.000000, -21.000000)">
            <g id="Group" transform="translate(1379.500000, 53.500000) rotate(-90.000000) translate(-1379.500000, -53.500000) translate(1347.000000, 21.000000)">
                <g id="Group-5" transform="translate(0.000000, -0.000000)"></g>
                <g id="Group-7" transform="translate(0.000000, -0.000000)">
                    <g id="Group-4" transform="translate(0.000000, -0.000000)">
                        <rect id="Rectangle" fill="#E53737" x="0" y="-1.71450552e-14" width="65" height="65" rx="10"></rect>
                        <path d="M39.0546208,25.1566691 C39.2736087,24.9436364 39.6238306,24.9484642 39.8368632,25.1674521 C40.0575972,25.3943567 40.0575972,25.755742 39.8368632,25.9826466 L39.8368632,25.9826466 L33.01,32.999 L39.8368632,40.016079 C40.0575972,40.2429836 40.0575972,40.6043689 39.8368632,40.8312735 C39.6238306,41.0502614 39.2736087,41.0550892 39.0546208,40.8420565 C39.050977,40.8385119 39.0473823,40.8349172 39.0438377,40.8312735 L32.216,33.815 L32.0387792,33.9987256 L32.001,33.9597256 L31.9636345,33.9987256 L31.784,33.814 L24.958576,40.8312735 L24.9477929,40.8420565 C24.728805,41.0550892 24.3785831,41.0502614 24.1655505,40.8312735 C23.9693425,40.6295805 23.9475416,40.3216312 24.1001478,40.0963257 L24.1655505,40.016079 L30.991,32.999 L24.1655505,25.9826466 L24.1001478,25.9023999 C23.9475416,25.6770944 23.9693425,25.3691451 24.1655505,25.1674521 C24.3785831,24.9484642 24.728805,24.9436364 24.9477929,25.1566691 L24.9477929,25.1566691 L24.958576,25.1674521 L31.784,32.184 L31.9636345,32 L32.001,32.039 L32.0387792,32 L32.216,32.183 L39.0438377,25.1674521 C39.04561,25.1656303 39.0473949,25.1638207 39.0491921,25.1620234 Z" id="Combined-Shape" stroke="#FFFFFF" stroke-width="1.8" fill="#FFFFFF"></path>
                    </g>
                    <g id="Group-2" transform="translate(24.000000, 25.000000)"></g>
                </g>
                <g id="Combined-Shape-2" transform="translate(30.000000, 30.000000)"></g>
            </g>
        </g>
    </g>
</svg>