<?xml version="1.0" encoding="UTF-8"?>
<svg width="57px" height="75px" viewBox="0 0 57 75" version="1.1" xmlns="http://www.w3.org/2000/svg" xmlns:xlink="http://www.w3.org/1999/xlink">
    <title>cv</title>
    <g id="Mockups" stroke="none" stroke-width="1" fill="none" fill-rule="evenodd">
        <g id="Career" transform="translate(-167.000000, -1159.000000)" fill-rule="nonzero">
            <g id="Group-13" transform="translate(158.000000, 562.000000)">
                <g id="Group-21" transform="translate(0.000000, 583.000000)">
                    <g id="cv" transform="translate(9.000000, 14.000000)">
                        <path d="M39.4615385,0 L2.19230769,0 C0.981569231,0 0,0.983789062 0,2.19726562 L0,72.8027344 C0,74.0162109 0.981569231,75 2.19230769,75 L54.8076923,75 C56.0184308,75 57,74.0162109 57,72.8027344 L57,17.578125 L39.4615385,0 Z" id="Path" fill="#B7B7B7"></path>
                        <path d="M28.5,0 L28.5,75 L54.8076923,75 C56.0184308,75 57,74.0162109 57,72.8027344 L57,17.578125 L39.4615385,0 L28.5,0 Z" id="Path" fill="#A4A4A4"></path>
                        <path d="M57,17.578125 L41.6538462,17.578125 C40.4431077,17.578125 39.4615385,16.5943359 39.4615385,15.3808594 L39.4615385,0 L57,17.578125 Z" id="Path" fill="#E9E8E8"></path>
                        <path d="M45.3078385,65.9179687 C44.8823846,65.9179687 44.4583923,65.794043 44.0916923,65.5488281 L40.9230769,63.4316895 L37.7544615,65.5488281 C37.0817154,65.9983887 36.2167769,66.0401367 35.5039846,65.657959 C34.7911923,65.2756348 34.3461538,64.5310547 34.3461538,63.7207031 L34.3461538,50.8164551 C34.3461538,49.6029785 35.3277231,48.6191895 36.5384615,48.6191895 L45.3076923,48.6191895 C46.5184308,48.6191895 47.5,49.6029785 47.5,50.8164551 L47.5,63.7207031 C47.5,64.5310547 47.0549615,65.2756348 46.3421692,65.6581055 C46.018,65.8318359 45.6624077,65.9179687 45.3078385,65.9179687 L45.3078385,65.9179687 Z" id="Path" fill="#E53737"></path>
                        <g id="Group" transform="translate(7.307692, 8.788380)">
                            <path d="M13.8846154,48.340526 L2.19230769,48.340526 C0.981569231,48.340526 0,47.356737 0,46.1432604 C0,44.9297839 0.981569231,43.9459948 2.19230769,43.9459948 L13.8846154,43.9459948 C15.0953538,43.9459948 16.0769231,44.9297839 16.0769231,46.1432604 C16.0769231,47.356737 15.0953538,48.340526 13.8846154,48.340526 Z" id="Path" fill="#FDFDFD"></path>
                            <path d="M13.8846154,57.1295885 L2.19230769,57.1295885 C0.981569231,57.1295885 0,56.1457995 0,54.9323229 C0,53.7188464 0.981569231,52.7350573 2.19230769,52.7350573 L13.8846154,52.7350573 C15.0953538,52.7350573 16.0769231,53.7188464 16.0769231,54.9323229 C16.0769231,56.1457995 15.0953538,57.1295885 13.8846154,57.1295885 Z" id="Path" fill="#FDFDFD"></path>
                            <path d="M8.03846154,21.9733385 L5.11538462,21.9733385 C2.29476154,21.9733385 0,19.6733874 0,16.8463854 L0,5.12763542 C0,2.30063347 2.29476154,0.000682295636 5.11538462,0.000682295636 L8.03846154,0.000682295636 C10.8590846,0.000682295636 13.1538462,2.30063347 13.1538462,5.12763542 C13.1538462,6.34111198 12.1722769,7.32490105 10.9615385,7.32490105 C9.7508,7.32490105 8.76923077,6.34111198 8.76923077,5.12763542 C8.76923077,4.723778 8.44140769,4.39521355 8.03846154,4.39521355 L5.11538462,4.39521355 C4.71243846,4.39521355 4.38461538,4.723778 4.38461538,5.12763542 L4.38461538,16.8463854 C4.38461538,17.2502428 4.71243846,17.5788073 5.11538462,17.5788073 L8.03846154,17.5788073 C8.44140769,17.5788073 8.76923077,17.2502428 8.76923077,16.8463854 C8.76923077,15.6329089 9.7508,14.6491198 10.9615385,14.6491198 C12.1722769,14.6491198 13.1538462,15.6329089 13.1538462,16.8463854 C13.1538462,19.6733874 10.8590846,21.9733385 8.03846154,21.9733385 Z" id="Path" fill="#FFFFFF"></path>
                            <path d="M21.1923077,21.9733385 C20.1863308,21.9733385 19.3094077,21.2870592 19.0654769,20.3089831 L14.6808615,2.73085808 C14.3872385,1.55370964 15.1013462,0.360594405 16.2759846,0.06645378 C17.4507692,-0.228712236 18.6409,0.487889327 18.9345231,1.66518425 L21.1923077,10.7164538 L23.4500923,1.66503776 C23.7438615,0.487742843 24.9341385,-0.228565751 26.1086308,0.0663072956 C27.2832692,0.360594405 27.9973769,1.55356316 27.7037538,2.73071159 L23.3191385,20.3088366 C23.0752077,21.2870592 22.1982846,21.9733385 21.1923077,21.9733385 L21.1923077,21.9733385 Z" id="Path" fill="#F0F0FF"></path>
                        </g>
                        <path d="M40.9230769,54.1992188 C34.8788846,54.1992188 29.9615385,49.270752 29.9615385,43.2128906 C29.9615385,37.1550293 34.8788846,32.2265625 40.9230769,32.2265625 C46.9672692,32.2265625 51.8846154,37.1550293 51.8846154,43.2128906 C51.8846154,49.270752 46.9672692,54.1992188 40.9230769,54.1992188 Z" id="Path" fill="#FFC600"></path>
                        <path d="M30.6268308,29.0973633 L35.0114462,11.5192383 C35.3050692,10.3420898 34.5909615,9.14897461 33.4163231,8.85483398 C32.2418308,8.55996094 31.0514077,9.27626953 30.7577846,10.4535645 L28.5,19.504834 L28.5,30.7617187 C29.5059769,30.7617187 30.3829,30.0754395 30.6268308,29.0973633 L30.6268308,29.0973633 Z" id="Path" fill="#F0F0F0"></path>
                    </g>
                </g>
            </g>
        </g>
    </g>
</svg>