<?xml version="1.0" encoding="UTF-8"?>
<svg width="75px" height="63px" viewBox="0 0 75 63" version="1.1" xmlns="http://www.w3.org/2000/svg" xmlns:xlink="http://www.w3.org/1999/xlink">
    <title>monitor</title>
    <g id="Mockups" stroke="none" stroke-width="1" fill="none" fill-rule="evenodd">
        <g id="Career" transform="translate(-778.000000, -1830.000000)" fill-rule="nonzero">
            <g id="Group-13" transform="translate(158.000000, 562.000000)">
                <g id="Group-21" transform="translate(0.000000, 583.000000)">
                    <g id="monitor" transform="translate(620.000000, 685.000000)">
                        <path d="M72.4138184,0 L2.58618164,0 C1.1578125,0 0,1.15133868 0,2.57139588 L0,43.7141668 L75,43.7141668 L75,2.57139588 C75,1.15133868 73.8421875,0 72.4138184,0 Z M71.1206543,11.5713543 L71.1206543,39.8570002 L3.8793457,39.8570002 L3.8793457,11.5713543 L3.8793457,3.85716664 L71.1206543,3.85716664 L71.1206543,11.5713543 Z" id="Shape" fill="#565656"></path>
                        <polygon id="Shape" fill="#FFFFFF" points="3.8793457 39.8570002 71.1206543 39.8570002 71.1206543 11.5713543 3.8793457 11.5713543"></polygon>
                        <path d="M0,48.8569586 C0,50.2770158 1.1578125,51.4283544 2.58618164,51.4283544 L27.155127,51.4283544 L47.8447266,51.4283544 L72.4136719,51.4283544 C73.842041,51.4283544 74.9998535,50.2770158 74.9998535,48.8569586 L74.9998535,43.7141668 L0,43.7141668 L0,48.8569586 Z M37.5,45.6426773 C38.5712402,45.6426773 39.4395996,46.5062177 39.4395996,47.5711878 C39.4395996,48.6361579 38.5710938,49.4996983 37.5,49.4996983 C36.4287598,49.4996983 35.5604004,48.6361579 35.5604004,47.5711878 C35.5604004,46.5062177 36.4287598,45.6426773 37.5,45.6426773 Z" id="Shape" fill="#E0E3EA"></path>
                        <polygon id="Path" fill="#C8C8C8" points="26.0236816 60.4284585 48.9763184 60.4284585 48.1681641 53.999896 26.8318359 53.999896"></polygon>
                        <path d="M25.8621094,60.4284585 C25.147998,60.4284585 24.5689453,61.0042006 24.5689453,61.7142292 C24.5689453,62.4242578 25.147998,63 25.8621094,63 L49.1380371,63 C49.8521484,63 50.4312012,62.4242578 50.4312012,61.7142292 C50.4312012,61.0042006 49.8521484,60.4284585 49.1380371,60.4284585 L48.9764648,60.4284585 L26.0238281,60.4284585 L25.8621094,60.4284585 Z" id="Path" fill="#E2E2E2"></path>
                        <polygon id="Path" fill="#B4B4B4" points="26.8318359 53.999896 48.1681641 53.999896 47.844873 51.4285001 27.155127 51.4285001"></polygon>
                        <polygon id="Shape" fill="#FFC600" points="3.8793457 11.5713543 71.1206543 11.5713543 71.1206543 3.85716664 3.8793457 3.85716664"></polygon>
                        <ellipse id="Oval" fill="#9D9D9D" cx="37.5" cy="47.5713335" rx="1.93959961" ry="1.92851049"></ellipse>
                    </g>
                </g>
            </g>
        </g>
    </g>
</svg>