<?xml version="1.0" encoding="UTF-8"?>
<svg width="75px" height="75px" viewBox="0 0 75 75" version="1.1" xmlns="http://www.w3.org/2000/svg" xmlns:xlink="http://www.w3.org/1999/xlink">
    <title>job-interview</title>
    <g id="Mockups" stroke="none" stroke-width="1" fill="none" fill-rule="evenodd">
        <g id="Career" transform="translate(-778.000000, -1379.000000)" fill-rule="nonzero">
            <g id="Group-13" transform="translate(158.000000, 562.000000)">
                <g id="Group-21" transform="translate(0.000000, 583.000000)">
                    <g id="job-interview" transform="translate(620.000000, 234.000000)">
                        <g id="Group" transform="translate(36.690967, 13.327573)">
                            <path d="M19.504541,0 L14.8662598,0 C11.7669434,0 9.25429687,2.51260774 9.25429687,5.61220355 L9.25429687,11.0254728 L10.6125,11.8430371 L20.043457,11.8430371 L20.043457,0.987054045 L19.504541,0 Z" id="Path" fill="#EFC984"></path>
                            <path d="M29.7169922,37.7062555 C29.7169922,34.6385947 27.6953613,31.9380395 24.7520508,31.0738911 L16.5433594,28.6638268 L16.5486328,26.9053529 L12.8772949,26.9053529 L4.85244141,29.2607762 C1.97592773,30.1051484 0,32.744324 0,35.7422553 L0,48.5619457 L29.7177246,48.5619457 L29.7169922,37.7062555 Z" id="Path" fill="#939393"></path>
                            <path d="M33.4571777,29.2606297 L25.4352539,26.9054994 L15.9396973,26.9054994 L15.9328125,29.2169755 L23.9547363,31.5721058 C26.830957,32.4166244 28.8065918,35.0556536 28.8065918,38.0534384 L28.8065918,48.5619457 L38.3090332,48.5619457 L38.3090332,35.7419623 C38.3090332,32.744324 36.3333984,30.1051484 33.4571777,29.2606297 L33.4571777,29.2606297 Z" id="Path" fill="#767676"></path>
                            <polygon id="Path" fill="#E53737" points="23.6937012 48.5620922 20.7464355 35.4201224 17.5536621 35.4201224 14.6063965 48.5620922"></polygon>
                            <g transform="translate(9.254150, 0.000000)" id="Path">
                                <path d="M14.3061035,28.5214379 L14.3061035,21.4368567 L5.49140625,21.4368567 L5.49140625,28.5214379 C5.49140625,30.9556731 9.89868164,31.1720398 9.89868164,31.1720398 C9.89868164,31.1720398 14.3061035,30.9555266 14.3061035,28.5214379 Z" fill="#FFDDCE"></path>
                                <path d="M10.5969727,18.5687162 C10.7345215,17.9654676 10.7891602,17.3463981 10.7891602,16.7277681 L10.7891602,7.33962137 C9.09023437,7.45373759 7.37446289,7.24059369 5.73779297,6.69989667 L5.73457031,6.69887124 C4.57573242,6.31594466 3.3815918,7.17906761 3.3815918,8.39962776 L3.3815918,9.32867151 C3.3815918,10.2657722 2.62192383,11.0254728 1.68486328,11.0254728 L0,11.0254728 L0,13.8001523 C0,14.5091671 0.574804687,15.0839964 1.28378906,15.0839964 C1.5074707,15.0839964 1.68955078,15.2591993 1.70361328,15.482451 C1.93359375,19.1302149 4.54306641,22.1319549 7.99790039,22.9508377 C9.27583008,21.8150956 10.2036621,20.2940831 10.5969727,18.5687162 Z" fill="#FFDDCE"></path>
                                <path d="M17.3589844,3.26205394 L17.2768066,3.26205394 C16.8219727,3.26205394 16.4532715,2.89333696 16.4532715,2.43848347 C16.4532715,1.09179486 15.3615234,0 14.0148926,0 L10.2503906,0 L10.2503906,11.8430371 L18.4391602,11.8430371 L19.7973633,11.0254728 L19.7973633,5.70053741 C19.7973633,4.35384881 18.7057617,3.26205394 17.3589844,3.26205394 L17.3589844,3.26205394 Z" fill="#EABC6B"></path>
                                <path d="M18.1125,11.0254728 C17.1754395,11.0254728 16.4157715,10.2657722 16.4157715,9.32867151 L16.4157715,8.40006723 C16.4157715,7.17936059 15.2214844,6.31623764 14.0626465,6.69931071 C12.8233887,7.10889859 11.5388672,7.32848808 10.2505371,7.36247391 L10.2505371,16.4426973 C10.2505371,17.05078 10.1967773,17.6594487 10.0615723,18.2522963 C9.65302734,20.0446095 8.65751953,21.6126455 7.28935547,22.7464832 C8.109375,23.0212997 8.98637695,23.1718921 9.89897461,23.1718921 C14.2589355,23.1718921 17.8234863,19.7741878 18.094043,15.4823045 C18.1081055,15.2590528 18.2901855,15.0838499 18.5138672,15.0838499 C19.2228516,15.0838499 19.7976562,14.5090206 19.7976562,13.8000058 L19.7976562,11.0253263 L18.1125,11.0253263 L18.1125,11.0254728 Z" fill="#FFCBBE"></path>
                            </g>
                            <g transform="translate(11.109362, 26.298838)" id="Path">
                                <path d="M1.9180796,0.136865668 L0.66285499,0.700415224 C-0.0536000884,1.02210871 -0.226598135,1.9614068 0.328284677,2.51733884 L3.80450538,5.99912877 C4.24542335,6.42834639 4.93946632,6.4548612 5.41173194,6.06036186 L8.13765968,3.78331109 L3.4902964,0.310457096 C3.03663429,-0.0288152651 2.43472999,-0.0951755325 1.9180796,0.136865668 L1.9180796,0.136865668 Z" fill="#4E4E4E"></path>
                                <path d="M12.5944468,0.331991222 L8.13780616,3.78301811 L10.6998179,5.97363939 C11.1691538,6.37502379 11.8664194,6.35480808 12.3118784,5.92690887 L15.7898569,2.53975191 C16.3583628,1.98616372 16.1884409,1.03353498 15.4636362,0.710523079 L14.1840952,0.140381443 C13.6592417,-0.093271154 13.0485483,-0.0195863537 12.5944468,0.331991222 L12.5944468,0.331991222 Z" fill="#515151"></path>
                            </g>
                        </g>
                        <path d="M66.4097168,73.4425047 L66.4085449,58.9819726 L17.8319824,58.9819726 L17.8319824,74.9307033 L65.4621094,74.9307033 C65.9956055,74.6456325 66.3682617,74.0861847 66.4097168,73.4425047 Z" id="Path" fill="#DADADA"></path>
                        <path d="M65.4993164,58.982119 L65.4993164,73.2797536 C65.4405762,74.191658 64.701416,74.9308498 63.7895508,74.9308498 L71.8669922,74.9308498 C73.5972656,74.9308498 75,73.5280553 75,71.7977077 L75,58.982119 L65.4993164,58.982119 Z" id="Path" fill="#C5C5C5"></path>
                        <g id="Group" transform="translate(5.858203, 24.424827)">
                            <path d="M17.0541507,30.3178528 L17.0541507,23.4281042 L8.48188506,23.4281042 L8.48188506,30.3178528 C8.48188506,32.6851418 12.7680179,32.8955024 12.7680179,32.8955024 C12.7680179,32.8955024 17.0541507,32.6851418 17.0541507,30.3178528 Z" id="Path" fill="#FFDDCE"></path>
                            <path d="M12.9701663,25.7889477 C15.0572757,25.0642584 16.456348,23.0968889 16.4556158,20.8873703 C16.4551761,19.6656382 16.2767581,18.4504982 15.9260745,17.2801843 C15.3493655,15.3561761 15.0559573,13.35819 15.0553714,11.3495101 L15.0553714,11.3445294 C15.0539065,6.72787639 12.3859866,2.73717792 8.50927764,0.821959074 C4.319971,2.50953144 1.36259795,6.6117093 1.36113311,11.4051766 L1.36113311,11.4100108 C1.36054717,13.3625847 1.07548858,15.3046114 0.514746389,17.1748576 C0.173730764,18.312504 0.000293264476,19.4936582 0,20.6812579 C-0.000732126149,22.8289574 1.35908233,24.7412465 3.38789092,25.44572 C5.30185576,26.1102017 7.26884795,26.5653481 9.25532256,26.8113059 C10.5090823,26.5531894 11.750098,26.2125986 12.9701663,25.7889477 L12.9701663,25.7889477 Z" id="Path" fill="#666666"></path>
                            <path d="M25.0243655,17.1750041 C24.4637698,15.3046114 24.1785647,13.3625847 24.1779788,11.4101572 L24.1779788,11.4053231 C24.1760745,5.10578535 19.0688968,0 12.7696292,0 C11.064844,0 9.44882842,0.376627478 7.99614287,1.04696872 C11.9109378,2.85363799 14.6296878,6.81064361 14.6310062,11.4053231 L14.6310062,11.4101572 C14.6315921,13.3627312 14.9166507,15.3047578 15.4773929,17.1750041 C15.8184085,18.312504 15.991846,19.4936582 15.992139,20.6812579 C15.9928714,22.8289574 14.6330569,24.741393 12.6042483,25.44572 C11.0957522,25.9694241 9.55415069,26.362898 7.99614287,26.6265812 C12.7138187,27.4251018 17.5832522,27.0316279 22.151221,25.44572 C24.1800296,24.7412465 25.539844,22.8289574 25.5391119,20.6812579 C25.5386722,19.4938047 25.3652347,18.3126505 25.0243655,17.1750041 L25.0243655,17.1750041 Z" id="Path" fill="#4A4A4A"></path>
                        </g>
                        <path d="M32.5668457,15.8486777 L32.5668457,3.32035722 C32.5668457,0.267198958 29.9094727,0.00161139722 28.0770996,0 L8.50341797,0 C6.66972656,0 5.18320312,1.48658718 5.18320312,3.32035722 L5.18320312,15.8486777 C5.18320312,17.6824477 6.66972656,19.1690349 8.50341797,19.1690349 L28.6007812,19.1690349 L29.4120117,19.1252342 C30.4023926,19.0717651 31.3428223,18.6070967 31.9283203,17.8065253 C32.329834,17.2576248 32.5668457,16.580838 32.5668457,15.8486777 Z" id="Path" fill="#DDDDDD"></path>
                        <path d="M37.7030273,0 L28.0770996,0 C29.910791,0 31.3973145,1.48658718 31.3973145,3.32035722 L31.3973145,15.8486777 C31.3973145,17.4461583 30.2690918,18.7798092 28.7660156,19.0969615 C28.7050781,19.1098527 28.6498535,19.135342 28.6007812,19.1690349 L31.7056641,19.1690349 C31.8339844,19.1690349 31.9570312,19.2200136 32.0478516,19.3108378 L37.0177734,24.2809728 C37.3867676,24.6499828 38.0178223,24.3886435 38.0178223,23.8666973 L38.0178223,19.5677824 C38.0178223,19.3429193 38.1719238,19.143399 38.3919434,19.0969615 C39.8950195,18.7798092 41.0233887,17.4463048 41.0233887,15.8486777 L41.0233887,3.32035722 C41.0232422,1.48658718 39.5367187,0 37.7030273,0 L37.7030273,0 Z" id="Path" fill="#B0B0B0"></path>
                        <path d="M28.4128418,63.5535065 C28.4128418,60.6381959 26.7732422,59.2305672 23.6942871,58.5694549 L21.9544922,58.2382395 C20.7033691,58.0000457 19.739209,57.0575248 19.4354004,55.8690461 C17.4394043,56.2106623 15.2436035,55.2682879 14.3500488,53.0420694 L14.3399414,53.0170195 L4.71884766,54.8777438 C1.92158203,55.698824 0,58.2654868 0,61.1810903 L0,71.8668512 C0,73.5996892 1.40654297,75.0035092 3.13930664,75 L27.7085449,74.9496006 L28.3970215,74.4216483 L28.4128418,63.5535065 Z" id="Path" fill="#FFC600"></path>
                        <path d="M35.8417969,74.9421296 C36.6244629,74.935977 37.2556641,74.2997681 37.2556641,73.5170685 L37.2556641,61.1806508 C37.2556641,58.2653403 35.334375,55.6986775 32.5371094,54.8774509 L22.9123535,53.0447062 C22.1405273,54.9638803 20.4008789,55.9270564 18.6566895,55.9361388 C18.8311523,57.3049475 19.8647461,58.4323396 21.2503418,58.6961693 L22.9901367,59.0273847 C26.0689453,59.6886435 27.7086914,61.0961257 27.7086914,64.0114363 L27.7086914,74.9500401 L35.8417969,74.9421296 Z" id="Path" fill="#D1A200"></path>
                        <path d="M58.5001465,45.6001976 L55.9381348,43.4095763 L53.212207,45.6866271 C53.0365723,45.8334107 52.8300293,45.9215981 52.6174805,45.9528006 L54.2446289,48.7475493 L57.4374023,48.7475493 L59.0463867,45.8640272 C58.8502441,45.8253537 58.6615723,45.7383383 58.5001465,45.6001976 L58.5001465,45.6001976 Z" id="Path" fill="#B72525"></path>
                    </g>
                </g>
            </g>
        </g>
    </g>
</svg>