<?xml version="1.0" encoding="UTF-8"?>
<svg width="75px" height="75px" viewBox="0 0 75 75" version="1.1" xmlns="http://www.w3.org/2000/svg" xmlns:xlink="http://www.w3.org/1999/xlink">
    <title>accept</title>
    <g id="Mockups" stroke="none" stroke-width="1" fill="none" fill-rule="evenodd">
        <g id="Career" transform="translate(-158.000000, -1593.000000)" fill-rule="nonzero">
            <g id="Group-13" transform="translate(158.000000, 562.000000)">
                <g id="Group-21" transform="translate(0.000000, 583.000000)">
                    <g id="accept" transform="translate(0.000000, 448.000000)">
                        <circle id="Oval" fill="#FFE68E" cx="37.5" cy="37.5" r="37.5"></circle>
                        <path d="M37.5,0 C36.7394366,0 35.9849095,0.0253521127 35.2353622,0.0700201207 C54.8913984,1.24119718 69.5084004,17.5498491 69.5084004,37.5 C69.5084004,57.4501509 54.8913984,73.7588028 35.2353622,74.9299799 C35.9849095,74.9746479 36.7394366,75 37.5,75 C58.2107143,75 75,58.2107143 75,37.5 C75,16.7892857 58.2107143,0 37.5,0 Z" id="Path" fill="#FFDA5A"></path>
                        <circle id="Oval" fill="#FFC600" cx="37.5" cy="37.5" r="32.0084004"></circle>
                        <path d="M37.5,5.4915996 C36.7385312,5.4915996 35.9837022,5.52012072 35.2355131,5.572334 C51.8563883,6.73430584 64.9794266,20.5838028 64.9794266,37.5 C64.9794266,54.4163481 51.8563883,68.2656942 35.2355131,69.427666 C35.9837022,69.4800302 36.7385312,69.5084004 37.5,69.5084004 C55.1778169,69.5084004 69.5084004,55.177666 69.5084004,37.5 C69.5084004,19.822334 55.1778169,5.4915996 37.5,5.4915996 Z" id="Path" fill="#D3A505"></path>
                        <path d="M56.861167,31.0638833 L36.4300805,51.4964789 C34.2630785,53.6619718 30.7530181,53.6619718 28.5875252,51.4964789 L18.138833,41.0477867 C16.9376258,39.8480885 16.9376258,37.9014085 18.138833,36.7017103 L21.1841046,33.6564386 L21.1841046,33.6549296 L22.2162978,32.6227364 C23.415996,31.4230382 25.3626761,31.4230382 26.5623742,32.6227364 L31.7912475,37.8516097 C32.3526157,38.4144869 33.2655936,38.4144869 33.8269618,37.8516097 L48.7379276,22.9406439 C49.9376258,21.7409457 51.8843058,21.7409457 53.084004,22.9406439 L56.861167,26.7178068 C58.0623742,27.9190141 58.0623742,29.8641851 56.861167,31.0638833 Z" id="Path" fill="#F5F5F5"></path>
                        <g id="Group" transform="translate(21.184105, 22.040682)">
                            <path d="M12.6428571,15.8109281 L10.9119718,17.5418134 C10.2298793,18.225415 9.12374245,18.2299422 8.43410463,17.5523768 L3.14185111,12.3567027 C2.29225352,11.5055961 1.06841046,11.2611293 0,11.615757 L0,11.614248 L1.03219316,10.5820548 C2.23189135,9.38235664 4.17857143,9.38235664 5.37826962,10.5820548 L10.6071429,15.8109281 C11.1685111,16.3738053 12.0814889,16.3738053 12.6428571,15.8109281 L12.6428571,15.8109281 Z" id="Path" fill="#E9E9E9"></path>
                            <path d="M35.677666,4.67757797 L31.9002012,0.900113179 C30.7000503,-0.300037726 28.7542757,-0.300037726 27.5541247,0.900113179 L26.5774648,1.87677314 C27.4566398,1.79483149 28.364336,2.09000252 29.0373742,2.76319165 L31.1485412,4.67772887 C32.3486922,5.87787978 32.3486922,7.82365443 31.1485412,9.02380533 L12.4109155,28.0074069 C11.0731388,29.3451836 9.22183099,29.8553949 7.4915493,29.5403043 C9.66322938,31.6199321 13.1087022,31.59292 15.2453722,29.45625 L35.6778169,9.02380533 C36.8778169,7.82365443 36.8778169,5.87772887 35.677666,4.67757797 L35.677666,4.67757797 Z" id="Path" fill="#E5E5E5"></path>
                        </g>
                    </g>
                </g>
            </g>
        </g>
    </g>
</svg>